{"glyphs":{"0":{"ha":872,"x_min":86,"x_max":785,"o":"m 86 513 q 164 885 86 751 q 436 1019 242 1019 q 707 885 629 1019 q 785 513 785 751 q 707 135 785 269 q 436 0 629 0 q 164 135 242 0 q 86 513 86 269 m 660 513 q 644 717 660 633 q 578 853 628 801 q 436 904 529 904 q 292 853 342 904 q 227 717 243 801 q 211 513 211 633 q 227 303 211 388 q 292 167 243 218 q 436 115 342 115 q 578 167 529 115 q 644 303 628 218 q 660 513 660 388 z "},"1":{"ha":444,"x_min":53,"x_max":314,"o":"m 53 889 l 53 1004 l 314 1004 l 314 0 l 186 0 l 186 889 l 53 889 z "},"2":{"ha":799,"x_min":71,"x_max":739,"o":"m 71 101 q 347 334 247 243 q 516 524 447 425 q 585 719 585 624 q 541 862 585 810 q 400 914 497 914 q 253 855 306 914 q 197 697 201 796 l 75 697 q 169 938 81 853 q 399 1022 258 1022 q 626 943 542 1022 q 710 725 710 864 q 641 501 710 610 q 485 309 572 392 q 261 117 397 226 l 739 117 l 739 11 l 71 11 l 71 101 z "},"3":{"ha":818,"x_min":68,"x_max":733,"o":"m 83 751 q 182 951 93 879 q 413 1024 271 1024 q 576 990 507 1024 q 680 897 644 956 q 715 765 715 839 q 666 617 715 679 q 538 536 617 554 l 538 529 q 681 442 628 507 q 733 271 733 376 q 697 128 733 192 q 589 29 661 65 q 415 -7 517 -7 q 174 70 268 -7 q 68 289 79 147 l 190 289 q 258 153 200 206 q 414 100 317 100 q 562 151 511 100 q 613 282 613 201 q 543 432 613 386 q 333 478 474 478 l 301 478 l 301 583 l 335 583 q 528 626 463 585 q 593 753 593 667 q 545 871 593 826 q 408 915 497 915 q 269 871 322 915 q 207 751 217 826 l 83 751 z "},"4":{"ha":874,"x_min":56,"x_max":833,"o":"m 56 224 l 56 319 l 543 994 l 694 994 l 694 333 l 833 333 l 833 224 l 694 224 l 694 0 l 569 0 l 569 224 l 56 224 m 575 863 l 201 333 l 575 333 l 575 863 z "},"5":{"ha":872,"x_min":101,"x_max":790,"o":"m 726 894 l 239 894 l 239 578 q 333 651 271 622 q 468 679 396 679 q 656 631 583 679 q 759 508 728 583 q 790 347 790 432 q 753 168 790 247 q 638 43 715 89 q 447 -3 561 -3 q 211 72 301 -3 q 101 272 121 147 l 225 272 q 301 149 243 193 q 449 104 360 104 q 614 170 558 104 q 669 344 669 236 q 614 512 669 453 q 450 571 558 571 q 322 535 376 571 q 242 439 267 500 l 122 439 l 122 1006 l 726 1006 l 726 894 z "},"6":{"ha":882,"x_min":101,"x_max":797,"o":"m 646 765 q 456 919 615 919 q 271 824 332 919 q 211 511 210 729 q 317 624 243 583 q 483 665 392 665 q 712 576 626 665 q 797 331 797 488 q 760 161 797 236 q 649 42 724 86 q 469 -3 575 -3 q 246 61 326 -3 q 133 238 165 125 q 101 515 101 350 q 457 1025 101 1025 q 671 951 593 1025 q 763 765 749 878 l 646 765 m 457 558 q 344 534 397 558 q 259 460 292 510 q 226 340 226 411 q 288 169 226 235 q 463 103 349 103 q 617 163 560 103 q 675 326 675 224 q 619 497 675 435 q 457 558 564 558 z "},"7":{"ha":758,"x_min":46,"x_max":704,"o":"m 704 906 l 318 0 l 190 0 l 582 893 l 46 893 l 46 1001 l 704 1001 l 704 906 z "},"8":{"ha":876,"x_min":83,"x_max":794,"o":"m 269 522 q 150 611 192 553 q 108 753 108 669 q 146 888 108 828 q 258 984 183 949 q 438 1019 332 1019 q 617 984 543 1019 q 730 888 692 949 q 768 753 768 828 q 725 612 768 672 q 607 522 682 551 q 744 430 693 496 q 794 271 794 364 q 750 113 794 181 q 624 9 706 46 q 438 -28 543 -28 q 252 9 332 -28 q 128 113 172 46 q 83 271 83 181 q 133 431 83 364 q 269 522 183 497 m 646 738 q 590 868 646 822 q 438 914 535 914 q 286 868 342 914 q 231 736 231 822 q 288 611 231 658 q 438 564 346 564 q 588 612 531 564 q 646 738 646 660 m 438 467 q 269 419 335 467 q 204 275 204 371 q 267 132 204 186 q 438 78 331 78 q 607 132 544 78 q 669 275 669 186 q 606 417 669 368 q 438 467 542 467 z "},"9":{"ha":875,"x_min":101,"x_max":783,"o":"m 249 269 q 313 147 263 190 q 450 104 364 104 q 620 194 565 104 q 672 499 675 285 q 575 401 643 436 q 424 365 507 365 q 258 403 331 365 q 143 515 185 442 q 101 693 101 589 q 188 933 101 842 q 432 1024 274 1024 q 705 897 626 1024 q 783 521 783 771 q 752 232 783 346 q 647 58 721 118 q 443 -1 572 -1 q 222 75 301 -1 q 132 269 143 151 l 249 269 m 444 472 q 597 530 538 472 q 657 686 657 588 q 599 854 657 790 q 435 918 540 918 q 280 857 338 918 q 222 696 222 796 q 279 533 222 594 q 444 472 336 472 z "},"\u0000":{"ha":0,"x_min":0,"x_max":0,"o":""},"\r":{"ha":371,"x_min":0,"x_max":0,"o":""}," ":{"ha":371,"x_min":0,"x_max":0,"o":""},"अ":{"ha":1150,"x_min":103,"x_max":1186,"o":"m 1186 1028 l 1186 931 l 1003 931 l 1003 0 l 888 0 l 888 454 l 668 456 q 693 342 693 401 q 616 147 693 219 q 411 74 539 74 q 252 109 322 74 q 142 208 182 144 q 103 356 103 272 l 211 356 q 265 225 211 276 q 403 174 318 174 q 536 223 486 174 q 586 351 586 272 q 554 456 586 411 l 550 456 l 549 464 q 392 528 497 528 l 338 528 l 338 622 l 392 622 q 524 669 476 622 q 571 778 571 715 q 522 897 571 853 q 400 942 474 942 q 272 898 324 942 q 221 782 221 854 l 113 782 q 193 970 113 900 q 400 1040 274 1040 q 599 973 522 1040 q 675 793 675 906 q 631 656 675 713 q 506 579 588 600 l 506 576 q 581 550 544 571 l 888 550 l 888 1028 l 1186 1028 z "},"आ":{"ha":1547,"x_min":103,"x_max":1594,"o":"m 1594 931 l 1413 931 l 1413 0 l 1296 0 l 1296 931 l 1003 931 l 1003 0 l 888 0 l 888 454 l 668 456 q 693 342 693 401 q 616 147 693 219 q 411 74 539 74 q 252 109 322 74 q 142 208 182 144 q 103 356 103 272 l 211 356 q 265 225 211 276 q 403 174 318 174 q 536 223 486 174 q 586 351 586 272 q 554 456 586 411 l 550 456 l 549 464 q 392 528 497 528 l 338 528 l 338 622 l 392 622 q 524 669 476 622 q 571 778 571 715 q 522 897 571 853 q 400 942 474 942 q 272 898 324 942 q 221 782 221 854 l 113 782 q 193 970 113 900 q 400 1040 274 1040 q 599 973 522 1040 q 675 793 675 906 q 631 656 675 713 q 506 579 588 600 l 506 576 q 581 550 544 571 l 888 550 l 888 1028 l 1594 1028 l 1594 931 z "},"इ":{"ha":806,"x_min":-50,"x_max":857,"o":"m 400 679 q 280 653 329 679 q 231 563 231 628 q 273 476 231 504 q 382 449 315 449 l 443 449 q 647 393 565 449 q 729 211 729 338 q 663 46 729 111 q 479 -19 597 -19 q 322 22 381 -19 q 242 110 263 64 l 242 -107 l 132 -107 l 132 249 l 236 249 q 299 119 243 168 q 449 69 354 69 q 574 110 531 69 q 618 214 618 151 q 563 331 618 296 q 422 365 507 365 l 349 365 q 181 417 249 368 q 114 564 114 467 q 188 716 114 668 q 368 764 261 764 l 533 764 l 533 931 l -50 931 l -50 1028 l 857 1028 l 857 931 l 646 931 l 646 679 l 400 679 z "},"ई":{"ha":806,"x_min":-50,"x_max":992,"o":"m 765 1399 q 933 1334 874 1399 q 989 1164 992 1269 l 886 1164 q 856 1263 889 1225 q 768 1300 824 1300 q 643 1131 643 1300 l 643 1028 l 857 1028 l 857 931 l 646 931 l 646 679 l 400 679 q 280 653 329 679 q 231 563 231 628 q 273 476 231 504 q 382 449 315 449 l 443 449 q 647 393 565 449 q 729 211 729 338 q 663 46 729 111 q 479 -19 597 -19 q 322 22 381 -19 q 242 110 263 64 l 242 -107 l 132 -107 l 132 249 l 236 249 q 299 119 243 168 q 449 69 354 69 q 574 110 531 69 q 618 214 618 151 q 563 331 618 296 q 422 365 507 365 l 349 365 q 181 417 249 368 q 114 564 114 467 q 188 716 114 668 q 368 764 261 764 l 533 764 l 533 931 l -50 931 l -50 1028 l 535 1028 l 535 1131 q 592 1326 535 1253 q 765 1399 649 1399 z "},"उ":{"ha":799,"x_min":-37,"x_max":836,"o":"m 667 786 q 624 644 667 701 q 513 575 581 586 l 513 572 q 655 478 601 553 q 708 303 708 403 q 672 148 708 215 q 567 42 636 81 q 404 4 499 4 q 232 44 308 4 q 113 154 156 83 q 71 315 71 225 l 182 315 q 210 210 182 257 q 288 135 239 163 q 399 108 338 108 q 544 165 489 108 q 599 311 599 221 q 547 456 599 394 q 389 518 494 518 l 325 518 l 325 621 l 375 621 q 508 669 461 621 q 554 793 554 717 l 554 931 l -37 931 l -37 1028 l 836 1028 l 836 931 l 667 931 l 667 786 z "},"ऊ":{"ha":1201,"x_min":-37,"x_max":1238,"o":"m 667 786 q 624 644 667 701 q 513 575 581 586 l 513 572 l 801 572 q 1033 505 944 572 q 1122 299 1122 438 q 1048 104 1122 171 q 853 38 974 38 q 788 43 832 38 l 788 132 q 835 131 804 131 q 963 172 914 131 q 1011 303 1011 214 q 953 437 1011 394 q 801 479 894 479 l 650 479 q 708 297 708 404 q 672 146 708 213 q 566 42 635 79 q 404 4 497 4 q 232 44 308 4 q 113 154 156 83 q 71 315 71 225 l 182 315 q 210 210 182 257 q 288 135 239 163 q 399 108 338 108 q 544 165 489 108 q 599 311 599 221 q 547 456 599 394 q 389 518 494 518 l 325 518 l 325 621 l 375 621 q 508 669 461 621 q 554 793 554 717 l 554 931 l -37 931 l -37 1028 l 1238 1028 l 1238 931 l 667 931 l 667 786 z "},"ऋ":{"ha":1418,"x_min":-37,"x_max":1456,"o":"m 800 931 l 800 608 l 1049 608 q 1165 713 1165 608 l 1165 794 l 1267 794 l 1267 303 l 1240 303 q 1120 261 1163 303 q 1078 156 1078 219 q 1124 47 1078 82 q 1242 13 1169 13 q 1321 25 1278 13 l 1321 -69 q 1226 -81 1276 -81 q 1040 -22 1113 -81 q 967 147 967 36 q 1020 296 967 236 q 1165 371 1074 356 l 1165 547 q 1032 515 1110 515 l 800 515 l 800 0 l 692 0 l 692 383 l 313 0 l 168 0 l 168 8 l 692 503 q 616 636 676 585 q 467 688 556 688 q 285 617 354 688 q 215 426 215 546 l 100 426 q 142 615 100 533 q 260 742 183 697 q 435 786 336 786 q 588 751 524 786 q 692 650 653 715 l 692 931 l -37 931 l -37 1028 l 1456 1028 l 1456 931 l 800 931 z "},"ॠ":{"ha":1361,"x_min":-37,"x_max":1457,"o":"m 800 931 l 800 608 l 1049 608 q 1165 713 1165 608 l 1165 794 l 1267 794 l 1267 300 l 1210 300 q 1117 276 1153 300 q 1081 197 1081 253 q 1119 121 1081 146 q 1217 96 1157 96 l 1282 96 l 1282 8 l 1217 8 q 1118 -16 1157 8 q 1079 -97 1079 -40 q 1119 -176 1079 -151 q 1224 -200 1160 -200 q 1297 -193 1260 -200 q 1358 -178 1333 -186 l 1358 -265 q 1290 -284 1332 -276 q 1207 -292 1249 -292 q 1037 -246 1106 -292 q 968 -108 968 -200 q 1003 -5 968 -46 q 1094 49 1039 36 l 1094 51 q 1002 103 1036 65 q 968 203 968 140 q 1026 326 968 286 q 1165 368 1085 367 l 1165 547 q 1032 515 1110 515 l 800 515 l 800 0 l 692 0 l 692 383 l 313 0 l 168 0 l 168 8 l 692 503 q 616 636 676 585 q 467 688 556 688 q 285 617 354 688 q 215 426 215 546 l 100 426 q 142 615 100 533 q 260 742 183 697 q 435 786 336 786 q 588 751 524 786 q 692 650 653 715 l 692 931 l -37 931 l -37 1028 l 1457 1028 l 1457 931 l 800 931 z "},"ऌ":{"ha":1250,"x_min":-37,"x_max":1286,"o":"m 938 931 l 938 753 q 1094 649 1036 733 q 1153 439 1153 565 q 1131 300 1153 361 l 1121 300 q 991 259 1035 300 q 947 153 947 218 q 992 46 947 81 q 1111 11 1038 11 q 1192 22 1158 11 l 1192 -71 q 1099 -83 1144 -83 q 908 -24 982 -83 q 835 147 835 35 q 889 294 835 233 q 1031 365 943 354 q 1039 440 1039 401 q 992 594 1039 535 q 861 654 946 654 q 723 586 769 654 q 676 401 676 518 l 676 376 l 578 376 l 578 401 q 533 585 578 515 q 401 654 488 654 q 263 594 311 654 q 214 438 214 535 q 272 264 214 328 q 435 200 329 200 q 475 203 447 200 l 475 101 q 428 100 457 100 q 183 193 269 100 q 97 439 97 286 q 134 610 97 538 q 236 720 171 682 q 386 758 301 758 q 544 700 486 758 q 625 556 603 642 l 629 556 q 696 684 649 629 q 824 753 743 739 l 824 931 l -37 931 l -37 1028 l 1286 1028 l 1286 931 l 938 931 z "},"ॡ":{"ha":1263,"x_min":-37,"x_max":1293,"o":"m 938 931 l 938 753 q 1094 649 1036 733 q 1153 439 1153 565 q 1131 300 1153 361 l 1079 300 q 986 276 1022 300 q 950 197 950 253 q 988 121 950 146 q 1086 96 1026 96 l 1151 96 l 1151 8 l 1086 8 q 988 -16 1026 8 q 949 -97 949 -40 q 989 -176 949 -151 q 1092 -200 1029 -200 q 1167 -193 1128 -200 q 1228 -178 1206 -186 l 1228 -265 q 1160 -284 1201 -276 q 1076 -292 1118 -292 q 906 -246 975 -292 q 838 -107 838 -200 q 873 -5 838 -46 q 963 49 908 36 l 963 51 q 872 103 906 65 q 838 203 838 140 q 894 325 838 285 q 1031 368 951 365 q 1039 440 1039 401 q 992 594 1039 535 q 861 654 946 654 q 723 586 769 654 q 676 401 676 518 l 676 376 l 578 376 l 578 401 q 533 585 578 515 q 401 654 488 654 q 263 594 311 654 q 214 438 214 535 q 272 264 214 328 q 435 200 329 200 q 475 203 447 200 l 475 101 q 428 100 457 100 q 183 193 269 100 q 97 439 97 286 q 134 610 97 538 q 236 720 171 682 q 386 758 301 758 q 544 700 486 758 q 625 556 603 642 l 629 556 q 696 684 649 629 q 824 753 743 739 l 824 931 l -37 931 l -37 1028 l 1293 1028 l 1293 931 l 938 931 z "},"ए":{"ha":906,"x_min":-37,"x_max":942,"o":"m 500 593 q 529 592 510 592 q 640 635 606 592 q 674 772 674 679 l 674 931 l 257 931 l 257 376 q 313 192 257 258 q 475 126 369 126 q 628 184 574 126 q 683 344 683 242 l 797 344 q 712 110 797 194 q 478 26 626 26 q 227 121 311 26 q 143 379 143 215 l 142 931 l -37 931 l -37 1028 l 942 1028 l 942 931 l 786 931 l 786 769 q 733 557 786 626 q 556 488 679 488 q 500 490 519 488 l 500 593 z "},"ऐ":{"ha":906,"x_min":-37,"x_max":942,"o":"m 500 593 q 529 592 510 592 q 640 635 606 592 q 674 772 674 679 l 674 931 l 257 931 l 257 376 q 313 192 257 258 q 475 126 369 126 q 628 184 574 126 q 683 344 683 242 l 797 344 q 712 110 797 194 q 478 26 626 26 q 227 121 311 26 q 143 379 143 215 l 142 931 l -37 931 l -37 1028 l 668 1028 q 551 1189 597 1139 q 463 1253 506 1239 q 346 1268 419 1268 l 288 1268 l 288 1363 l 344 1363 q 505 1342 446 1363 q 626 1252 564 1322 q 779 1028 689 1182 l 942 1028 l 942 931 l 786 931 l 786 769 q 733 557 786 626 q 556 488 679 488 q 500 490 519 488 l 500 593 z "},"ओ":{"ha":1557,"x_min":103,"x_max":1594,"o":"m 1594 1028 l 1594 931 l 1413 931 l 1413 0 l 1296 0 l 1296 931 l 1003 931 l 1003 0 l 888 0 l 888 454 l 668 456 q 693 342 693 401 q 616 147 693 219 q 411 74 539 74 q 252 109 322 74 q 142 208 182 144 q 103 356 103 272 l 211 356 q 265 225 211 276 q 403 174 318 174 q 536 223 486 174 q 586 351 586 272 q 554 456 586 411 l 550 456 l 549 464 q 392 528 497 528 l 338 528 l 338 622 l 392 622 q 524 669 476 622 q 571 778 571 715 q 522 897 571 853 q 400 942 474 942 q 272 898 324 942 q 221 782 221 854 l 113 782 q 193 970 113 900 q 400 1040 274 1040 q 599 973 522 1040 q 675 793 675 906 q 631 656 675 713 q 506 579 588 600 l 506 576 q 581 550 544 571 l 888 550 l 888 1028 l 1293 1028 q 1176 1189 1222 1139 q 1088 1253 1131 1239 q 971 1268 1044 1268 l 913 1268 l 913 1363 l 969 1363 q 1130 1342 1071 1363 q 1251 1252 1189 1322 q 1404 1028 1314 1182 l 1594 1028 z "},"औ":{"ha":1557,"x_min":103,"x_max":1594,"o":"m 1594 1028 l 1594 931 l 1413 931 l 1413 0 l 1296 0 l 1296 931 l 1003 931 l 1003 0 l 888 0 l 888 454 l 668 456 q 693 342 693 401 q 616 147 693 219 q 411 74 539 74 q 252 109 322 74 q 142 208 182 144 q 103 356 103 272 l 211 356 q 265 225 211 276 q 403 174 318 174 q 536 223 486 174 q 586 351 586 272 q 554 456 586 411 l 550 456 l 549 464 q 392 528 497 528 l 338 528 l 338 622 l 392 622 q 524 669 476 622 q 571 778 571 715 q 522 897 571 853 q 400 942 474 942 q 272 898 324 942 q 221 782 221 854 l 113 782 q 193 970 113 900 q 400 1040 274 1040 q 599 973 522 1040 q 675 793 675 906 q 631 656 675 713 q 506 579 588 600 l 506 576 q 581 550 544 571 l 888 550 l 888 1028 l 1300 1028 q 1173 1118 1218 1092 q 1085 1152 1128 1144 q 963 1160 1043 1160 l 903 1160 l 903 1235 l 960 1235 q 1082 1229 1040 1235 q 1167 1200 1124 1224 q 1278 1121 1211 1176 q 1167 1290 1215 1238 q 1077 1356 1119 1343 q 964 1369 1035 1369 l 903 1369 l 903 1446 l 963 1446 q 1120 1424 1065 1446 q 1238 1315 1175 1401 q 1403 1028 1300 1229 l 1594 1028 z "},"ऍ":{"ha":906,"x_min":-37,"x_max":942,"o":"m 500 593 q 529 592 510 592 q 640 635 606 592 q 674 772 674 679 l 674 931 l 257 931 l 257 376 q 313 192 257 258 q 475 126 369 126 q 628 184 574 126 q 683 344 683 242 l 797 344 q 712 110 797 194 q 478 26 626 26 q 227 121 311 26 q 143 379 143 215 l 142 931 l -37 931 l -37 1028 l 942 1028 l 942 931 l 786 931 l 786 769 q 733 557 786 626 q 556 488 679 488 q 500 490 519 488 l 500 593 m 739 1407 q 708 1285 739 1340 q 614 1197 678 1231 q 457 1163 550 1163 q 299 1196 363 1163 q 204 1285 235 1229 q 174 1407 174 1340 l 275 1407 q 322 1297 275 1343 q 457 1251 368 1251 q 592 1297 546 1251 q 639 1407 639 1343 l 739 1407 z "},"ॲ":{"ha":1151,"x_min":103,"x_max":1239,"o":"m 1186 1028 l 1186 931 l 1003 931 l 1003 0 l 888 0 l 888 454 l 668 456 q 693 342 693 401 q 616 147 693 219 q 411 74 539 74 q 252 109 322 74 q 142 208 182 144 q 103 356 103 272 l 211 356 q 265 225 211 276 q 403 174 318 174 q 536 223 486 174 q 586 351 586 272 q 554 456 586 411 l 550 456 l 549 464 q 392 528 497 528 l 338 528 l 338 622 l 392 622 q 524 669 476 622 q 571 778 571 715 q 522 897 571 853 q 400 942 474 942 q 272 898 324 942 q 221 782 221 854 l 113 782 q 193 970 113 900 q 400 1040 274 1040 q 599 973 522 1040 q 675 793 675 906 q 631 656 675 713 q 506 579 588 600 l 506 576 q 581 550 544 571 l 888 550 l 888 1028 l 1186 1028 m 1239 1411 q 1208 1290 1239 1344 q 1114 1201 1178 1235 q 957 1167 1050 1167 q 799 1200 863 1167 q 704 1289 735 1233 q 674 1411 674 1344 l 775 1411 q 822 1301 775 1347 q 957 1256 868 1256 q 1092 1301 1046 1256 q 1139 1411 1139 1347 l 1239 1411 z "},"ऑ":{"ha":1557,"x_min":103,"x_max":1594,"o":"m 1594 931 l 1413 931 l 1413 0 l 1296 0 l 1296 931 l 1003 931 l 1003 0 l 888 0 l 888 454 l 668 456 q 693 342 693 401 q 616 147 693 219 q 411 74 539 74 q 252 109 322 74 q 142 208 182 144 q 103 356 103 272 l 211 356 q 265 225 211 276 q 403 174 318 174 q 536 223 486 174 q 586 351 586 272 q 554 456 586 411 l 550 456 l 549 464 q 392 528 497 528 l 338 528 l 338 622 l 392 622 q 524 669 476 622 q 571 778 571 715 q 522 897 571 853 q 400 942 474 942 q 272 898 324 942 q 221 782 221 854 l 113 782 q 193 970 113 900 q 400 1040 274 1040 q 599 973 522 1040 q 675 793 675 906 q 631 656 675 713 q 506 579 588 600 l 506 576 q 581 550 544 571 l 888 550 l 888 1028 l 1594 1028 l 1594 931 m 1433 1407 q 1403 1285 1433 1340 q 1308 1197 1372 1231 q 1151 1163 1244 1163 q 993 1196 1057 1163 q 899 1285 929 1229 q 868 1407 868 1340 l 969 1407 q 1016 1297 969 1343 q 1151 1251 1063 1251 q 1287 1297 1240 1251 q 1333 1407 1333 1343 l 1433 1407 z "},"ा":{"ha":408,"x_min":-37,"x_max":444,"o":"m 146 0 l 146 931 l -37 931 l -37 1028 l 444 1028 l 444 931 l 263 931 l 263 0 l 146 0 z "},"ि":{"ha":408,"x_min":-37,"x_max":1214,"o":"m 681 1383 q 947 1344 825 1383 q 1141 1223 1068 1304 q 1214 1024 1214 1142 l 1214 1000 l 1097 1000 l 1097 1022 q 1035 1176 1097 1117 q 879 1262 974 1236 q 681 1288 785 1288 q 385 1230 507 1288 q 261 1028 264 1172 l 444 1028 l 444 931 l 263 931 l 263 0 l 146 0 l 146 931 l -37 931 l -37 1028 l 146 1028 q 221 1230 147 1150 q 414 1347 294 1310 q 681 1383 533 1383 z "},"ी":{"ha":408,"x_min":-262,"x_max":444,"o":"m 444 1028 l 444 931 l 263 931 l 263 0 l 146 0 l 146 931 l -37 931 l -37 1028 l 149 1028 l 149 1086 q 115 1229 149 1172 q 1 1286 82 1286 q -115 1229 -81 1286 q -149 1086 -149 1172 l -149 1000 l -262 1000 l -262 1081 q -199 1301 -262 1218 q 1 1383 -136 1383 q 201 1301 140 1383 q 263 1081 263 1219 l 263 1028 l 444 1028 z "},"ु":{"ha":0,"x_min":-597,"x_max":1,"o":"m 1 -181 q -72 -353 1 -290 q -274 -417 -146 -417 q -506 -344 -414 -417 q -593 -125 -597 -271 l -489 -125 q -434 -274 -494 -224 q -276 -325 -374 -325 q -147 -287 -194 -325 q -99 -179 -99 -249 q -133 -89 -99 -126 q -229 -51 -168 -51 l -262 -51 l -262 40 l -229 40 q -59 -22 -119 40 q 1 -181 1 -83 z "},"ू":{"ha":0,"x_min":-474,"x_max":131,"o":"m -192 -403 q -244 -404 -210 -404 q -409 -348 -344 -404 q -474 -190 -474 -292 q -401 -24 -474 -86 q -208 38 -328 38 q 43 -69 -44 38 q 131 -350 131 -175 q 129 -396 131 -381 l 33 -396 l 33 -339 q -32 -127 33 -203 q -207 -51 -97 -51 q -332 -90 -285 -51 q -379 -192 -379 -128 q -339 -285 -379 -250 q -237 -319 -299 -319 q -192 -317 -225 -319 l -192 -403 z "},"ृ":{"ha":0,"x_min":-456,"x_max":-72,"o":"m -72 -412 q -190 -431 -124 -431 q -378 -373 -301 -431 q -456 -197 -456 -315 q -386 -28 -456 -93 q -193 38 -317 38 l -146 38 l -146 -44 l -185 -44 q -301 -86 -260 -44 q -343 -193 -343 -128 q -295 -301 -343 -267 q -174 -336 -247 -336 q -72 -322 -117 -336 l -72 -412 z "},"ॄ":{"ha":0,"x_min":-435,"x_max":-43,"o":"m -43 -596 q -112 -614 -69 -607 q -196 -621 -154 -621 q -366 -576 -297 -621 q -435 -439 -435 -531 q -399 -335 -435 -376 q -308 -282 -364 -294 l -308 -278 q -400 -227 -367 -264 q -433 -128 -433 -190 q -374 -3 -433 -43 q -232 38 -314 38 l -146 38 l -146 -29 l -192 -29 q -285 -53 -249 -29 q -322 -132 -322 -78 q -284 -210 -322 -185 q -186 -235 -246 -235 l -121 -235 l -121 -321 l -185 -321 q -283 -346 -244 -321 q -322 -426 -322 -371 q -282 -505 -322 -481 q -179 -529 -242 -529 q -104 -523 -142 -529 q -43 -508 -67 -517 l -43 -596 z "},"ॢ":{"ha":0,"x_min":-589,"x_max":213,"o":"m 153 -569 q 213 -560 186 -569 l 213 -636 q 143 -643 181 -643 q 1 -599 57 -643 q -54 -474 -54 -556 q -15 -365 -54 -410 q 89 -311 25 -321 q 92 -264 92 -296 q 60 -153 92 -194 q -32 -111 29 -111 q -128 -160 -96 -111 q -161 -290 -161 -208 l -161 -308 l -239 -308 l -239 -290 q -271 -160 -239 -208 q -365 -111 -303 -111 q -462 -153 -428 -111 q -497 -265 -497 -196 q -456 -385 -497 -340 q -342 -431 -415 -431 q -312 -428 -319 -431 l -312 -508 q -346 -510 -324 -510 q -526 -442 -462 -510 q -589 -264 -589 -375 q -531 -92 -589 -154 q -378 -29 -472 -29 q -261 -72 -304 -29 q -203 -175 -218 -114 l -200 -175 q -140 -72 -185 -114 q -17 -29 -94 -29 q 130 -92 74 -29 q 186 -264 186 -156 q 171 -364 186 -314 l 163 -364 q 67 -393 100 -364 q 33 -468 33 -422 q 68 -544 33 -518 q 153 -569 103 -569 z "},"ॣ":{"ha":0,"x_min":-589,"x_max":238,"o":"m 140 -724 q 196 -719 168 -724 q 238 -708 224 -714 l 238 -779 q 189 -790 219 -786 q 128 -794 158 -794 q 2 -762 51 -794 q -47 -661 -47 -729 q -22 -585 -47 -615 q 43 -547 4 -556 l 43 -544 q -23 -506 1 -535 q -47 -432 -47 -478 q -8 -342 -47 -372 q 89 -308 32 -311 q 92 -264 92 -293 q 60 -153 92 -194 q -32 -111 29 -111 q -128 -160 -96 -111 q -161 -290 -161 -208 l -161 -308 l -239 -308 l -239 -290 q -271 -160 -239 -208 q -365 -111 -303 -111 q -462 -153 -428 -111 q -497 -265 -497 -196 q -456 -385 -497 -340 q -342 -431 -415 -431 q -312 -428 -319 -431 l -312 -508 q -346 -510 -324 -510 q -526 -442 -462 -510 q -589 -264 -589 -375 q -531 -92 -589 -154 q -378 -29 -472 -29 q -261 -72 -304 -29 q -203 -175 -218 -114 l -200 -175 q -140 -72 -185 -114 q -17 -29 -94 -29 q 130 -92 74 -29 q 186 -264 186 -156 q 171 -364 186 -314 l 131 -364 q 65 -381 90 -364 q 39 -436 39 -399 q 65 -491 39 -474 q 136 -508 92 -508 l 182 -508 l 182 -579 l 138 -579 q 38 -653 38 -579 q 67 -707 38 -690 q 140 -724 96 -724 z "},"े":{"ha":0,"x_min":-642,"x_max":-147,"o":"m -257 1022 q -376 1187 -329 1136 q -465 1253 -422 1238 q -583 1268 -508 1268 l -642 1268 l -642 1363 l -585 1363 q -424 1342 -483 1363 q -301 1250 -364 1321 q -147 1022 -239 1179 l -257 1022 z "},"ै":{"ha":0,"x_min":-650,"x_max":-147,"o":"m -590 1446 q -432 1423 -487 1446 q -314 1314 -376 1400 q -147 1024 -251 1228 l -247 1024 q -378 1117 -332 1090 q -466 1152 -424 1144 q -590 1160 -508 1160 l -650 1160 l -650 1235 l -593 1235 q -471 1229 -512 1235 q -385 1200 -429 1224 q -275 1121 -342 1176 q -385 1290 -337 1238 q -476 1356 -433 1343 q -589 1369 -518 1369 l -650 1369 l -650 1446 l -590 1446 z "},"ो":{"ha":408,"x_min":-233,"x_max":444,"o":"m 444 1028 l 444 931 l 263 931 l 263 0 l 146 0 l 146 931 l -37 931 l -37 1028 l 147 1028 q 31 1189 76 1139 q -58 1253 -15 1239 q -175 1268 -101 1268 l -233 1268 l -233 1363 l -176 1363 q -16 1342 -75 1363 q 106 1252 43 1322 q 258 1028 168 1182 l 444 1028 z "},"ौ":{"ha":408,"x_min":-246,"x_max":444,"o":"m 444 1028 l 444 931 l 263 931 l 263 0 l 146 0 l 146 931 l -37 931 l -37 1028 l 151 1028 q 24 1118 69 1092 q -63 1152 -21 1144 q -186 1160 -106 1160 l -246 1160 l -246 1235 l -189 1235 q -67 1229 -108 1235 q 19 1200 -25 1224 q 129 1121 63 1176 q 19 1290 67 1238 q -72 1356 -29 1343 q -185 1369 -114 1369 l -246 1369 l -246 1446 l -186 1446 q -28 1424 -83 1446 q 89 1315 26 1401 q 254 1028 151 1229 l 444 1028 z "},"ॅ":{"ha":0,"x_min":-493,"x_max":72,"o":"m 72 1381 q 42 1259 72 1314 q -53 1170 11 1204 q -210 1136 -117 1136 q -368 1169 -304 1136 q -462 1258 -432 1203 q -493 1381 -493 1314 l -392 1381 q -345 1271 -392 1317 q -210 1225 -299 1225 q -74 1271 -121 1225 q -28 1381 -28 1317 l 72 1381 z "},"ॉ":{"ha":408,"x_min":-79,"x_max":486,"o":"m 146 0 l 146 931 l -37 931 l -37 1028 l 444 1028 l 444 931 l 263 931 l 263 0 l 146 0 m 486 1381 q 456 1259 486 1314 q 361 1170 425 1204 q 204 1136 297 1136 q 46 1169 110 1136 q -49 1258 -18 1203 q -79 1381 -79 1314 l 22 1381 q 69 1271 22 1317 q 204 1225 115 1225 q 340 1271 293 1225 q 386 1381 386 1317 l 486 1381 z "},"क":{"ha":1382,"x_min":-37,"x_max":1418,"o":"m 754 931 l 754 629 q 846 736 785 696 q 994 776 907 776 q 1144 736 1078 776 q 1248 624 1211 696 q 1285 461 1285 553 q 1247 290 1285 363 q 1144 180 1210 218 q 994 142 1078 142 q 908 151 943 142 l 908 243 q 967 238 931 238 q 1110 297 1054 238 q 1167 458 1167 356 q 1108 617 1167 557 q 963 676 1050 676 q 807 608 860 676 q 754 447 754 540 l 754 0 l 643 0 l 643 281 q 548 176 611 215 q 393 136 485 136 q 240 176 307 136 q 135 288 172 215 q 97 458 97 361 q 135 626 97 554 q 242 738 174 699 q 397 776 310 776 q 549 738 486 776 q 643 635 611 699 l 643 931 l -37 931 l -37 1028 l 1418 1028 l 1418 931 l 754 931 m 429 233 q 548 267 500 233 q 619 351 596 300 q 643 456 643 401 q 620 562 643 511 q 549 644 597 613 q 429 676 500 676 q 276 617 338 676 q 214 458 214 557 q 274 294 214 354 q 429 233 335 233 z "},"ख":{"ha":1296,"x_min":-37,"x_max":1333,"o":"m 1333 1028 l 1333 931 l 1150 931 l 1150 0 l 1035 0 l 1035 303 q 953 219 1006 250 q 826 189 901 189 q 774 193 799 189 q 651 51 731 106 q 463 -4 572 -4 q 210 87 304 -4 q 115 338 115 178 l 115 554 l 165 554 q 310 601 257 554 q 363 763 363 647 l 363 931 l -37 931 l -37 1028 l 1333 1028 m 465 97 q 597 133 543 97 q 679 228 650 169 q 585 328 619 264 q 551 476 551 392 q 588 624 551 560 q 686 722 624 688 q 826 757 749 757 q 953 726 900 757 q 1035 644 1006 696 l 1035 931 l 479 931 l 479 749 q 411 535 479 601 q 231 468 343 469 l 231 325 q 293 160 231 222 q 465 97 356 97 m 849 279 q 952 308 910 279 q 1015 381 994 336 q 1035 474 1035 425 q 988 608 1035 550 q 849 667 940 667 q 712 615 767 667 q 657 476 657 564 q 711 332 657 385 q 849 279 765 279 z "},"ग":{"ha":1036,"x_min":-37,"x_max":1072,"o":"m 1072 1028 l 1072 931 l 889 931 l 889 0 l 774 0 l 774 931 l 526 931 l 526 556 q 470 379 526 447 q 299 311 414 311 q 126 376 186 311 q 67 549 67 440 l 67 590 l 181 590 l 181 547 q 208 451 181 490 q 294 411 235 411 q 384 451 358 411 q 410 551 410 490 l 410 931 l -37 931 l -37 1028 l 1072 1028 z "},"घ":{"ha":986,"x_min":-37,"x_max":1024,"o":"m 1024 931 l 842 931 l 842 0 l 725 0 l 725 307 q 603 188 682 231 q 425 146 525 146 q 201 212 286 146 q 115 400 115 278 q 168 543 115 488 q 299 613 221 599 l 299 615 q 182 678 226 628 q 138 824 138 729 l 138 931 l -37 931 l -37 1028 l 1024 1028 l 1024 931 m 725 931 l 254 931 l 254 829 q 299 704 254 746 q 443 663 343 663 l 508 663 l 508 568 l 435 568 q 282 524 332 568 q 232 411 232 481 q 292 285 232 329 q 450 242 353 242 q 589 274 526 242 q 688 366 651 307 q 725 500 725 425 l 725 931 z "},"ङ":{"ha":917,"x_min":-37,"x_max":953,"o":"m 953 1028 l 953 931 l 649 931 l 649 679 l 403 679 q 285 653 333 679 q 236 564 236 628 q 277 476 236 504 q 383 449 318 449 l 446 449 q 649 393 567 449 q 731 214 731 338 q 654 44 731 108 q 438 -19 578 -19 q 192 53 282 -19 q 99 249 101 126 l 213 249 q 272 119 214 168 q 435 69 329 69 q 573 110 525 69 q 621 215 621 150 q 566 331 621 296 q 426 365 511 365 l 369 365 q 192 413 265 365 q 119 567 119 460 q 192 715 119 668 q 371 763 264 763 l 536 763 l 536 931 l -37 931 l -37 1028 l 953 1028 m 817 618 q 868 597 847 618 q 889 546 889 576 q 868 496 889 517 q 817 475 847 475 q 765 496 786 475 q 744 546 744 517 q 765 597 744 576 q 817 618 786 618 z "},"च":{"ha":1021,"x_min":-37,"x_max":1057,"o":"m 1057 931 l 875 931 l 875 0 l 758 0 l 758 283 q 649 178 719 217 q 492 139 579 139 q 342 172 410 139 q 236 268 275 206 q 197 417 197 331 q 230 549 197 490 q 322 640 263 607 l 69 640 l 69 732 l 574 732 l 574 640 l 525 640 q 367 582 426 640 q 307 435 307 524 q 369 289 307 342 q 522 236 431 236 q 644 269 590 236 q 728 360 699 303 q 758 486 758 417 l 758 931 l -37 931 l -37 1028 l 1057 1028 l 1057 931 z "},"छ":{"ha":1135,"x_min":-37,"x_max":1172,"o":"m 868 931 l 868 758 q 1015 669 958 742 q 1071 475 1071 596 q 1006 242 1071 340 q 824 90 942 143 q 553 38 707 38 q 224 117 347 38 q 101 342 101 196 q 156 497 101 438 q 294 571 210 556 l 294 575 q 179 638 224 586 q 135 785 135 689 l 135 931 l -37 931 l -37 1028 l 1172 1028 l 1172 931 l 868 931 m 761 931 l 249 931 l 249 789 q 292 665 249 707 q 432 622 336 622 l 463 622 l 463 526 l 435 526 q 273 478 326 526 q 219 353 219 429 q 308 193 219 249 q 554 138 396 138 q 769 178 676 138 q 915 296 863 219 q 967 478 967 372 q 945 587 967 542 q 889 655 924 632 q 814 678 854 678 q 711 638 756 678 q 667 517 667 597 q 690 388 667 465 l 594 388 q 569 528 569 457 q 623 689 569 632 q 761 760 676 746 l 761 931 z "},"ज":{"ha":1167,"x_min":-37,"x_max":1204,"o":"m 1204 931 l 1021 931 l 1021 0 l 906 0 l 906 593 l 642 593 l 642 461 q 569 259 642 336 q 371 182 496 182 q 175 259 246 182 q 104 461 104 336 l 104 693 l 221 693 l 221 464 q 262 333 221 383 q 372 283 303 283 q 487 333 444 283 q 529 464 529 383 l 529 693 l 906 693 l 906 931 l -37 931 l -37 1028 l 1204 1028 l 1204 931 z "},"झ":{"ha":1179,"x_min":-37,"x_max":1217,"o":"m 1217 931 l 1033 931 l 1033 0 l 919 0 l 919 360 l 657 361 q 725 200 725 303 q 663 49 725 108 q 486 -10 601 -10 q 331 28 388 -10 q 250 107 275 65 l 250 -107 l 140 -107 l 140 238 l 244 238 q 307 123 253 168 q 454 78 361 78 q 576 117 535 78 q 618 214 618 156 q 568 325 618 285 q 422 365 518 365 l 349 365 q 181 417 249 368 q 114 564 114 467 q 188 716 114 668 q 368 764 261 764 l 533 764 l 533 931 l -37 931 l -37 1028 l 1217 1028 l 1217 931 m 919 449 l 919 931 l 646 931 l 646 679 l 400 679 q 280 653 329 679 q 231 563 231 628 q 273 476 231 504 q 382 449 315 449 l 443 449 l 919 449 z "},"ञ":{"ha":1125,"x_min":-37,"x_max":1161,"o":"m 1161 931 l 979 931 l 979 0 l 863 0 l 863 407 l 717 407 q 622 203 704 282 q 403 124 539 124 q 249 156 315 124 q 145 244 183 189 q 97 365 107 299 l 207 365 q 274 265 224 306 q 404 224 324 224 q 559 289 504 224 q 614 451 614 354 q 559 613 614 547 q 404 678 504 678 q 272 636 322 678 q 207 536 221 594 l 97 536 q 190 708 111 639 q 403 778 269 778 q 617 702 536 778 q 715 507 699 626 l 863 507 l 863 931 l -37 931 l -37 1028 l 1161 1028 l 1161 931 z "},"ट":{"ha":903,"x_min":-37,"x_max":940,"o":"m 504 671 q 294 603 376 671 q 213 410 213 536 q 245 281 213 338 q 337 192 278 224 q 469 160 396 160 q 605 193 546 160 q 697 285 664 226 q 729 421 729 344 l 840 421 q 794 232 840 314 q 665 105 749 150 q 472 60 582 60 q 278 103 364 60 q 145 227 193 147 q 97 408 97 307 q 148 605 97 524 q 289 728 199 686 q 499 769 379 769 l 531 769 l 531 931 l -37 931 l -37 1028 l 940 1028 l 940 931 l 644 931 l 644 671 l 504 671 z "},"ठ":{"ha":938,"x_min":-37,"x_max":975,"o":"m 525 931 l 525 761 q 687 705 615 750 q 800 585 758 660 q 842 415 842 511 q 793 232 842 311 q 660 109 744 153 q 469 65 575 65 q 279 109 364 65 q 146 233 194 153 q 97 415 97 313 q 138 585 97 511 q 251 703 179 658 q 411 760 322 749 l 411 931 l -37 931 l -37 1028 l 975 1028 l 975 931 l 525 931 m 728 415 q 695 544 728 488 q 603 633 663 601 q 469 665 544 665 q 337 633 396 665 q 245 544 278 601 q 213 415 213 488 q 245 285 213 343 q 337 196 278 228 q 469 164 396 164 q 603 196 544 164 q 695 285 663 228 q 728 415 728 343 z "},"ड":{"ha":797,"x_min":-37,"x_max":833,"o":"m 403 679 q 285 653 333 679 q 236 564 236 628 q 277 476 236 504 q 383 449 318 449 l 446 449 q 649 393 567 449 q 731 214 731 338 q 654 44 731 108 q 438 -19 578 -19 q 192 53 282 -19 q 99 249 101 126 l 213 249 q 272 119 214 168 q 435 69 329 69 q 573 110 525 69 q 621 215 621 150 q 566 331 621 296 q 426 365 511 365 l 369 365 q 192 413 265 365 q 119 567 119 460 q 192 715 119 668 q 371 763 264 763 l 529 763 l 529 931 l -37 931 l -37 1028 l 833 1028 l 833 931 l 640 931 l 640 679 l 403 679 z "},"ढ":{"ha":890,"x_min":-37,"x_max":928,"o":"m 539 692 q 300 615 392 692 q 208 390 208 538 q 247 239 208 306 q 355 135 285 172 q 517 97 425 97 q 684 149 618 97 q 750 282 750 200 q 711 385 750 344 q 611 425 672 425 q 522 391 558 425 q 485 303 485 357 q 489 276 485 288 l 401 276 q 399 318 399 301 q 460 458 399 407 q 615 510 521 510 q 786 447 722 510 q 850 282 850 383 q 809 140 850 201 q 693 44 768 78 q 515 11 618 11 q 301 58 396 11 q 151 192 206 106 q 97 393 97 278 q 150 603 97 517 q 295 732 203 689 q 506 775 388 775 l 561 775 l 561 931 l -37 931 l -37 1028 l 928 1028 l 928 931 l 671 931 l 671 692 l 539 692 z "},"ण":{"ha":1189,"x_min":-37,"x_max":1225,"o":"m 1225 931 l 1042 931 l 1042 0 l 926 0 l 926 931 l 656 931 l 656 532 q 586 331 656 407 q 390 254 517 254 q 196 332 265 254 q 126 532 126 410 l 126 931 l -37 931 l -37 1028 l 1225 1028 l 1225 931 m 542 931 l 240 931 l 240 521 q 281 399 240 446 q 392 353 322 353 q 501 399 461 353 q 542 521 542 446 l 542 931 z "},"त":{"ha":964,"x_min":-37,"x_max":1001,"o":"m 1001 931 l 818 931 l 818 0 l 701 0 l 701 592 l 499 592 q 290 529 365 592 q 214 344 214 467 q 281 161 214 226 q 474 96 347 96 l 504 96 l 504 3 l 458 3 q 195 91 293 3 q 97 346 97 179 q 205 606 97 519 q 493 692 313 692 l 701 692 l 701 931 l -37 931 l -37 1028 l 1001 1028 l 1001 931 z "},"थ":{"ha":1064,"x_min":110,"x_max":1101,"o":"m 1101 1028 l 1101 931 l 918 931 l 918 0 l 801 0 l 801 318 q 689 190 771 243 q 486 138 607 138 q 285 183 371 138 q 155 315 200 229 q 110 515 110 400 q 114 589 110 551 l 251 589 q 538 786 538 589 q 497 897 538 853 q 388 940 457 940 q 274 897 315 940 q 232 779 232 853 q 238 719 232 758 l 132 719 q 126 783 126 758 q 199 972 126 903 q 389 1040 272 1040 q 524 1008 465 1040 q 614 917 582 975 q 646 783 646 858 q 549 574 646 644 q 292 504 453 504 l 221 504 q 294 308 222 381 q 503 235 365 235 q 653 270 585 235 q 761 372 721 306 q 801 526 801 438 l 801 1028 l 1101 1028 z "},"द":{"ha":846,"x_min":-37,"x_max":883,"o":"m 476 678 q 289 618 363 678 q 215 449 215 558 q 274 290 215 350 q 433 231 333 231 q 527 251 482 231 q 601 315 572 272 q 631 419 631 357 l 738 419 l 738 -22 l 624 -22 l 624 244 q 535 167 594 196 q 403 138 476 138 q 244 175 314 138 q 136 283 175 213 q 97 453 97 354 q 146 631 97 558 q 278 741 194 704 q 467 778 363 778 l 567 778 l 567 931 l -37 931 l -37 1028 l 883 1028 l 882 931 l 682 931 l 682 678 l 476 678 z "},"ध":{"ha":989,"x_min":113,"x_max":1031,"o":"m 1031 931 l 850 931 l 850 0 l 733 0 l 733 304 q 611 181 692 225 q 424 136 531 136 q 207 199 292 136 q 122 378 122 263 q 173 516 122 464 q 292 579 224 568 l 292 583 q 165 659 217 601 q 113 811 113 717 q 178 976 113 913 q 350 1040 244 1040 q 519 979 457 1040 q 581 819 581 918 q 579 774 581 789 l 490 774 l 492 807 q 455 904 492 865 q 354 943 418 943 q 251 902 289 943 q 214 800 214 861 q 272 676 214 721 q 425 631 329 631 l 504 631 l 504 536 l 429 536 q 289 496 338 536 q 240 389 240 456 q 299 273 240 313 q 450 233 357 233 q 595 269 531 233 q 697 369 660 304 q 733 517 733 433 l 733 1028 l 1031 1028 l 1031 931 z "},"न":{"ha":1096,"x_min":-37,"x_max":1133,"o":"m 1133 931 l 950 931 l 950 0 l 835 0 l 835 603 l 564 603 q 619 522 599 569 q 639 418 639 475 q 603 282 639 340 q 507 193 568 224 q 369 163 446 163 q 226 196 290 163 q 124 290 161 229 q 88 431 88 350 q 126 575 88 514 q 230 668 164 636 q 379 700 296 700 l 835 700 l 835 931 l -37 931 l -37 1028 l 1133 1028 l 1133 931 m 371 261 q 497 309 447 261 q 546 432 546 357 q 497 554 546 506 q 371 603 447 603 q 243 555 293 603 q 193 431 193 507 q 242 308 193 356 q 371 261 292 261 z "},"प":{"ha":910,"x_min":-37,"x_max":946,"o":"m 946 931 l 764 931 l 764 0 l 649 0 l 649 393 q 555 305 614 336 q 415 274 496 274 q 194 367 269 274 q 118 618 118 460 l 118 931 l -37 931 l -37 1028 l 946 1028 l 946 931 m 649 931 l 233 931 l 233 618 q 285 437 233 501 q 443 372 338 372 q 594 434 539 372 q 649 588 649 496 l 649 931 z "},"फ":{"ha":1368,"x_min":-37,"x_max":1406,"o":"m 738 931 l 738 631 q 831 737 768 697 q 983 776 893 776 q 1133 737 1067 776 q 1235 626 1199 697 q 1272 464 1272 556 q 1235 291 1272 364 q 1131 180 1197 218 q 982 142 1065 142 q 893 153 931 142 l 893 243 q 956 236 924 236 q 1099 297 1043 236 q 1156 458 1156 357 q 1097 617 1156 557 q 950 676 1039 676 q 791 605 844 676 q 738 435 738 533 l 738 0 l 622 0 l 622 390 q 533 304 589 335 q 403 274 478 274 q 191 365 264 274 q 118 613 118 456 l 118 931 l -37 931 l -37 1028 l 1406 1028 l 1406 931 l 738 931 m 622 931 l 233 931 l 233 613 q 282 435 233 499 q 429 372 331 372 q 571 433 519 372 q 622 582 622 493 l 622 931 z "},"ब":{"ha":957,"x_min":-37,"x_max":993,"o":"m 993 1028 l 993 931 l 811 931 l 811 0 l 700 0 l 700 272 q 597 167 665 207 q 435 126 529 126 q 263 167 340 126 q 142 284 186 208 q 97 458 97 360 q 141 633 97 557 q 261 749 185 708 q 431 790 338 790 q 594 749 525 790 q 700 643 663 708 l 700 931 l -37 931 l -37 1028 l 993 1028 m 453 711 q 282 650 351 711 l 661 317 q 704 461 704 381 q 676 581 704 524 q 590 675 647 639 q 453 711 533 711 m 200 458 q 234 327 200 383 q 326 242 268 271 q 456 213 385 213 q 626 275 560 213 l 244 608 q 200 458 200 544 z "},"भ":{"ha":1104,"x_min":106,"x_max":1142,"o":"m 1142 1028 l 1142 931 l 957 931 l 957 0 l 842 0 l 842 535 l 614 535 l 614 428 q 549 215 614 289 q 363 140 483 140 q 176 208 247 140 q 106 386 106 275 q 181 566 106 501 q 375 631 257 631 l 506 631 l 506 761 q 474 893 506 846 q 378 940 443 940 q 285 901 321 940 q 250 794 250 863 q 256 742 250 768 l 140 742 q 135 799 135 778 q 198 974 135 908 q 374 1040 261 1040 q 556 961 499 1040 q 614 743 614 882 l 614 631 l 842 631 l 842 1028 l 1142 1028 m 506 535 l 378 535 q 259 495 304 535 q 214 386 214 456 q 256 279 214 319 q 361 239 297 239 q 467 288 429 239 q 506 422 506 336 l 506 535 z "},"म":{"ha":1092,"x_min":-37,"x_max":1128,"o":"m 1128 931 l 946 931 l 946 0 l 829 0 l 829 535 l 575 535 l 575 428 q 510 215 575 289 q 322 140 444 140 q 137 208 207 140 q 67 386 67 275 q 142 566 67 501 q 335 631 217 631 l 467 631 l 467 931 l -37 931 l -37 1028 l 1128 1028 l 1128 931 m 829 931 l 575 931 l 575 631 l 829 631 l 829 931 m 467 535 l 338 535 q 220 494 265 535 q 175 386 175 454 q 217 279 175 319 q 322 239 258 239 q 428 288 390 239 q 467 422 467 336 l 467 535 z "},"य":{"ha":1024,"x_min":-37,"x_max":1061,"o":"m 1061 931 l 878 931 l 878 0 l 763 0 l 763 304 q 646 197 722 238 q 463 156 569 156 q 192 261 288 156 q 96 547 96 367 q 100 613 96 579 l 119 613 q 306 663 243 613 q 368 835 368 714 l 368 931 l -37 931 l -37 1028 l 1061 1028 l 1061 931 m 763 931 l 483 931 l 483 815 q 210 546 483 557 l 210 536 q 283 328 210 404 q 486 253 356 253 q 627 285 564 253 q 726 378 690 318 q 763 514 763 438 l 763 931 z "},"र":{"ha":743,"x_min":-37,"x_max":781,"o":"m 229 471 l 229 281 q 269 140 229 193 q 388 88 310 88 q 503 137 461 88 q 546 267 546 186 l 546 293 l 657 293 l 657 269 q 585 64 657 140 q 390 -12 514 -12 q 185 69 256 -12 q 115 288 115 151 l 115 565 l 261 565 q 499 797 499 565 l 499 931 l -37 931 l -37 1028 l 781 1028 l 781 931 l 614 931 l 614 797 q 536 555 614 639 q 300 471 458 471 l 229 471 z "},"ल":{"ha":1256,"x_min":-37,"x_max":1292,"o":"m 950 931 l 950 746 q 1102 641 1046 722 q 1158 436 1158 560 q 1121 260 1158 338 q 1008 140 1083 183 q 828 96 933 96 q 781 99 817 96 l 781 200 q 821 197 811 197 q 983 263 925 197 q 1042 433 1042 328 q 995 590 1042 529 q 861 651 949 651 q 724 583 771 651 q 676 397 676 514 l 676 376 l 578 376 l 578 397 q 533 582 578 513 q 401 651 488 651 q 263 591 311 651 q 214 433 214 531 q 272 263 214 328 q 435 197 331 197 q 475 200 447 197 l 475 99 q 428 96 439 96 q 247 140 322 96 q 135 260 172 183 q 97 436 97 338 q 134 606 97 533 q 236 716 171 678 q 386 754 301 754 q 546 696 488 754 q 626 553 604 638 l 631 553 q 700 685 650 629 q 836 751 750 740 l 836 931 l -37 931 l -37 1028 l 1292 1028 l 1292 931 l 950 931 z "},"व":{"ha":936,"x_min":-37,"x_max":974,"o":"m 974 1028 l 974 931 l 790 931 l 790 0 l 678 0 l 678 279 q 574 173 642 213 q 414 133 507 133 q 249 174 321 133 q 137 290 176 215 q 97 463 97 364 q 138 629 97 557 q 250 742 178 701 q 414 782 322 782 q 576 742 508 782 q 678 636 643 703 l 678 931 l -37 931 l -37 1028 l 974 1028 m 443 226 q 573 260 519 226 q 652 347 626 294 q 678 456 678 400 l 678 457 q 652 568 678 515 q 573 654 626 621 q 443 688 519 688 q 325 660 378 688 q 242 580 272 632 q 211 458 211 528 q 276 289 211 351 q 443 226 342 226 z "},"श":{"ha":1131,"x_min":125,"x_max":1168,"o":"m 242 444 l 242 292 q 285 144 242 200 q 418 89 329 89 q 540 140 496 89 q 583 275 583 190 l 583 293 l 696 293 l 696 274 q 622 65 696 142 q 421 -11 549 -11 q 202 73 279 -11 q 125 300 125 157 l 125 543 l 328 543 q 520 597 446 543 q 594 754 594 650 q 549 890 594 840 q 424 939 503 939 q 298 890 344 939 q 251 756 251 840 q 256 694 251 726 l 140 694 q 135 758 135 739 q 170 906 135 842 q 271 1005 206 969 q 424 1040 336 1040 q 633 963 554 1040 q 713 747 713 885 q 617 522 713 600 q 367 444 521 444 l 242 444 m 1168 1028 l 1168 931 l 985 931 l 985 0 l 868 0 l 868 1028 l 1168 1028 z "},"ष":{"ha":918,"x_min":-37,"x_max":956,"o":"m 956 931 l 772 931 l 772 0 l 658 0 l 658 386 q 565 298 624 329 q 422 267 506 267 q 196 361 274 267 q 118 618 118 456 l 118 931 l -37 931 l -37 1028 l 956 1028 l 956 931 m 658 931 l 229 931 l 658 585 l 658 931 m 444 365 q 572 402 521 365 q 644 501 624 439 l 229 838 l 229 615 q 283 431 229 497 q 444 365 338 365 z "},"स":{"ha":1138,"x_min":-37,"x_max":1175,"o":"m 1175 931 l 990 931 l 990 0 l 876 0 l 876 485 l 229 485 l 229 282 q 269 140 229 193 q 390 88 310 88 q 507 137 464 88 q 550 267 550 186 l 550 283 l 661 283 q 663 261 663 274 q 590 62 663 136 q 392 -12 517 -12 q 187 70 258 -12 q 115 288 115 153 l 115 571 l 243 571 q 421 633 360 571 q 482 804 482 696 l 482 931 l -37 931 l -37 1028 l 1175 1028 l 1175 931 m 876 931 l 596 931 l 596 804 q 574 675 596 732 q 511 581 551 618 l 876 581 l 876 931 z "},"ह":{"ha":814,"x_min":-37,"x_max":850,"o":"m 400 683 q 293 656 335 683 q 251 571 251 629 q 278 499 251 528 q 350 457 304 469 q 428 464 389 464 q 640 398 563 464 q 733 235 717 332 l 622 235 q 558 330 608 289 q 425 371 507 371 q 273 311 328 371 q 218 161 218 251 q 273 11 218 69 q 425 -47 328 -47 q 556 -8 506 -47 q 622 86 607 32 l 733 86 q 684 -29 724 24 q 578 -113 644 -82 q 425 -144 513 -144 q 252 -104 325 -144 q 142 6 179 -64 q 104 163 104 75 q 144 318 104 250 q 254 424 183 386 q 169 489 201 446 q 138 592 138 532 q 199 723 138 678 q 363 768 261 768 l 544 768 l 544 931 l -37 931 l -37 1028 l 850 1028 l 850 931 l 654 931 l 654 683 l 400 683 z "},"ळ":{"ha":1386,"x_min":-37,"x_max":1421,"o":"m 1050 931 l 1050 754 q 1223 649 1157 732 q 1289 444 1289 565 q 1248 282 1289 353 q 1135 172 1207 211 q 976 132 1064 132 q 797 187 872 132 q 694 326 721 242 l 690 326 q 588 186 663 240 q 408 132 513 132 q 250 172 321 132 q 138 282 179 211 q 97 444 97 353 q 138 611 97 539 q 250 723 179 683 q 407 763 321 763 q 584 710 513 763 q 690 571 656 657 l 694 571 q 787 699 725 649 q 936 760 849 750 l 936 931 l -37 931 l -37 1028 l 1421 1028 l 1421 931 l 1050 931 m 424 232 q 576 291 518 232 q 635 444 635 350 q 576 602 635 542 q 424 663 518 663 q 269 602 329 663 q 210 443 210 542 q 270 290 210 349 q 424 232 331 232 m 1175 443 q 1115 602 1175 542 q 963 663 1056 663 q 808 601 867 663 q 750 444 750 540 q 808 291 750 350 q 961 232 867 232 q 1115 290 1054 232 q 1175 443 1175 349 z "},"क़":{"ha":1382,"x_min":-37,"x_max":1418,"o":"m 754 931 l 754 629 q 846 736 785 696 q 994 776 907 776 q 1144 736 1078 776 q 1248 624 1211 696 q 1285 461 1285 553 q 1247 290 1285 363 q 1144 180 1210 218 q 994 142 1078 142 q 908 151 943 142 l 908 243 q 967 238 931 238 q 1110 297 1054 238 q 1167 458 1167 356 q 1108 617 1167 557 q 963 676 1050 676 q 807 608 860 676 q 754 447 754 540 l 754 0 l 643 0 l 643 281 q 548 176 611 215 q 393 136 485 136 q 240 176 307 136 q 135 288 172 215 q 97 458 97 361 q 135 626 97 554 q 242 738 174 699 q 397 776 310 776 q 549 738 486 776 q 643 635 611 699 l 643 931 l -37 931 l -37 1028 l 1418 1028 l 1418 931 l 754 931 m 429 233 q 548 267 500 233 q 619 351 596 300 q 643 456 643 401 q 620 562 643 511 q 549 644 597 613 q 429 676 500 676 q 276 617 338 676 q 214 458 214 557 q 274 294 214 354 q 429 233 335 233 m 451 -56 q 429 -110 451 -87 q 374 -132 407 -132 q 318 -110 340 -132 q 296 -56 296 -87 q 318 1 296 -22 q 374 24 340 24 q 429 1 407 24 q 451 -56 451 -22 z "},"ख़":{"ha":1296,"x_min":-37,"x_max":1333,"o":"m 1333 1028 l 1333 931 l 1150 931 l 1150 0 l 1035 0 l 1035 303 q 953 219 1006 250 q 826 189 901 189 q 774 193 799 189 q 651 51 731 106 q 463 -4 572 -4 q 210 87 304 -4 q 115 338 115 178 l 115 554 l 165 554 q 310 601 257 554 q 363 763 363 647 l 363 931 l -37 931 l -37 1028 l 1333 1028 m 465 97 q 597 133 543 97 q 679 228 650 169 q 585 328 619 264 q 551 476 551 392 q 588 624 551 560 q 686 722 624 688 q 826 757 749 757 q 953 726 900 757 q 1035 644 1006 696 l 1035 931 l 479 931 l 479 749 q 411 535 479 601 q 231 468 343 469 l 231 325 q 293 160 231 222 q 465 97 356 97 m 849 279 q 952 308 910 279 q 1015 381 994 336 q 1035 474 1035 425 q 988 608 1035 550 q 849 667 940 667 q 712 615 767 667 q 657 476 657 564 q 711 332 657 385 q 849 279 765 279 m 517 -192 q 494 -246 517 -224 q 439 -268 472 -268 q 383 -246 406 -268 q 361 -192 361 -224 q 383 -135 361 -158 q 439 -112 406 -112 q 494 -135 472 -112 q 517 -192 517 -158 z "},"ग़":{"ha":1035,"x_min":-37,"x_max":1072,"o":"m 1072 1028 l 1072 931 l 889 931 l 889 0 l 774 0 l 774 931 l 526 931 l 526 556 q 470 379 526 447 q 299 311 414 311 q 126 376 186 311 q 67 549 67 440 l 67 590 l 181 590 l 181 547 q 208 451 181 490 q 294 411 235 411 q 384 451 358 411 q 410 551 410 490 l 410 931 l -37 931 l -37 1028 l 1072 1028 m 382 115 q 360 61 382 83 q 304 39 338 39 q 249 61 271 39 q 226 115 226 83 q 249 172 226 149 q 304 194 271 194 q 360 172 338 194 q 382 115 382 149 z "},"ज़":{"ha":1167,"x_min":-37,"x_max":1204,"o":"m 1204 931 l 1021 931 l 1021 0 l 906 0 l 906 593 l 642 593 l 642 461 q 569 259 642 336 q 371 182 496 182 q 175 259 246 182 q 104 461 104 336 l 104 693 l 221 693 l 221 464 q 262 333 221 383 q 372 283 303 283 q 487 333 444 283 q 529 464 529 383 l 529 693 l 906 693 l 906 931 l -37 931 l -37 1028 l 1204 1028 l 1204 931 m 454 -7 q 432 -61 454 -39 q 376 -83 410 -83 q 321 -61 343 -83 q 299 -7 299 -39 q 321 49 299 26 q 376 72 343 72 q 432 49 410 72 q 454 -7 454 26 z "},"ड़":{"ha":797,"x_min":-37,"x_max":833,"o":"m 403 679 q 285 653 333 679 q 236 564 236 628 q 277 476 236 504 q 383 449 318 449 l 446 449 q 649 393 567 449 q 731 214 731 338 q 654 44 731 108 q 438 -19 578 -19 q 192 53 282 -19 q 99 249 101 126 l 213 249 q 272 119 214 168 q 435 69 329 69 q 573 110 525 69 q 621 215 621 150 q 566 331 621 296 q 426 365 511 365 l 369 365 q 192 413 265 365 q 119 567 119 460 q 192 715 119 668 q 371 763 264 763 l 529 763 l 529 931 l -37 931 l -37 1028 l 833 1028 l 833 931 l 640 931 l 640 679 l 403 679 m 508 -210 q 486 -264 508 -242 q 431 -286 464 -286 q 375 -264 397 -286 q 353 -210 353 -242 q 375 -153 353 -176 q 431 -131 397 -131 q 486 -153 464 -131 q 508 -210 508 -176 z "},"ढ़":{"ha":890,"x_min":-37,"x_max":928,"o":"m 539 692 q 300 615 392 692 q 208 390 208 538 q 247 239 208 306 q 355 135 285 172 q 517 97 425 97 q 684 149 618 97 q 750 282 750 200 q 711 385 750 344 q 611 425 672 425 q 522 391 558 425 q 485 303 485 357 q 489 276 485 288 l 401 276 q 399 318 399 301 q 460 458 399 407 q 615 510 521 510 q 786 447 722 510 q 850 282 850 383 q 809 140 850 201 q 693 44 768 78 q 515 11 618 11 q 301 58 396 11 q 151 192 206 106 q 97 393 97 278 q 150 603 97 517 q 295 732 203 689 q 506 775 388 775 l 561 775 l 561 931 l -37 931 l -37 1028 l 928 1028 l 928 931 l 671 931 l 671 692 l 539 692 m 560 -178 q 538 -232 560 -210 q 482 -254 515 -254 q 426 -232 449 -254 q 404 -178 404 -210 q 426 -122 404 -144 q 482 -99 449 -99 q 538 -122 515 -99 q 560 -178 560 -144 z "},"फ़":{"ha":1368,"x_min":-37,"x_max":1406,"o":"m 738 931 l 738 631 q 831 737 768 697 q 983 776 893 776 q 1133 737 1067 776 q 1235 626 1199 697 q 1272 464 1272 556 q 1235 291 1272 364 q 1131 180 1197 218 q 982 142 1065 142 q 893 153 931 142 l 893 243 q 956 236 924 236 q 1099 297 1043 236 q 1156 458 1156 357 q 1097 617 1156 557 q 950 676 1039 676 q 791 605 844 676 q 738 435 738 533 l 738 0 l 622 0 l 622 390 q 533 304 589 335 q 403 274 478 274 q 191 365 264 274 q 118 613 118 456 l 118 931 l -37 931 l -37 1028 l 1406 1028 l 1406 931 l 738 931 m 622 931 l 233 931 l 233 613 q 282 435 233 499 q 429 372 331 372 q 571 433 519 372 q 622 582 622 493 l 622 931 m 439 89 q 417 35 439 57 q 361 13 394 13 q 306 35 328 13 q 283 89 283 57 q 306 145 283 122 q 361 168 328 168 q 417 145 394 168 q 439 89 439 122 z "},"ऱ":{"ha":743,"x_min":-37,"x_max":781,"o":"m 229 471 l 229 281 q 269 140 229 193 q 388 88 310 88 q 503 137 461 88 q 546 267 546 186 l 546 293 l 657 293 l 657 269 q 585 64 657 140 q 390 -12 514 -12 q 185 69 256 -12 q 115 288 115 151 l 115 565 l 261 565 q 499 797 499 565 l 499 931 l -37 931 l -37 1028 l 781 1028 l 781 931 l 614 931 l 614 797 q 536 555 614 639 q 300 471 458 471 l 229 471 m 238 -146 q 215 -200 238 -178 q 160 -222 193 -222 q 104 -200 126 -222 q 82 -146 82 -178 q 104 -90 82 -112 q 160 -67 126 -67 q 215 -90 193 -67 q 238 -146 238 -112 z "},"ं":{"ha":0,"x_min":-283,"x_max":-126,"o":"m -126 1238 q -149 1183 -126 1206 q -204 1160 -172 1160 q -260 1183 -237 1160 q -283 1238 -283 1206 q -260 1292 -283 1269 q -204 1315 -237 1315 q -149 1292 -172 1315 q -126 1238 -126 1269 z "},"ँ":{"ha":0,"x_min":-493,"x_max":72,"o":"m -151 1421 q -168 1381 -151 1397 q -210 1364 -185 1364 q -250 1381 -233 1364 q -267 1421 -267 1397 q -250 1462 -267 1444 q -210 1479 -233 1479 q -168 1462 -185 1479 q -151 1421 -151 1444 m 72 1381 q 40 1257 72 1313 q -55 1169 8 1201 q -210 1136 -118 1136 q -365 1169 -301 1136 q -461 1257 -429 1201 q -493 1381 -493 1313 l -397 1381 q -349 1269 -397 1317 q -210 1221 -300 1221 q -71 1269 -119 1221 q -22 1381 -22 1317 l 72 1381 z "},"ः":{"ha":322,"x_min":82,"x_max":240,"o":"m 240 683 q 217 628 240 650 q 161 606 194 606 q 105 628 128 606 q 82 683 82 650 q 106 738 82 715 q 161 761 129 761 q 217 738 194 761 q 240 683 240 715 m 240 261 q 217 206 240 229 q 161 183 194 183 q 106 206 129 183 q 82 261 82 229 q 106 316 82 293 q 161 339 129 339 q 217 316 194 339 q 240 261 240 293 z "},"ऽ":{"ha":800,"x_min":106,"x_max":678,"o":"m 106 85 l 106 185 l 429 185 q 515 209 486 185 q 544 272 544 233 q 508 359 544 318 q 393 467 471 400 q 286 563 328 521 q 215 656 244 604 q 186 765 186 707 q 244 892 186 851 q 396 933 301 933 l 678 933 l 678 835 l 422 835 q 336 816 368 835 q 304 750 304 797 q 343 658 304 703 q 460 550 382 614 q 566 453 526 493 q 634 364 606 414 q 663 257 663 314 q 609 133 663 182 q 457 85 556 85 l 106 85 z "},"्":{"ha":0,"x_min":-258,"x_max":31,"o":"m -89 -361 l -258 -85 l -142 -85 l 31 -361 l -89 -361 z "},"़":{"ha":0,"x_min":-576,"x_max":-421,"o":"m -421 -129 q -443 -183 -421 -161 q -499 -206 -465 -206 q -554 -183 -532 -206 q -576 -129 -576 -161 q -554 -73 -576 -96 q -499 -50 -532 -50 q -443 -73 -465 -50 q -421 -129 -421 -96 z "},"०":{"ha":872,"x_min":86,"x_max":785,"o":"m 86 513 q 164 885 86 751 q 436 1019 242 1019 q 707 885 629 1019 q 785 513 785 751 q 707 135 785 269 q 436 0 629 0 q 164 135 242 0 q 86 513 86 269 m 660 513 q 644 717 660 633 q 578 853 628 801 q 436 904 529 904 q 292 853 342 904 q 227 717 243 801 q 211 513 211 633 q 227 303 211 388 q 292 167 243 218 q 436 115 342 115 q 578 167 529 115 q 644 303 628 218 q 660 513 660 388 z "},"१":{"ha":444,"x_min":53,"x_max":314,"o":"m 53 889 l 53 1004 l 314 1004 l 314 0 l 186 0 l 186 889 l 53 889 z "},"२":{"ha":799,"x_min":71,"x_max":739,"o":"m 71 101 q 347 334 247 243 q 516 524 447 425 q 585 719 585 624 q 541 862 585 810 q 400 914 497 914 q 253 855 306 914 q 197 697 201 796 l 75 697 q 169 938 81 853 q 399 1022 258 1022 q 626 943 542 1022 q 710 725 710 864 q 641 501 710 610 q 485 309 572 392 q 261 117 397 226 l 739 117 l 739 11 l 71 11 l 71 101 z "},"३":{"ha":818,"x_min":68,"x_max":733,"o":"m 83 751 q 182 951 93 879 q 413 1024 271 1024 q 576 990 507 1024 q 680 897 644 956 q 715 765 715 839 q 666 617 715 679 q 538 536 617 554 l 538 529 q 681 442 628 507 q 733 271 733 376 q 697 128 733 192 q 589 29 661 65 q 415 -7 517 -7 q 174 70 268 -7 q 68 289 79 147 l 190 289 q 258 153 200 206 q 414 100 317 100 q 562 151 511 100 q 613 282 613 201 q 543 432 613 386 q 333 478 474 478 l 301 478 l 301 583 l 335 583 q 528 626 463 585 q 593 753 593 667 q 545 871 593 826 q 408 915 497 915 q 269 871 322 915 q 207 751 217 826 l 83 751 z "},"४":{"ha":874,"x_min":56,"x_max":833,"o":"m 56 224 l 56 319 l 543 994 l 694 994 l 694 333 l 833 333 l 833 224 l 694 224 l 694 0 l 569 0 l 569 224 l 56 224 m 575 863 l 201 333 l 575 333 l 575 863 z "},"५":{"ha":872,"x_min":101,"x_max":790,"o":"m 726 894 l 239 894 l 239 578 q 333 651 271 622 q 468 679 396 679 q 656 631 583 679 q 759 508 728 583 q 790 347 790 432 q 753 168 790 247 q 638 43 715 89 q 447 -3 561 -3 q 211 72 301 -3 q 101 272 121 147 l 225 272 q 301 149 243 193 q 449 104 360 104 q 614 170 558 104 q 669 344 669 236 q 614 512 669 453 q 450 571 558 571 q 322 535 376 571 q 242 439 267 500 l 122 439 l 122 1006 l 726 1006 l 726 894 z "},"६":{"ha":882,"x_min":101,"x_max":797,"o":"m 646 765 q 456 919 615 919 q 271 824 332 919 q 211 511 210 729 q 317 624 243 583 q 483 665 392 665 q 712 576 626 665 q 797 331 797 488 q 760 161 797 236 q 649 42 724 86 q 469 -3 575 -3 q 246 61 326 -3 q 133 238 165 125 q 101 515 101 350 q 457 1025 101 1025 q 671 951 593 1025 q 763 765 749 878 l 646 765 m 457 558 q 344 534 397 558 q 259 460 292 510 q 226 340 226 411 q 288 169 226 235 q 463 103 349 103 q 617 163 560 103 q 675 326 675 224 q 619 497 675 435 q 457 558 564 558 z "},"७":{"ha":758,"x_min":46,"x_max":704,"o":"m 704 906 l 318 0 l 190 0 l 582 893 l 46 893 l 46 1001 l 704 1001 l 704 906 z "},"८":{"ha":876,"x_min":83,"x_max":794,"o":"m 269 522 q 150 611 192 553 q 108 753 108 669 q 146 888 108 828 q 258 984 183 949 q 438 1019 332 1019 q 617 984 543 1019 q 730 888 692 949 q 768 753 768 828 q 725 612 768 672 q 607 522 682 551 q 744 430 693 496 q 794 271 794 364 q 750 113 794 181 q 624 9 706 46 q 438 -28 543 -28 q 252 9 332 -28 q 128 113 172 46 q 83 271 83 181 q 133 431 83 364 q 269 522 183 497 m 646 738 q 590 868 646 822 q 438 914 535 914 q 286 868 342 914 q 231 736 231 822 q 288 611 231 658 q 438 564 346 564 q 588 612 531 564 q 646 738 646 660 m 438 467 q 269 419 335 467 q 204 275 204 371 q 267 132 204 186 q 438 78 331 78 q 607 132 544 78 q 669 275 669 186 q 606 417 669 368 q 438 467 542 467 z "},"९":{"ha":875,"x_min":101,"x_max":783,"o":"m 249 269 q 313 147 263 190 q 450 104 364 104 q 620 194 565 104 q 672 499 675 285 q 575 401 643 436 q 424 365 507 365 q 258 403 331 365 q 143 515 185 442 q 101 693 101 589 q 188 933 101 842 q 432 1024 274 1024 q 705 897 626 1024 q 783 521 783 771 q 752 232 783 346 q 647 58 721 118 q 443 -1 572 -1 q 222 75 301 -1 q 132 269 143 151 l 249 269 m 444 472 q 597 530 538 472 q 657 686 657 588 q 599 854 657 790 q 435 918 540 918 q 280 857 338 918 q 222 696 222 796 q 279 533 222 594 q 444 472 336 472 z "},"ॐ":{"ha":1467,"x_min":110,"x_max":1347,"o":"m 800 1261 q 759 1278 775 1261 q 743 1319 743 1294 q 759 1361 743 1344 q 800 1378 775 1378 q 842 1360 825 1378 q 858 1319 858 1343 q 842 1278 858 1294 q 800 1261 825 1261 m 800 1033 q 644 1066 708 1033 q 549 1154 581 1099 q 517 1278 517 1210 l 611 1278 q 633 1201 611 1238 q 697 1142 654 1165 q 800 1119 739 1119 q 902 1142 860 1119 q 966 1201 944 1165 q 988 1278 988 1238 l 1082 1278 q 1050 1154 1082 1210 q 955 1066 1018 1099 q 800 1033 892 1033 m 1076 953 q 1284 867 1221 953 q 1347 610 1347 781 l 1347 421 q 1263 131 1347 228 q 994 35 1178 35 q 858 49 939 35 l 858 146 q 975 135 928 135 q 1177 206 1119 135 q 1235 424 1235 278 l 1235 624 q 1199 795 1235 736 q 1076 854 1163 854 q 960 806 996 854 q 924 678 924 758 q 864 483 924 542 q 672 425 804 425 l 669 425 q 703 293 703 367 q 624 92 703 168 q 418 17 546 17 q 258 52 328 17 q 149 151 188 88 q 110 299 110 215 l 219 299 q 273 168 219 219 q 411 117 326 117 q 545 168 496 117 q 594 304 594 219 q 546 431 594 376 q 399 485 497 485 l 344 485 l 344 583 l 399 583 q 532 632 485 583 q 579 747 579 681 q 530 873 579 826 q 406 919 481 919 q 279 876 329 919 q 229 761 229 833 l 121 761 q 201 948 121 878 q 407 1018 281 1018 q 608 948 531 1018 q 686 763 686 878 q 642 618 686 678 q 515 539 599 558 l 515 535 q 572 517 550 528 l 656 517 q 776 553 736 517 q 815 679 815 589 q 876 881 815 810 q 1076 953 938 953 z "},"॰":{"ha":685,"x_min":113,"x_max":574,"o":"m 346 708 q 510 645 446 708 q 574 482 574 582 q 510 322 574 385 q 346 260 446 260 q 226 289 279 260 q 142 369 172 318 q 113 485 113 421 q 142 600 113 549 q 226 680 172 651 q 346 708 279 708 m 346 636 q 231 594 276 636 q 186 485 186 551 q 231 376 186 418 q 346 333 276 333 q 455 375 413 333 q 497 482 497 417 q 455 593 497 550 q 346 636 413 636 z "},"।":{"ha":392,"x_min":218,"x_max":332,"o":"m 332 1029 l 332 0 l 218 0 l 218 1029 l 332 1029 z "},"॥":{"ha":685,"x_min":218,"x_max":625,"o":"m 332 1029 l 332 0 l 218 0 l 218 1029 l 332 1029 m 625 1029 l 625 0 l 510 0 l 510 1029 l 625 1029 z "},"₨":{"ha":1540,"x_min":107,"x_max":1426,"o":"m 754 683 q 692 503 754 579 q 503 406 631 426 l 768 0 l 614 0 l 358 400 l 233 400 l 233 0 l 107 0 l 107 968 l 419 968 q 669 888 583 968 q 754 683 754 808 m 233 500 l 419 500 q 574 549 524 500 q 625 683 625 599 q 575 819 625 771 q 419 868 525 868 l 233 868 l 233 500 m 974 554 q 999 488 974 513 q 1061 450 1024 463 q 1167 422 1099 438 q 1302 385 1250 404 q 1390 322 1354 365 q 1426 206 1426 279 q 1390 93 1426 143 q 1291 15 1354 43 q 1147 -12 1228 -12 q 936 51 1017 -12 q 846 231 856 115 l 976 231 q 1027 128 982 167 q 1147 89 1072 89 q 1261 122 1221 89 q 1301 208 1301 154 q 1276 276 1301 250 q 1211 315 1250 301 q 1104 343 1172 328 q 971 381 1021 363 q 885 440 921 399 q 850 550 850 481 q 884 663 850 613 q 983 744 918 714 q 1133 774 1047 774 q 1333 709 1257 774 q 1417 532 1410 644 l 1288 532 q 1241 634 1282 596 q 1125 672 1200 672 q 1014 640 1054 672 q 974 554 974 607 z "},"₹":{"ha":882,"x_min":71,"x_max":826,"o":"m 647 750 l 647 726 l 826 726 l 826 635 l 640 635 q 585 485 628 539 q 463 407 543 431 q 251 383 383 383 l 251 274 q 415 86 251 86 q 576 267 576 86 l 693 267 q 619 57 692 128 q 414 -14 547 -14 q 205 63 276 -14 q 133 276 133 139 l 133 472 q 367 483 292 472 q 478 527 443 493 q 522 635 513 561 l 71 635 l 71 726 l 528 726 l 528 751 l 528 876 l 71 876 l 71 969 l 826 969 l 826 876 l 647 876 l 647 750 z "},"‌":{"ha":0,"x_min":-32,"x_max":33,"o":"m -32 -319 l -32 1126 l 33 1126 l 33 -319 l -32 -319 z "},"‍":{"ha":0,"x_min":-178,"x_max":178,"o":"m 132 778 l 32 882 l 32 -319 l -33 -319 l -33 882 l -129 781 l -175 826 l -46 956 l -178 1088 l -132 1133 l 0 1001 l 133 1133 l 178 1089 l 44 956 l 178 824 l 132 778 z "},"◌":{"ha":904,"x_min":69,"x_max":835,"o":"m 478 692 q 461 649 478 665 q 418 633 444 633 q 375 649 392 633 q 358 692 358 665 q 375 734 358 718 q 418 750 392 750 q 461 734 444 750 q 478 692 478 718 m 646 671 q 629 628 646 644 q 586 613 613 613 q 543 628 560 613 q 526 671 526 644 q 543 713 526 697 q 586 729 560 729 q 629 713 613 729 q 646 671 646 697 m 315 633 q 299 591 315 607 q 256 575 282 575 q 213 591 229 575 q 196 633 196 607 q 213 676 196 660 q 256 692 229 692 q 299 676 282 692 q 315 633 315 660 m 774 568 q 757 526 774 542 q 714 510 740 510 q 671 526 688 510 q 654 568 654 542 q 671 610 654 594 q 714 626 688 626 q 757 610 740 626 q 774 568 774 594 m 210 496 q 193 453 210 469 q 150 438 176 438 q 107 453 124 438 q 90 496 90 469 q 107 538 90 522 q 150 554 124 554 q 193 538 176 554 q 210 496 210 522 m 835 410 q 818 367 835 383 q 775 351 801 351 q 732 367 749 351 q 715 410 715 383 q 732 452 715 436 q 775 468 749 468 q 818 452 801 468 q 835 410 835 436 m 189 328 q 172 285 189 301 q 129 269 156 269 q 86 285 103 269 q 69 328 69 301 q 86 370 69 354 q 129 386 103 386 q 172 370 156 386 q 189 328 189 354 m 821 243 q 804 201 821 217 q 761 185 788 185 q 718 201 735 185 q 701 243 701 217 q 718 285 701 269 q 761 301 735 301 q 804 285 788 301 q 821 243 821 269 m 251 171 q 235 128 251 144 q 192 113 218 113 q 149 128 165 113 q 132 171 132 144 q 149 213 132 197 q 192 229 165 229 q 235 213 218 229 q 251 171 251 197 m 719 110 q 703 67 719 83 q 660 51 686 51 q 617 67 633 51 q 600 110 600 83 q 617 152 600 136 q 660 168 633 168 q 703 152 686 168 q 719 110 719 136 m 388 65 q 371 23 388 39 q 328 7 354 7 q 285 23 301 7 q 268 65 268 39 q 285 108 268 92 q 328 124 301 124 q 371 108 354 124 q 388 65 388 92 m 560 46 q 543 3 560 19 q 500 -12 526 -12 q 457 3 474 -12 q 440 46 440 19 q 457 88 440 72 q 500 104 474 104 q 543 88 526 104 q 560 46 560 72 z "},"!":{"ha":414,"x_min":122,"x_max":292,"o":"m 271 968 l 256 274 l 150 274 l 135 968 l 271 968 m 208 -8 q 147 17 172 -8 q 122 78 122 42 q 147 139 122 114 q 208 164 172 164 q 267 139 243 164 q 292 78 292 114 q 267 17 292 42 q 208 -8 243 -8 z "},"\"":{"ha":406,"x_min":49,"x_max":356,"o":"m 168 1106 l 153 829 l 65 829 l 49 1106 l 168 1106 m 356 1106 l 340 829 l 253 829 l 236 1106 l 356 1106 z "},"#":{"ha":1167,"x_min":46,"x_max":1090,"o":"m 874 639 l 821 389 l 1013 389 l 1013 278 l 797 278 l 738 0 l 617 0 l 676 278 l 385 278 l 325 0 l 204 0 l 264 278 l 46 278 l 46 389 l 288 389 l 340 639 l 125 639 l 125 750 l 364 750 l 424 1028 l 544 1028 l 485 750 l 776 750 l 836 1028 l 957 1028 l 897 750 l 1090 750 l 1090 639 l 874 639 m 753 639 l 461 639 l 408 389 l 700 389 l 753 639 z "},"$":{"ha":864,"x_min":83,"x_max":732,"o":"m 732 265 q 699 138 732 199 q 601 38 665 78 q 446 -8 536 -3 l 446 -121 l 371 -121 l 371 -8 q 165 73 244 3 q 85 251 86 143 l 219 251 q 263 150 225 193 q 371 96 301 107 l 371 443 q 221 492 278 467 q 124 569 164 517 q 83 711 83 622 q 162 897 83 824 q 371 979 240 971 l 371 1094 l 446 1094 l 446 979 q 636 903 564 969 q 719 732 708 838 l 585 732 q 542 820 578 781 q 446 872 506 860 l 446 533 q 595 485 538 510 q 692 408 653 461 q 732 265 732 356 m 213 718 q 253 614 213 650 q 371 554 293 578 l 371 875 q 256 828 299 868 q 213 718 213 789 m 446 94 q 563 149 521 103 q 606 258 606 194 q 564 363 606 326 q 446 422 522 400 l 446 94 z "},"%":{"ha":1054,"x_min":58,"x_max":994,"o":"m 58 778 q 115 928 58 872 q 261 985 172 985 q 407 928 350 985 q 464 778 464 872 q 407 626 464 682 q 261 569 350 569 q 115 626 172 569 q 58 778 58 682 m 869 969 l 307 0 l 182 0 l 744 969 l 869 969 m 261 907 q 187 874 214 907 q 160 778 160 842 q 187 681 160 714 q 261 647 214 647 q 336 681 308 647 q 364 778 364 715 q 336 874 364 842 q 261 907 308 907 m 590 192 q 647 344 590 288 q 793 400 704 400 q 938 344 882 400 q 994 192 994 288 q 938 40 994 97 q 793 -17 882 -17 q 647 40 704 -17 q 590 192 590 96 m 792 321 q 717 288 744 321 q 689 192 689 256 q 717 97 689 129 q 792 64 744 64 q 867 97 839 64 q 894 192 894 129 q 867 288 894 256 q 792 321 839 321 z "},"&":{"ha":1026,"x_min":51,"x_max":1015,"o":"m 850 0 l 724 128 q 572 19 653 54 q 390 -17 492 -17 q 213 19 290 -17 q 94 122 136 56 q 51 278 51 189 q 109 456 51 379 q 279 578 167 533 q 215 675 235 631 q 196 772 196 719 q 227 883 196 833 q 317 960 258 932 q 451 988 375 988 q 582 958 526 988 q 665 877 638 929 q 690 761 693 825 l 564 761 q 532 851 565 818 q 446 883 499 883 q 356 852 390 883 q 322 772 322 821 q 345 692 322 731 q 422 596 368 653 l 711 306 l 736 344 l 831 503 l 967 503 l 853 306 q 797 218 829 264 l 1015 0 l 850 0 m 390 92 q 526 121 465 92 q 640 211 586 150 l 356 497 q 178 282 178 429 q 237 146 178 200 q 390 92 296 92 z "},"'":{"ha":221,"x_min":49,"x_max":171,"o":"m 171 1106 l 154 829 l 67 829 l 49 1106 l 171 1106 z "},"(":{"ha":631,"x_min":150,"x_max":585,"o":"m 432 -258 q 224 74 299 -128 q 150 508 150 275 q 228 955 150 747 q 453 1297 307 1163 l 585 1297 l 585 1285 q 351 934 429 1139 q 272 508 272 729 q 347 97 272 293 q 564 -246 421 -99 l 564 -258 l 432 -258 z "},")":{"ha":631,"x_min":46,"x_max":481,"o":"m 67 -258 l 67 -246 q 284 97 210 -99 q 358 508 358 293 q 280 934 358 729 q 46 1285 201 1139 l 46 1297 l 178 1297 q 402 955 324 1163 q 481 508 481 747 q 406 74 481 275 q 199 -258 332 -128 l 67 -258 z "},"*":{"ha":675,"x_min":85,"x_max":589,"o":"m 538 931 l 588 840 l 394 760 l 589 681 l 536 588 l 368 710 l 390 500 l 286 500 l 307 710 l 139 586 l 85 681 l 278 761 l 85 839 l 136 932 l 308 808 l 286 1019 l 392 1019 l 368 808 l 538 931 z "},"+":{"ha":949,"x_min":121,"x_max":829,"o":"m 829 454 l 533 454 l 533 154 l 415 154 l 415 454 l 121 454 l 121 561 l 415 561 l 415 863 l 533 863 l 533 561 l 829 561 l 829 454 z "},",":{"ha":275,"x_min":-3,"x_max":238,"o":"m 238 175 l 82 -199 l -3 -199 l 99 175 l 238 175 z "},"-":{"ha":765,"x_min":81,"x_max":635,"o":"m 635 563 l 635 456 l 81 456 l 81 563 l 635 563 z "},".":{"ha":292,"x_min":61,"x_max":231,"o":"m 147 -8 q 86 17 111 -8 q 61 78 61 42 q 86 139 61 114 q 147 164 111 164 q 206 139 182 164 q 231 78 231 114 q 206 17 231 42 q 147 -8 182 -8 z "},"/":{"ha":661,"x_min":74,"x_max":579,"o":"m 579 1308 l 199 -236 l 74 -236 l 453 1308 l 579 1308 z "},":":{"ha":296,"x_min":61,"x_max":231,"o":"m 147 -8 q 86 17 111 -8 q 61 78 61 42 q 86 139 61 114 q 147 164 111 164 q 206 139 182 164 q 231 78 231 114 q 206 17 231 42 q 147 -8 182 -8 m 147 586 q 86 611 111 586 q 61 672 61 636 q 86 733 61 708 q 147 758 111 758 q 206 733 182 758 q 231 672 231 708 q 206 611 231 636 q 147 586 182 586 z "},";":{"ha":367,"x_min":32,"x_max":272,"o":"m 181 588 q 119 613 144 588 q 94 674 94 638 q 119 735 94 710 q 181 760 144 760 q 240 735 215 760 q 264 674 264 710 q 240 613 264 638 q 181 588 215 588 m 272 175 l 117 -199 l 32 -199 l 133 175 l 272 175 z "},"<":{"ha":771,"x_min":117,"x_max":611,"o":"m 451 189 l 117 508 l 451 826 l 611 826 l 275 508 l 611 189 l 451 189 z "},"=":{"ha":1004,"x_min":140,"x_max":863,"o":"m 863 711 l 863 604 l 140 604 l 140 711 l 863 711 m 863 413 l 863 306 l 140 306 l 140 413 l 863 413 z "},">":{"ha":749,"x_min":131,"x_max":626,"o":"m 131 826 l 290 826 l 626 508 l 290 189 l 131 189 l 467 508 l 131 826 z "},"?":{"ha":728,"x_min":51,"x_max":661,"o":"m 354 981 q 576 903 492 981 q 661 694 661 825 q 571 478 661 549 q 326 408 481 408 l 322 276 l 213 276 l 207 496 l 247 496 q 463 538 385 496 q 540 694 540 579 q 490 826 540 778 q 356 875 440 875 q 220 828 269 875 q 171 701 171 782 l 51 701 q 89 848 51 785 q 195 946 126 911 q 354 981 264 981 m 267 -8 q 206 17 231 -8 q 181 78 181 42 q 206 139 181 114 q 267 164 231 164 q 326 139 301 164 q 350 78 350 114 q 326 17 350 42 q 267 -8 301 -8 z "},"@":{"ha":1407,"x_min":100,"x_max":1306,"o":"m 801 890 q 1069 832 956 890 q 1244 669 1183 774 q 1306 426 1306 564 q 1269 216 1306 317 q 1165 53 1233 115 q 1004 -10 1096 -10 q 897 25 935 -10 q 854 119 860 60 q 745 25 811 60 q 606 -10 679 -10 q 440 55 500 -10 q 379 229 379 119 q 423 424 379 333 q 544 569 467 514 q 721 624 622 624 q 899 524 853 624 l 914 610 l 1024 610 l 954 208 q 950 160 950 182 q 1024 76 950 76 q 1120 129 1079 76 q 1182 262 1161 182 q 1203 419 1203 342 q 1094 701 1203 601 q 786 801 985 801 q 488 722 621 801 q 281 503 356 642 q 206 196 206 364 q 315 -87 204 13 q 624 -186 426 -186 q 854 -139 754 -186 l 871 -225 q 599 -276 747 -276 q 337 -220 450 -276 q 162 -59 224 -164 q 100 185 100 46 q 190 542 100 381 q 441 797 281 704 q 801 890 601 890 m 643 89 q 758 126 706 89 q 842 226 811 163 q 872 364 872 289 q 833 481 872 436 q 721 526 793 526 q 603 487 654 526 q 525 383 553 447 q 497 249 497 318 q 535 132 497 175 q 643 89 572 89 z "},"A":{"ha":936,"x_min":46,"x_max":890,"o":"m 679 215 l 257 215 l 179 0 l 46 0 l 396 963 l 542 963 l 890 0 l 757 0 l 679 215 m 643 318 l 468 807 l 293 318 l 643 318 z "},"B":{"ha":851,"x_min":107,"x_max":783,"o":"m 592 499 q 688 456 644 490 q 758 369 732 421 q 783 260 783 318 q 746 127 783 186 q 637 34 708 68 q 468 0 565 0 l 107 0 l 107 968 l 454 968 q 622 935 553 968 q 726 847 692 903 q 761 722 761 792 q 715 580 761 636 q 592 499 668 524 m 233 550 l 446 550 q 583 592 535 550 q 632 707 632 633 q 583 822 632 781 q 443 864 535 864 l 233 864 l 233 550 m 457 104 q 604 149 551 104 q 657 272 657 193 q 601 399 657 353 q 453 446 546 446 l 233 446 l 233 104 l 457 104 z "},"C":{"ha":1072,"x_min":60,"x_max":992,"o":"m 60 485 q 124 740 60 626 q 298 917 188 853 q 543 981 408 981 q 819 904 701 981 q 992 688 938 828 l 840 688 q 724 822 800 775 q 543 869 649 869 q 361 822 442 869 q 235 688 281 775 q 189 485 189 601 q 235 283 189 369 q 361 149 281 196 q 543 101 442 101 q 724 148 649 101 q 840 282 800 194 l 992 282 q 819 67 938 143 q 543 -8 701 -8 q 298 55 408 -8 q 124 231 188 118 q 60 485 60 343 z "},"D":{"ha":982,"x_min":107,"x_max":922,"o":"m 408 968 q 683 909 567 968 q 860 740 799 850 q 922 482 922 631 q 860 224 922 333 q 683 58 799 115 q 408 0 567 0 l 107 0 l 107 968 l 408 968 m 408 104 q 694 203 596 104 q 793 482 793 303 q 694 764 793 663 q 408 865 594 865 l 233 865 l 233 104 l 408 104 z "},"E":{"ha":713,"x_min":107,"x_max":628,"o":"m 233 865 l 233 542 l 586 542 l 586 438 l 233 438 l 233 104 l 628 104 l 628 0 l 107 0 l 107 969 l 628 969 l 628 865 l 233 865 z "},"F":{"ha":700,"x_min":107,"x_max":654,"o":"m 654 968 l 654 865 l 233 865 l 233 539 l 575 539 l 575 436 l 233 436 l 233 0 l 107 0 l 107 968 l 654 968 z "},"G":{"ha":1081,"x_min":60,"x_max":1021,"o":"m 840 688 q 724 819 800 772 q 546 865 647 865 q 363 819 444 865 q 235 685 282 772 q 189 485 189 599 q 235 285 189 371 q 363 152 282 199 q 546 106 444 106 q 779 190 688 106 q 886 419 871 275 l 500 419 l 500 522 l 1021 522 l 1021 425 q 946 206 1010 306 q 778 49 882 107 q 546 -8 674 -8 q 300 55 411 -8 q 124 231 189 118 q 60 485 60 343 q 124 740 60 626 q 300 916 189 853 q 546 979 411 979 q 819 903 700 979 q 992 688 938 826 l 840 688 z "},"H":{"ha":961,"x_min":107,"x_max":853,"o":"m 853 968 l 853 0 l 726 0 l 726 439 l 233 439 l 233 0 l 107 0 l 107 968 l 233 968 l 233 543 l 726 543 l 726 968 l 853 968 z "},"I":{"ha":342,"x_min":107,"x_max":233,"o":"m 233 968 l 233 0 l 107 0 l 107 968 l 233 968 z "},"J":{"ha":736,"x_min":57,"x_max":594,"o":"m 594 968 l 594 253 q 521 62 594 133 q 326 -10 447 -10 q 131 63 204 -10 q 57 263 57 136 l 183 263 q 220 147 185 192 q 326 103 256 103 q 432 145 397 103 q 467 253 467 188 l 467 968 l 594 968 z "},"K":{"ha":832,"x_min":107,"x_max":797,"o":"m 632 0 l 233 442 l 233 0 l 107 0 l 107 968 l 233 968 l 233 519 l 633 968 l 793 968 l 354 483 l 797 0 l 632 0 z "},"L":{"ha":600,"x_min":107,"x_max":572,"o":"m 233 103 l 572 103 l 572 0 l 107 0 l 107 968 l 233 968 l 233 103 z "},"M":{"ha":1196,"x_min":107,"x_max":1089,"o":"m 1089 961 l 1089 0 l 963 0 l 963 717 l 643 0 l 554 0 l 233 718 l 233 0 l 107 0 l 107 961 l 243 961 l 599 167 l 954 961 l 1089 961 z "},"N":{"ha":976,"x_min":107,"x_max":868,"o":"m 868 0 l 742 0 l 233 771 l 233 0 l 107 0 l 107 969 l 233 969 l 742 200 l 742 969 l 868 969 l 868 0 z "},"O":{"ha":1092,"x_min":60,"x_max":1032,"o":"m 546 -10 q 300 53 411 -10 q 124 230 189 117 q 60 485 60 343 q 124 740 60 626 q 300 916 189 853 q 546 979 411 979 q 793 916 682 979 q 968 740 904 853 q 1032 485 1032 628 q 968 229 1032 342 q 793 53 904 117 q 546 -10 682 -10 m 546 100 q 728 147 647 100 q 856 282 810 194 q 903 485 903 369 q 856 688 903 601 q 729 822 810 775 q 546 869 649 869 q 363 822 443 869 q 235 688 282 775 q 189 485 189 601 q 235 282 189 369 q 363 147 282 194 q 546 100 444 100 z "},"P":{"ha":804,"x_min":107,"x_max":754,"o":"m 754 685 q 672 484 754 564 q 419 404 589 404 l 233 404 l 233 0 l 107 0 l 107 968 l 419 968 q 669 889 583 968 q 754 685 754 810 m 419 508 q 575 554 525 508 q 625 685 625 600 q 419 864 625 864 l 233 864 l 233 508 l 419 508 z "},"Q":{"ha":1094,"x_min":60,"x_max":1047,"o":"m 883 -183 l 690 10 q 546 -10 619 -10 q 300 53 411 -10 q 124 230 189 117 q 60 485 60 343 q 124 740 60 626 q 300 916 189 853 q 546 979 411 979 q 793 916 682 979 q 968 740 904 853 q 1032 485 1032 628 q 971 235 1032 346 q 803 60 910 124 l 1047 -183 l 883 -183 m 189 485 q 235 282 189 369 q 363 147 282 194 q 546 100 444 100 q 728 147 647 100 q 856 282 810 194 q 903 485 903 369 q 856 688 903 601 q 729 822 810 775 q 546 869 649 869 q 363 822 443 869 q 235 688 282 775 q 189 485 189 601 z "},"R":{"ha":844,"x_min":107,"x_max":768,"o":"m 617 0 l 386 396 l 233 396 l 233 0 l 107 0 l 107 968 l 419 968 q 605 931 529 968 q 718 829 681 893 q 756 683 756 765 q 698 507 756 583 q 525 406 640 431 l 768 0 l 617 0 m 233 497 l 419 497 q 574 548 522 497 q 625 683 625 599 q 574 817 625 769 q 419 864 524 864 l 233 864 l 233 497 z "},"S":{"ha":815,"x_min":79,"x_max":736,"o":"m 414 -10 q 242 24 318 -10 q 124 119 167 58 q 79 258 81 179 l 214 258 q 270 144 221 190 q 414 97 319 97 q 556 142 504 97 q 608 258 608 188 q 578 349 608 314 q 501 401 547 383 q 378 440 456 419 q 224 490 282 465 q 126 569 167 515 q 85 713 85 622 q 125 853 85 792 q 238 947 165 914 q 406 981 311 981 q 628 913 542 981 q 726 732 715 844 l 588 732 q 529 830 581 788 q 393 872 478 872 q 264 831 314 872 q 214 717 214 790 q 244 631 214 664 q 317 580 274 597 q 440 540 361 563 q 594 488 536 514 q 694 409 653 463 q 736 264 736 356 q 699 131 736 193 q 588 29 661 68 q 414 -10 514 -10 z "},"T":{"ha":751,"x_min":47,"x_max":703,"o":"m 703 968 l 703 865 l 439 865 l 439 0 l 313 0 l 313 865 l 47 865 l 47 968 l 703 968 z "},"U":{"ha":938,"x_min":104,"x_max":833,"o":"m 231 968 l 231 356 q 294 164 231 226 q 469 101 357 101 q 644 164 581 101 q 707 356 707 226 l 707 968 l 833 968 l 833 357 q 785 153 833 236 q 653 31 736 71 q 468 -10 571 -10 q 283 31 365 -10 q 152 153 200 71 q 104 357 104 236 l 104 968 l 231 968 z "},"V":{"ha":939,"x_min":31,"x_max":907,"o":"m 907 968 l 542 0 l 396 0 l 31 968 l 165 968 l 469 133 l 774 968 l 907 968 z "},"W":{"ha":1356,"x_min":32,"x_max":1324,"o":"m 1324 968 l 1043 0 l 901 0 l 676 779 l 443 0 l 303 -1 l 32 968 l 167 968 l 378 147 l 611 968 l 753 968 l 975 150 l 1188 968 l 1324 968 z "},"X":{"ha":863,"x_min":63,"x_max":801,"o":"m 503 483 l 800 0 l 657 0 l 425 378 l 204 0 l 64 0 l 360 483 l 63 968 l 204 968 l 438 589 l 660 968 l 801 968 l 503 483 z "},"Y":{"ha":811,"x_min":26,"x_max":785,"o":"m 785 968 l 469 365 l 469 0 l 343 0 l 343 365 l 26 968 l 167 968 l 406 478 l 644 968 l 785 968 z "},"Z":{"ha":751,"x_min":64,"x_max":686,"o":"m 214 110 l 686 110 l 686 0 l 64 0 l 64 100 l 533 858 l 69 858 l 69 968 l 683 968 l 683 868 l 214 110 z "},"[":{"ha":588,"x_min":185,"x_max":435,"o":"m 435 1297 l 435 1193 l 303 1193 l 303 -153 l 435 -153 l 435 -258 l 185 -258 l 185 1297 l 435 1297 z "},"\\":{"ha":914,"x_min":182,"x_max":742,"o":"m 617 -236 l 182 1308 l 307 1308 l 742 -236 l 617 -236 z "},"]":{"ha":588,"x_min":153,"x_max":403,"o":"m 403 -258 l 153 -258 l 153 -153 l 285 -153 l 285 1193 l 153 1193 l 153 1297 l 403 1297 l 403 -258 z "},"^":{"ha":874,"x_min":51,"x_max":824,"o":"m 182 235 l 51 235 l 378 963 l 496 963 l 824 235 l 692 235 l 439 807 l 182 235 z "},"_":{"ha":1018,"x_min":146,"x_max":885,"o":"m 885 -53 l 885 -169 l 146 -169 l 146 -53 l 885 -53 z "},"`":{"ha":357,"x_min":24,"x_max":319,"o":"m 319 913 l 319 818 l 24 976 l 24 1086 l 319 913 z "},"a":{"ha":939,"x_min":60,"x_max":832,"o":"m 60 383 q 107 588 60 500 q 237 725 154 676 q 421 774 319 774 q 594 731 521 774 q 704 622 668 688 l 704 761 l 832 761 l 832 0 l 704 0 l 704 142 q 592 31 667 75 q 419 -12 518 -12 q 236 38 318 -12 q 107 178 154 88 q 60 383 60 268 m 704 382 q 669 532 704 468 q 576 630 635 596 q 446 664 517 664 q 317 631 375 664 q 224 533 258 597 q 189 383 189 469 q 224 231 189 296 q 317 133 258 167 q 446 99 375 99 q 576 133 517 99 q 669 231 635 167 q 704 382 704 296 z "},"b":{"ha":939,"x_min":107,"x_max":879,"o":"m 233 619 q 347 731 272 688 q 518 774 422 774 q 703 725 621 774 q 832 588 785 676 q 879 383 879 500 q 832 178 879 268 q 702 38 785 88 q 518 -12 619 -12 q 345 31 419 -12 q 233 140 271 74 l 233 0 l 107 0 l 107 1028 l 233 1028 l 233 619 m 750 383 q 715 533 750 469 q 622 631 681 597 q 492 664 563 664 q 363 630 422 664 q 269 531 304 596 q 233 382 233 467 q 269 231 233 296 q 363 133 304 167 q 492 99 422 99 q 622 133 563 99 q 715 231 681 167 q 750 383 750 296 z "},"c":{"ha":843,"x_min":60,"x_max":782,"o":"m 60 382 q 107 588 60 500 q 238 725 154 676 q 431 774 322 774 q 662 706 571 774 q 782 517 753 638 l 646 517 q 570 626 626 586 q 431 667 514 667 q 256 592 322 667 q 189 382 189 518 q 256 169 189 244 q 431 94 322 94 q 569 133 514 94 q 646 244 625 172 l 782 244 q 660 58 751 128 q 431 -12 568 -12 q 238 36 322 -12 q 107 174 154 85 q 60 382 60 263 z "},"d":{"ha":939,"x_min":60,"x_max":832,"o":"m 60 383 q 107 588 60 500 q 237 725 154 676 q 422 774 319 774 q 588 733 511 774 q 704 625 664 692 l 704 1028 l 832 1028 l 832 0 l 704 0 l 704 143 q 593 31 667 75 q 421 -12 519 -12 q 237 38 319 -12 q 107 178 154 88 q 60 383 60 268 m 704 382 q 669 532 704 468 q 576 630 635 596 q 446 664 517 664 q 317 631 375 664 q 224 533 258 597 q 189 383 189 469 q 224 231 189 296 q 317 133 258 167 q 446 99 375 99 q 576 133 517 99 q 669 231 635 167 q 704 382 704 296 z "},"e":{"ha":861,"x_min":60,"x_max":801,"o":"m 801 410 q 797 333 801 374 l 189 333 q 266 158 196 221 q 436 94 336 94 q 573 133 518 94 q 650 235 628 171 l 786 235 q 664 56 756 125 q 436 -12 572 -12 q 242 36 328 -12 q 108 174 157 85 q 60 382 60 264 q 107 589 60 500 q 240 726 154 678 q 436 774 325 774 q 628 726 544 774 q 756 597 711 679 q 801 410 801 514 m 671 436 q 639 560 671 508 q 552 640 607 613 q 431 667 497 667 q 267 606 335 667 q 190 436 200 544 l 671 436 z "},"f":{"ha":457,"x_min":32,"x_max":417,"o":"m 417 657 l 257 657 l 257 0 l 131 0 l 131 657 l 32 657 l 32 761 l 131 761 l 131 815 q 197 1002 131 943 q 408 1061 263 1061 l 408 956 q 291 923 325 956 q 257 815 257 890 l 257 761 l 417 761 l 417 657 z "},"g":{"ha":939,"x_min":60,"x_max":832,"o":"m 421 774 q 594 731 519 774 q 704 622 668 688 l 704 761 l 832 761 l 832 -17 q 788 -202 832 -121 q 660 -329 743 -283 q 468 -375 578 -375 q 218 -304 318 -375 q 100 -111 118 -233 l 225 -111 q 311 -223 246 -181 q 468 -265 376 -265 q 638 -200 572 -265 q 704 -17 704 -135 l 704 143 q 593 32 667 76 q 421 -12 519 -12 q 237 38 319 -12 q 107 178 154 88 q 60 383 60 268 q 107 588 60 500 q 237 725 154 676 q 421 774 319 774 m 704 382 q 669 532 704 468 q 576 630 635 596 q 446 664 517 664 q 317 631 375 664 q 224 533 258 597 q 189 383 189 469 q 224 231 189 296 q 317 133 258 167 q 446 99 375 99 q 576 133 517 99 q 669 231 635 167 q 704 382 704 296 z "},"h":{"ha":889,"x_min":107,"x_max":789,"o":"m 485 775 q 640 738 571 775 q 749 628 710 701 q 789 449 789 554 l 789 0 l 664 0 l 664 431 q 607 605 664 544 q 451 665 550 665 q 292 603 351 665 q 233 421 233 540 l 233 0 l 107 0 l 107 1028 l 233 1028 l 233 653 q 337 743 271 711 q 485 775 403 775 z "},"i":{"ha":342,"x_min":86,"x_max":256,"o":"m 172 885 q 111 910 136 885 q 86 971 86 935 q 111 1032 86 1007 q 172 1057 136 1057 q 231 1032 207 1057 q 256 971 256 1007 q 231 910 256 935 q 172 885 207 885 m 233 761 l 233 0 l 107 0 l 107 761 l 233 761 z "},"j":{"ha":344,"x_min":-37,"x_max":260,"o":"m 175 885 q 115 910 139 885 q 90 971 90 935 q 115 1032 90 1007 q 175 1057 139 1057 q 235 1032 211 1057 q 260 971 260 1007 q 235 910 260 935 q 175 885 211 885 m 238 -165 q 186 -314 238 -267 q 36 -361 135 -361 l -37 -361 l -37 -254 l 15 -254 q 90 -233 68 -254 q 111 -162 111 -212 l 111 761 l 238 761 l 238 -165 z "},"k":{"ha":715,"x_min":107,"x_max":704,"o":"m 532 0 l 233 336 l 233 0 l 107 0 l 107 1028 l 233 1028 l 233 424 l 526 761 l 703 761 l 344 382 l 704 0 l 532 0 z "},"l":{"ha":342,"x_min":107,"x_max":233,"o":"m 233 1028 l 233 0 l 107 0 l 107 1028 l 233 1028 z "},"m":{"ha":1431,"x_min":107,"x_max":1331,"o":"m 1022 775 q 1181 738 1111 775 q 1290 628 1250 701 q 1331 449 1331 554 l 1331 0 l 1206 0 l 1206 431 q 1149 605 1206 544 q 997 665 1093 665 q 840 602 899 665 q 782 419 782 539 l 782 0 l 657 0 l 657 431 q 601 605 657 544 q 449 665 544 665 q 292 602 350 665 q 233 419 233 539 l 233 0 l 107 0 l 107 761 l 233 761 l 233 651 q 334 743 271 711 q 474 775 397 775 q 643 732 569 775 q 753 606 717 689 q 858 731 785 686 q 1022 775 932 775 z "},"n":{"ha":889,"x_min":107,"x_max":789,"o":"m 478 775 q 703 691 617 775 q 789 449 789 607 l 789 0 l 664 0 l 664 431 q 607 605 664 544 q 451 665 550 665 q 292 603 351 665 q 233 421 233 540 l 233 0 l 107 0 l 107 761 l 233 761 l 233 653 q 335 743 271 711 q 478 775 400 775 z "},"o":{"ha":889,"x_min":60,"x_max":829,"o":"m 439 -12 q 245 36 332 -12 q 109 174 158 85 q 60 382 60 264 q 110 588 60 499 q 249 726 161 678 q 444 774 336 774 q 640 726 553 774 q 778 589 728 678 q 829 382 829 500 q 777 174 829 264 q 636 36 725 85 q 439 -12 547 -12 m 439 99 q 567 131 507 99 q 663 226 626 163 q 700 382 700 290 q 664 538 700 474 q 569 633 628 601 q 443 664 511 664 q 316 633 374 664 q 224 538 258 601 q 189 382 189 474 q 223 225 189 289 q 314 130 257 161 q 439 99 371 99 z "},"p":{"ha":939,"x_min":107,"x_max":879,"o":"m 233 621 q 345 730 271 686 q 518 774 419 774 q 702 725 619 774 q 832 588 785 676 q 879 383 879 500 q 832 178 879 268 q 702 38 785 88 q 518 -12 619 -12 q 347 31 421 -12 q 233 140 272 75 l 233 -361 l 107 -361 l 107 761 l 233 761 l 233 621 m 750 383 q 715 533 750 469 q 622 631 681 597 q 492 664 563 664 q 363 630 422 664 q 269 531 304 596 q 233 382 233 467 q 269 231 233 296 q 363 133 304 167 q 492 99 422 99 q 622 133 563 99 q 715 231 681 167 q 750 383 750 296 z "},"q":{"ha":939,"x_min":60,"x_max":832,"o":"m 60 383 q 107 588 60 500 q 237 725 154 676 q 422 774 319 774 q 595 730 521 774 q 704 622 669 686 l 704 761 l 832 761 l 832 -361 l 704 -361 l 704 140 q 593 32 668 76 q 418 -12 518 -12 q 236 38 318 -12 q 107 178 154 88 q 60 383 60 268 m 704 382 q 669 532 704 468 q 576 630 635 596 q 446 664 517 664 q 317 631 375 664 q 224 533 258 597 q 189 383 189 469 q 224 231 189 296 q 317 133 258 167 q 446 99 375 99 q 576 133 517 99 q 669 231 635 167 q 704 382 704 296 z "},"r":{"ha":518,"x_min":107,"x_max":479,"o":"m 233 638 q 328 739 267 703 q 479 775 390 775 l 479 644 l 446 644 q 233 414 233 644 l 233 0 l 107 0 l 107 761 l 233 761 l 233 638 z "},"s":{"ha":725,"x_min":65,"x_max":654,"o":"m 376 -12 q 219 17 289 -12 q 110 101 150 47 q 65 224 69 154 l 196 224 q 249 131 201 167 q 375 94 297 94 q 489 126 447 94 q 531 207 531 158 q 486 281 531 257 q 349 329 442 306 q 210 374 264 351 q 119 442 157 397 q 81 561 81 488 q 115 668 81 619 q 214 745 150 717 q 360 774 278 774 q 564 710 486 774 q 647 535 642 646 l 521 535 q 473 631 517 594 q 356 667 429 667 q 247 638 288 667 q 207 561 207 608 q 231 499 207 524 q 292 460 256 475 q 394 428 329 446 q 528 384 476 406 q 616 319 579 363 q 654 207 653 276 q 619 94 654 144 q 522 16 585 44 q 376 -12 458 -12 z "},"t":{"ha":506,"x_min":36,"x_max":460,"o":"m 261 657 l 261 208 q 285 130 261 153 q 367 107 308 107 l 460 107 l 460 0 l 346 0 q 188 49 240 0 q 135 208 135 97 l 135 657 l 36 657 l 36 761 l 135 761 l 135 953 l 261 953 l 261 761 l 460 761 l 460 657 l 261 657 z "},"u":{"ha":889,"x_min":100,"x_max":782,"o":"m 782 761 l 782 0 l 656 0 l 656 113 q 555 22 619 54 q 413 -11 490 -11 q 253 26 324 -11 q 141 136 182 63 q 100 315 100 210 l 100 761 l 225 761 l 225 332 q 282 159 225 219 q 438 99 339 99 q 597 161 539 99 q 656 343 656 224 l 656 761 l 782 761 z "},"v":{"ha":779,"x_min":17,"x_max":761,"o":"m 390 117 l 626 761 l 761 761 l 463 0 l 315 0 l 17 761 l 153 761 l 390 117 z "},"w":{"ha":1139,"x_min":17,"x_max":1121,"o":"m 1121 761 l 883 0 l 753 0 l 569 604 l 386 0 l 256 0 l 17 761 l 146 761 l 321 122 l 510 761 l 639 761 l 824 121 l 996 761 l 1121 761 z "},"x":{"ha":665,"x_min":18,"x_max":647,"o":"m 504 0 l 324 283 l 150 0 l 18 0 l 264 378 l 18 761 l 161 761 l 342 479 l 514 761 l 646 761 l 401 385 l 647 0 l 504 0 z "},"y":{"ha":782,"x_min":17,"x_max":763,"o":"m 763 761 l 304 -358 l 174 -358 l 324 8 l 17 761 l 157 761 l 396 144 l 632 761 l 763 761 z "},"z":{"ha":632,"x_min":57,"x_max":575,"o":"m 201 104 l 575 104 l 575 0 l 57 0 l 57 104 l 426 658 l 60 658 l 60 761 l 572 761 l 572 658 l 201 104 z "},"{":{"ha":642,"x_min":146,"x_max":547,"o":"m 146 568 q 288 714 288 594 q 274 894 288 767 q 260 1092 260 1031 q 316 1244 260 1192 q 467 1297 372 1297 l 547 1297 l 547 1188 l 490 1188 q 410 1163 436 1188 q 383 1083 383 1139 q 389 984 383 1043 q 396 904 394 925 q 410 710 410 771 q 373 587 410 636 q 260 521 336 538 l 260 518 q 373 451 336 501 q 410 328 410 401 q 396 133 410 267 q 389 53 394 113 q 383 -46 383 -6 q 410 -126 383 -101 q 490 -150 436 -150 l 547 -150 l 547 -260 l 467 -260 q 316 -207 372 -260 q 260 -54 260 -154 q 274 143 260 7 q 288 324 288 271 q 146 469 288 443 l 146 568 z "},"|":{"ha":404,"x_min":139,"x_max":265,"o":"m 265 -147 l 139 -147 l 139 1104 l 265 1104 l 265 -147 z "},"}":{"ha":642,"x_min":94,"x_max":496,"o":"m 496 469 q 354 324 354 443 q 368 143 354 271 q 382 -54 382 7 q 326 -207 382 -154 q 175 -260 269 -260 l 94 -260 l 94 -150 l 151 -150 q 232 -126 206 -150 q 258 -46 258 -101 q 253 53 258 -6 q 246 133 247 113 q 232 328 232 267 q 269 451 232 401 q 382 518 306 501 l 382 521 q 269 587 306 538 q 232 710 232 636 q 246 904 232 771 q 253 984 247 925 q 258 1083 258 1043 q 232 1163 258 1139 q 151 1188 206 1188 l 94 1188 l 94 1297 l 175 1297 q 326 1244 269 1297 q 382 1092 382 1192 q 368 894 382 1031 q 354 714 354 767 q 496 568 354 594 l 496 469 z "},"~":{"ha":721,"x_min":51,"x_max":669,"o":"m 51 344 q 247 547 88 547 q 315 534 285 547 q 382 496 344 521 q 437 465 415 475 q 482 456 458 456 q 544 480 518 456 q 575 546 569 504 l 669 546 q 472 343 635 343 q 408 356 436 343 q 340 393 381 368 q 286 424 307 414 q 239 435 265 435 q 176 410 203 435 q 144 344 150 386 l 51 344 z "}," ":{"ha":371,"x_min":0,"x_max":0,"o":""},"¡":{"ha":414,"x_min":122,"x_max":292,"o":"m 208 783 q 267 758 243 783 q 292 697 292 733 q 267 636 292 661 q 208 611 243 611 q 147 636 172 611 q 122 697 122 661 q 147 758 122 733 q 208 783 172 783 m 150 501 l 256 501 l 271 -193 l 135 -193 l 150 501 z "},"¢":{"ha":924,"x_min":90,"x_max":772,"o":"m 447 111 q 585 149 532 111 q 654 256 639 188 l 772 256 q 681 85 760 153 q 482 7 603 17 l 482 -124 l 407 -124 l 407 7 q 174 117 257 19 q 90 364 90 215 q 174 610 90 513 q 407 721 257 708 l 407 849 l 482 849 l 482 721 q 681 643 603 711 q 772 474 760 575 l 654 474 q 585 579 638 540 q 447 618 532 618 q 276 551 342 618 q 210 364 210 483 q 276 178 210 244 q 447 111 342 111 z "},"£":{"ha":861,"x_min":61,"x_max":757,"o":"m 757 103 l 757 -3 l 138 -3 l 115 69 q 202 194 174 135 q 231 342 231 254 q 218 428 231 378 l 61 428 l 61 517 l 188 517 q 160 609 169 565 q 150 706 150 653 q 188 860 150 794 q 295 963 226 926 q 453 999 364 999 q 671 917 594 999 q 753 710 747 835 l 636 710 q 587 842 633 792 q 453 892 540 892 q 322 844 372 892 q 271 700 271 797 q 281 613 271 654 q 310 517 290 572 l 579 517 l 579 428 l 338 428 q 350 342 350 378 q 251 103 350 210 l 757 103 z "},"¤":{"ha":746,"x_min":88,"x_max":657,"o":"m 619 524 q 575 376 619 440 l 657 294 l 600 236 l 517 319 q 371 278 451 278 q 228 318 288 278 l 146 236 l 88 294 l 169 376 q 128 524 128 440 q 172 672 128 610 l 88 756 l 146 814 l 231 729 q 372 769 290 769 q 515 729 454 769 l 600 814 l 657 756 l 574 672 q 619 524 619 611 m 371 360 q 471 403 429 360 q 513 524 513 447 q 472 644 513 600 q 371 689 431 689 q 273 645 313 689 q 233 524 233 601 q 272 403 233 446 q 371 360 311 360 z "},"¥":{"ha":826,"x_min":35,"x_max":793,"o":"m 565 532 l 756 532 l 756 440 l 515 438 l 478 365 l 478 311 l 756 311 l 756 218 l 478 218 l 478 0 l 351 0 l 351 218 l 74 218 l 74 311 l 351 311 l 351 365 l 313 438 l 74 440 l 74 532 l 264 532 l 35 968 l 176 968 l 414 479 l 651 968 l 793 968 l 565 532 z "},"¦":{"ha":404,"x_min":139,"x_max":265,"o":"m 139 1104 l 265 1104 l 265 579 l 139 579 l 139 1104 m 265 -147 l 139 -147 l 139 379 l 265 379 l 265 -147 z "},"§":{"ha":799,"x_min":64,"x_max":735,"o":"m 543 132 q 653 56 614 100 q 693 -54 693 11 q 659 -164 693 -114 q 560 -243 625 -214 q 410 -272 496 -272 q 201 -212 282 -272 q 117 -43 119 -151 l 243 -43 q 290 -144 249 -106 q 410 -183 331 -183 q 526 -153 485 -183 q 567 -64 567 -124 q 547 -3 567 -29 q 479 45 526 22 q 343 97 432 68 q 133 203 201 144 q 64 358 64 261 q 113 497 64 436 q 256 583 163 557 q 145 662 185 618 q 106 771 106 706 q 140 881 106 831 q 238 960 174 931 q 390 989 303 989 q 599 928 518 989 q 682 758 679 867 l 556 758 q 510 859 551 819 q 390 899 469 899 q 274 869 315 899 q 232 782 232 839 q 252 720 232 746 q 319 671 272 694 q 456 618 367 647 q 665 514 596 572 q 735 358 735 456 q 686 221 735 281 q 543 132 638 161 m 193 358 q 250 244 193 290 q 403 199 307 199 q 551 245 496 199 q 606 358 606 292 q 549 472 606 428 q 397 517 492 517 q 248 471 303 517 q 193 358 193 425 z "},"¨":{"ha":436,"x_min":32,"x_max":404,"o":"m 106 864 q 53 885 75 864 q 32 936 32 906 q 53 988 32 967 q 106 1010 75 1010 q 156 988 135 1010 q 178 936 178 967 q 156 885 178 906 q 106 864 135 864 m 331 864 q 279 885 300 864 q 258 936 258 906 q 279 988 258 967 q 331 1010 300 1010 q 383 988 361 1010 q 404 936 404 967 q 383 885 404 906 q 331 864 361 864 z "},"©":{"ha":1100,"x_min":68,"x_max":1032,"o":"m 551 978 q 801 915 692 978 q 972 740 911 851 q 1032 485 1032 628 q 972 230 1032 342 q 801 55 911 118 q 551 -8 692 -8 q 300 55 410 -8 q 129 230 190 118 q 68 485 68 342 q 129 740 68 628 q 300 915 190 851 q 551 978 410 978 m 551 922 q 326 867 422 922 q 179 714 231 813 q 128 485 128 615 q 179 256 128 356 q 326 101 231 157 q 551 46 422 46 q 774 101 679 46 q 921 256 869 157 q 972 485 972 356 q 921 714 972 615 q 774 867 869 813 q 551 922 679 922 m 549 807 q 397 768 465 807 q 288 656 328 729 q 247 486 247 583 q 288 316 247 389 q 397 203 328 243 q 549 164 465 164 q 729 220 653 164 q 833 371 806 276 l 717 371 q 549 256 675 256 q 413 315 465 256 q 360 485 360 375 q 413 656 360 596 q 549 715 465 715 q 654 685 610 715 q 717 600 699 656 l 833 600 q 731 753 807 699 q 549 807 654 807 z "},"ª":{"ha":625,"x_min":46,"x_max":560,"o":"m 46 736 q 76 865 46 808 q 160 953 107 922 q 278 985 213 985 q 390 959 343 985 q 460 892 436 933 l 460 976 l 560 976 l 560 490 l 460 490 l 460 574 q 391 508 438 533 q 281 482 344 482 q 160 515 214 482 q 76 605 107 547 q 46 736 46 663 m 150 735 q 194 608 150 656 q 304 561 239 561 q 415 608 371 561 q 460 733 460 654 q 415 859 460 813 q 304 906 371 906 q 194 860 239 906 q 150 735 150 814 z "},"«":{"ha":640,"x_min":63,"x_max":571,"o":"m 196 167 l 63 410 l 196 653 l 319 653 l 182 410 l 319 167 l 196 167 m 446 167 l 314 410 l 446 653 l 571 653 l 433 410 l 571 167 l 446 167 z "},"¬":{"ha":903,"x_min":57,"x_max":842,"o":"m 842 600 l 842 306 l 715 306 l 715 500 l 57 500 l 57 600 l 842 600 z "},"­":{"ha":765,"x_min":81,"x_max":635,"o":"m 635 563 l 635 456 l 81 456 l 81 563 l 635 563 z "},"®":{"ha":707,"x_min":72,"x_max":635,"o":"m 354 981 q 499 944 435 981 q 599 842 563 907 q 635 697 635 778 q 599 551 635 617 q 499 449 563 486 q 354 413 435 413 q 208 449 272 413 q 108 551 144 486 q 72 697 72 617 q 108 842 72 778 q 208 944 144 907 q 354 981 272 981 m 354 468 q 516 532 454 468 q 578 697 578 596 q 516 863 578 799 q 354 926 454 926 q 192 863 253 926 q 132 697 132 799 q 192 532 132 596 q 354 468 253 468 m 479 756 q 462 699 479 722 q 414 667 444 676 l 492 551 l 404 550 l 338 661 l 314 661 l 314 550 l 242 550 l 242 849 l 375 849 q 451 824 422 849 q 479 756 479 799 m 314 721 l 371 721 q 397 729 386 721 q 407 753 407 738 q 397 776 407 768 q 371 783 386 783 l 314 783 l 314 721 z "},"¯":{"ha":538,"x_min":24,"x_max":513,"o":"m 513 985 l 513 890 l 24 890 l 24 985 l 513 985 z "},"°":{"ha":569,"x_min":39,"x_max":529,"o":"m 39 728 q 108 904 39 838 q 285 971 176 971 q 461 904 393 971 q 529 728 529 838 q 497 599 529 654 q 409 513 465 543 q 282 482 353 482 q 106 549 174 482 q 39 728 39 617 m 428 728 q 387 852 428 807 q 283 897 346 897 q 181 852 222 897 q 140 728 140 807 q 180 602 140 646 q 282 558 219 558 q 386 603 344 558 q 428 728 428 647 z "},"±":{"ha":953,"x_min":122,"x_max":829,"o":"m 536 524 l 536 271 l 829 271 l 829 164 l 122 164 l 122 271 l 418 271 l 418 524 l 122 524 l 122 631 l 418 631 l 418 867 l 536 867 l 536 631 l 829 631 l 829 524 l 536 524 z "},"²":{"ha":458,"x_min":42,"x_max":401,"o":"m 401 571 l 401 489 l 44 489 l 44 561 l 196 683 q 266 755 242 721 q 290 829 290 789 q 270 888 290 867 q 218 908 250 908 q 166 890 185 908 q 143 838 147 871 l 42 838 q 92 944 44 903 q 221 986 139 986 q 348 942 300 986 q 396 833 396 897 q 365 740 396 781 q 267 649 335 699 l 157 571 l 401 571 z "},"³":{"ha":461,"x_min":32,"x_max":414,"o":"m 38 849 q 95 948 44 910 q 226 986 146 986 q 357 944 304 986 q 410 843 410 903 q 386 774 410 801 q 324 735 363 746 l 324 732 q 388 688 363 718 q 414 617 414 658 q 360 521 414 560 q 222 482 307 482 q 88 521 139 482 q 32 631 38 560 l 132 631 q 160 575 138 593 q 221 557 183 557 q 283 576 260 557 q 306 629 306 596 q 281 682 306 663 q 218 701 257 701 l 158 701 l 158 768 l 215 768 q 279 786 256 768 q 303 838 303 804 q 281 890 303 869 q 219 910 258 910 q 162 893 183 910 q 133 849 140 876 l 38 849 z "},"´":{"ha":343,"x_min":24,"x_max":319,"o":"m 319 976 l 24 818 l 24 913 l 319 1086 l 319 976 z "},"µ":{"ha":896,"x_min":107,"x_max":789,"o":"m 789 761 l 789 0 l 663 0 l 663 139 q 560 26 626 64 q 410 -12 494 -12 q 308 8 354 -12 q 232 75 261 29 l 232 -361 l 107 -361 l 107 761 l 232 761 l 232 344 q 291 160 232 224 q 449 96 350 96 q 605 158 547 96 q 663 340 663 221 l 663 761 l 789 761 z "},"¶":{"ha":828,"x_min":43,"x_max":719,"o":"m 719 0 l 607 0 l 607 863 l 500 863 l 500 0 l 388 0 l 388 397 l 372 397 q 126 475 210 397 q 43 678 43 553 q 127 882 43 803 q 372 961 211 961 l 719 961 l 719 0 z "},"·":{"ha":294,"x_min":65,"x_max":235,"o":"m 151 388 q 90 413 115 388 q 65 474 65 438 q 90 535 65 510 q 151 560 115 560 q 210 535 186 560 q 235 474 235 510 q 210 413 235 438 q 151 388 186 388 z "},"¸":{"ha":378,"x_min":24,"x_max":353,"o":"m 174 -81 q 304 -115 256 -79 q 353 -218 353 -151 q 306 -322 353 -283 q 183 -361 258 -361 l 24 -361 l 24 -279 l 158 -279 q 226 -265 204 -279 q 247 -218 247 -251 q 226 -172 247 -186 q 158 -158 204 -158 l 89 -158 l 89 10 l 174 10 l 174 -81 z "},"¹":{"ha":272,"x_min":35,"x_max":210,"o":"m 35 900 l 35 978 l 210 978 l 210 489 l 110 489 l 110 900 l 35 900 z "},"º":{"ha":606,"x_min":46,"x_max":560,"o":"m 46 733 q 79 865 46 808 q 172 953 113 922 q 303 985 231 985 q 435 953 376 985 q 526 865 493 922 q 560 733 560 808 q 526 602 560 660 q 433 513 492 544 q 301 481 374 481 q 170 513 228 481 q 79 601 113 544 q 46 733 46 658 m 457 732 q 412 860 457 814 q 303 906 367 906 q 194 860 238 906 q 150 732 150 814 q 193 606 150 651 q 301 561 236 561 q 411 607 365 561 q 457 732 457 653 z "},"»":{"ha":640,"x_min":69,"x_max":578,"o":"m 207 410 l 69 653 l 193 653 l 326 410 l 193 167 l 69 167 l 207 410 m 457 410 l 321 653 l 444 653 l 578 410 l 444 167 l 321 167 l 457 410 z "},"¼":{"ha":889,"x_min":53,"x_max":839,"o":"m 53 900 l 53 978 l 228 978 l 228 489 l 128 489 l 128 900 l 53 900 m 725 969 l 206 0 l 86 0 l 606 969 l 725 969 m 839 96 l 772 96 l 772 0 l 672 0 l 672 96 l 418 96 l 418 154 l 638 490 l 772 490 l 772 161 l 839 161 l 839 96 m 675 404 l 521 161 l 675 161 l 675 404 z "},"½":{"ha":938,"x_min":50,"x_max":871,"o":"m 125 900 l 50 900 l 50 978 l 225 978 l 225 489 l 125 489 l 125 900 m 707 969 l 200 0 l 79 0 l 588 969 l 707 969 m 871 81 l 871 -1 l 514 -1 l 514 71 l 665 193 q 735 265 711 231 q 760 339 760 299 q 740 397 760 376 q 688 418 719 418 q 635 399 654 418 q 613 347 617 381 l 511 347 q 561 454 514 413 q 690 496 608 496 q 817 451 769 496 q 865 343 865 407 q 835 249 865 290 q 736 158 804 208 l 626 81 l 871 81 z "},"¾":{"ha":985,"x_min":49,"x_max":947,"o":"m 54 849 q 112 948 61 910 q 243 986 163 986 q 374 944 321 986 q 426 843 426 903 q 403 774 426 801 q 340 735 379 746 l 340 732 q 405 688 379 718 q 431 617 431 658 q 377 521 431 560 q 239 482 324 482 q 105 521 156 482 q 49 631 54 560 l 149 631 q 177 575 154 593 q 238 557 200 557 q 299 576 276 557 q 322 629 322 596 q 298 682 322 663 q 235 701 274 701 l 175 701 l 175 768 l 232 768 q 296 786 272 768 q 319 838 319 804 q 297 890 319 869 q 236 910 275 910 q 178 893 200 910 q 150 849 157 876 l 54 849 m 857 969 l 317 0 l 199 0 l 738 969 l 857 969 m 947 96 l 882 96 l 882 0 l 782 0 l 782 96 l 528 96 l 528 154 l 747 490 l 882 490 l 882 161 l 947 161 l 947 96 m 783 404 l 629 161 l 783 161 l 783 404 z "},"¿":{"ha":721,"x_min":64,"x_max":674,"o":"m 458 772 q 519 747 494 772 q 544 686 544 722 q 519 625 544 650 q 458 600 494 600 q 399 625 424 600 q 375 686 375 650 q 399 747 375 722 q 458 772 424 772 m 371 -217 q 149 -139 233 -217 q 64 69 64 -61 q 154 285 64 215 q 399 356 244 356 l 403 488 l 513 488 l 518 268 l 478 268 q 263 226 340 268 q 185 69 185 185 q 235 -62 185 -14 q 369 -111 285 -111 q 505 -65 456 -111 q 554 63 554 -18 l 674 63 q 636 -84 674 -21 q 530 -182 599 -147 q 371 -217 461 -217 z "},"À":{"ha":936,"x_min":46,"x_max":890,"o":"m 679 215 l 257 215 l 179 0 l 46 0 l 396 963 l 542 963 l 890 0 l 757 0 l 679 215 m 643 318 l 468 807 l 293 318 l 643 318 m 604 1114 l 604 1019 l 308 1178 l 308 1288 l 604 1114 z "},"Á":{"ha":936,"x_min":46,"x_max":890,"o":"m 679 215 l 257 215 l 179 0 l 46 0 l 396 963 l 542 963 l 890 0 l 757 0 l 679 215 m 643 318 l 468 807 l 293 318 l 643 318 m 604 1178 l 308 1019 l 308 1114 l 604 1288 l 604 1178 z "},"Â":{"ha":936,"x_min":46,"x_max":890,"o":"m 679 215 l 257 215 l 179 0 l 46 0 l 396 963 l 542 963 l 890 0 l 757 0 l 679 215 m 643 318 l 468 807 l 293 318 l 643 318 m 469 1149 l 276 1031 l 276 1131 l 469 1246 l 661 1131 l 661 1031 l 469 1149 z "},"Ã":{"ha":936,"x_min":46,"x_max":890,"o":"m 679 215 l 257 215 l 179 0 l 46 0 l 396 963 l 542 963 l 890 0 l 757 0 l 679 215 m 643 318 l 468 807 l 293 318 l 643 318 m 264 1044 q 310 1153 274 1115 q 403 1190 347 1190 q 448 1181 429 1190 q 493 1156 467 1172 q 528 1134 513 1142 q 561 1126 543 1126 q 601 1142 585 1126 q 622 1186 618 1157 l 694 1186 q 649 1079 686 1117 q 556 1042 611 1042 q 509 1051 529 1042 q 464 1078 489 1060 q 428 1099 442 1092 q 397 1106 415 1106 q 358 1090 374 1106 q 338 1044 342 1075 l 264 1044 z "},"Ä":{"ha":936,"x_min":46,"x_max":890,"o":"m 679 215 l 257 215 l 179 0 l 46 0 l 396 963 l 542 963 l 890 0 l 757 0 l 679 215 m 643 318 l 468 807 l 293 318 l 643 318 m 357 1065 q 305 1086 326 1065 q 283 1138 283 1107 q 305 1190 283 1168 q 357 1211 326 1211 q 408 1190 386 1211 q 429 1138 429 1168 q 408 1086 429 1107 q 357 1065 386 1065 m 582 1065 q 531 1086 551 1065 q 510 1138 510 1107 q 531 1190 510 1168 q 582 1211 551 1211 q 634 1190 613 1211 q 656 1138 656 1168 q 634 1086 656 1107 q 582 1065 613 1065 z "},"Å":{"ha":936,"x_min":46,"x_max":890,"o":"m 679 215 l 257 215 l 179 0 l 46 0 l 396 963 l 542 963 l 890 0 l 757 0 l 679 215 m 643 318 l 468 807 l 293 318 l 643 318 m 618 1190 q 576 1084 618 1124 q 469 1044 533 1044 q 364 1085 407 1044 q 321 1190 321 1125 q 364 1296 321 1256 q 469 1336 407 1336 q 576 1297 533 1336 q 618 1190 618 1257 m 544 1192 q 523 1248 544 1226 q 469 1269 501 1269 q 416 1248 438 1269 q 394 1192 394 1226 q 416 1135 394 1157 q 469 1113 438 1113 q 523 1135 501 1113 q 544 1192 544 1157 z "},"Æ":{"ha":1250,"x_min":17,"x_max":1164,"o":"m 772 869 l 772 538 l 1122 538 l 1122 440 l 772 440 l 772 100 l 1164 100 l 1164 0 l 646 0 l 646 215 l 275 215 l 154 0 l 17 0 l 565 969 l 1164 969 l 1164 869 l 772 869 m 646 314 l 646 874 l 331 314 l 646 314 z "},"Ç":{"ha":1072,"x_min":60,"x_max":992,"o":"m 543 101 q 724 148 649 101 q 840 282 800 194 l 992 282 q 837 79 942 154 q 592 -7 732 4 l 592 -81 q 722 -115 674 -79 q 771 -218 771 -151 q 724 -322 771 -283 q 601 -361 676 -361 l 442 -361 l 442 -279 l 576 -279 q 644 -265 622 -279 q 665 -218 665 -251 q 644 -172 665 -186 q 576 -158 622 -158 l 507 -158 l 507 -7 q 278 66 381 1 q 118 240 176 131 q 60 485 60 349 q 124 740 60 626 q 298 917 188 853 q 543 981 408 981 q 819 904 701 981 q 992 688 938 828 l 840 688 q 724 822 800 775 q 543 869 649 869 q 361 822 442 869 q 235 688 281 775 q 189 485 189 601 q 235 283 189 369 q 361 149 281 196 q 543 101 442 101 z "},"È":{"ha":713,"x_min":107,"x_max":628,"o":"m 233 865 l 233 542 l 586 542 l 586 438 l 233 438 l 233 104 l 628 104 l 628 0 l 107 0 l 107 969 l 628 969 l 628 865 l 233 865 m 489 1114 l 489 1019 l 193 1178 l 193 1288 l 489 1114 z "},"É":{"ha":713,"x_min":107,"x_max":628,"o":"m 233 865 l 233 542 l 586 542 l 586 438 l 233 438 l 233 104 l 628 104 l 628 0 l 107 0 l 107 969 l 628 969 l 628 865 l 233 865 m 489 1178 l 193 1019 l 193 1114 l 489 1288 l 489 1178 z "},"Ê":{"ha":713,"x_min":107,"x_max":628,"o":"m 233 865 l 233 542 l 586 542 l 586 438 l 233 438 l 233 104 l 628 104 l 628 0 l 107 0 l 107 969 l 628 969 l 628 865 l 233 865 m 354 1149 l 161 1031 l 161 1131 l 354 1246 l 546 1131 l 546 1031 l 354 1149 z "},"Ë":{"ha":713,"x_min":107,"x_max":628,"o":"m 233 865 l 233 542 l 586 542 l 586 438 l 233 438 l 233 104 l 628 104 l 628 0 l 107 0 l 107 969 l 628 969 l 628 865 l 233 865 m 242 1065 q 190 1086 211 1065 q 168 1138 168 1107 q 190 1190 168 1168 q 242 1211 211 1211 q 292 1190 271 1211 q 314 1138 314 1168 q 292 1086 314 1107 q 242 1065 271 1065 m 467 1065 q 415 1086 436 1065 q 394 1138 394 1107 q 415 1190 394 1168 q 467 1211 436 1211 q 519 1190 497 1211 q 540 1138 540 1168 q 519 1086 540 1107 q 467 1065 497 1065 z "},"Ì":{"ha":342,"x_min":10,"x_max":306,"o":"m 233 968 l 233 0 l 107 0 l 107 968 l 233 968 m 306 1114 l 306 1019 l 10 1178 l 10 1288 l 306 1114 z "},"Í":{"ha":342,"x_min":10,"x_max":306,"o":"m 233 968 l 233 0 l 107 0 l 107 968 l 233 968 m 306 1178 l 10 1019 l 10 1114 l 306 1288 l 306 1178 z "},"Î":{"ha":342,"x_min":-22,"x_max":363,"o":"m 233 968 l 233 0 l 107 0 l 107 968 l 233 968 m 171 1149 l -22 1031 l -22 1131 l 171 1246 l 363 1131 l 363 1031 l 171 1149 z "},"Ï":{"ha":342,"x_min":-15,"x_max":357,"o":"m 233 968 l 233 0 l 107 0 l 107 968 l 233 968 m 58 1065 q 6 1086 28 1065 q -15 1138 -15 1107 q 6 1190 -15 1168 q 58 1211 28 1211 q 109 1190 88 1211 q 131 1138 131 1168 q 109 1086 131 1107 q 58 1065 88 1065 m 283 1065 q 232 1086 253 1065 q 211 1138 211 1107 q 232 1190 211 1168 q 283 1211 253 1211 q 335 1190 314 1211 q 357 1138 357 1168 q 335 1086 357 1107 q 283 1065 314 1065 z "},"Ð":{"ha":1007,"x_min":13,"x_max":947,"o":"m 435 968 q 708 909 592 968 q 885 740 824 850 q 947 482 947 631 q 885 224 947 333 q 708 58 824 115 q 435 0 592 0 l 133 0 l 133 424 l 13 424 l 13 540 l 133 540 l 133 968 l 435 968 m 435 97 q 719 199 621 97 q 818 482 818 301 q 719 764 818 663 q 435 865 621 865 l 260 865 l 260 540 l 526 540 l 526 424 l 260 424 l 260 97 l 435 97 z "},"Ñ":{"ha":976,"x_min":107,"x_max":868,"o":"m 868 0 l 742 0 l 233 771 l 233 0 l 107 0 l 107 969 l 233 969 l 742 200 l 742 969 l 868 969 l 868 0 m 285 1044 q 331 1153 294 1115 q 424 1190 368 1190 q 469 1181 450 1190 q 514 1156 488 1172 q 549 1134 533 1142 q 582 1126 564 1126 q 622 1142 606 1126 q 643 1186 639 1157 l 715 1186 q 669 1079 707 1117 q 576 1042 632 1042 q 530 1051 550 1042 q 485 1078 510 1060 q 449 1099 463 1092 q 418 1106 436 1106 q 378 1090 394 1106 q 358 1044 363 1075 l 285 1044 z "},"Ò":{"ha":1092,"x_min":60,"x_max":1032,"o":"m 546 -10 q 300 53 411 -10 q 124 230 189 117 q 60 485 60 343 q 124 740 60 626 q 300 916 189 853 q 546 979 411 979 q 793 916 682 979 q 968 740 904 853 q 1032 485 1032 628 q 968 229 1032 342 q 793 53 904 117 q 546 -10 682 -10 m 546 100 q 728 147 647 100 q 856 282 810 194 q 903 485 903 369 q 856 688 903 601 q 729 822 810 775 q 546 869 649 869 q 363 822 443 869 q 235 688 282 775 q 189 485 189 601 q 235 282 189 369 q 363 147 282 194 q 546 100 444 100 m 685 1114 l 685 1019 l 389 1178 l 389 1288 l 685 1114 z "},"Ó":{"ha":1092,"x_min":60,"x_max":1032,"o":"m 546 -10 q 300 53 411 -10 q 124 230 189 117 q 60 485 60 343 q 124 740 60 626 q 300 916 189 853 q 546 979 411 979 q 793 916 682 979 q 968 740 904 853 q 1032 485 1032 628 q 968 229 1032 342 q 793 53 904 117 q 546 -10 682 -10 m 546 100 q 728 147 647 100 q 856 282 810 194 q 903 485 903 369 q 856 688 903 601 q 729 822 810 775 q 546 869 649 869 q 363 822 443 869 q 235 688 282 775 q 189 485 189 601 q 235 282 189 369 q 363 147 282 194 q 546 100 444 100 m 685 1178 l 389 1019 l 389 1114 l 685 1288 l 685 1178 z "},"Ô":{"ha":1092,"x_min":60,"x_max":1032,"o":"m 546 -10 q 300 53 411 -10 q 124 230 189 117 q 60 485 60 343 q 124 740 60 626 q 300 916 189 853 q 546 979 411 979 q 793 916 682 979 q 968 740 904 853 q 1032 485 1032 628 q 968 229 1032 342 q 793 53 904 117 q 546 -10 682 -10 m 546 100 q 728 147 647 100 q 856 282 810 194 q 903 485 903 369 q 856 688 903 601 q 729 822 810 775 q 546 869 649 869 q 363 822 443 869 q 235 688 282 775 q 189 485 189 601 q 235 282 189 369 q 363 147 282 194 q 546 100 444 100 m 550 1149 l 357 1031 l 357 1131 l 550 1246 l 742 1131 l 742 1031 l 550 1149 z "},"Õ":{"ha":1092,"x_min":60,"x_max":1032,"o":"m 546 -10 q 300 53 411 -10 q 124 230 189 117 q 60 485 60 343 q 124 740 60 626 q 300 916 189 853 q 546 979 411 979 q 793 916 682 979 q 968 740 904 853 q 1032 485 1032 628 q 968 229 1032 342 q 793 53 904 117 q 546 -10 682 -10 m 546 100 q 728 147 647 100 q 856 282 810 194 q 903 485 903 369 q 856 688 903 601 q 729 822 810 775 q 546 869 649 869 q 363 822 443 869 q 235 688 282 775 q 189 485 189 601 q 235 282 189 369 q 363 147 282 194 q 546 100 444 100 m 346 1044 q 392 1153 356 1115 q 485 1190 429 1190 q 530 1181 511 1190 q 575 1156 549 1172 q 610 1134 594 1142 q 643 1126 625 1126 q 683 1142 667 1126 q 704 1186 700 1157 l 776 1186 q 731 1079 768 1117 q 638 1042 693 1042 q 591 1051 611 1042 q 546 1078 571 1060 q 510 1099 524 1092 q 479 1106 497 1106 q 440 1090 456 1106 q 419 1044 424 1075 l 346 1044 z "},"Ö":{"ha":1092,"x_min":60,"x_max":1032,"o":"m 546 -10 q 300 53 411 -10 q 124 230 189 117 q 60 485 60 343 q 124 740 60 626 q 300 916 189 853 q 546 979 411 979 q 793 916 682 979 q 968 740 904 853 q 1032 485 1032 628 q 968 229 1032 342 q 793 53 904 117 q 546 -10 682 -10 m 546 100 q 728 147 647 100 q 856 282 810 194 q 903 485 903 369 q 856 688 903 601 q 729 822 810 775 q 546 869 649 869 q 363 822 443 869 q 235 688 282 775 q 189 485 189 601 q 235 282 189 369 q 363 147 282 194 q 546 100 444 100 m 438 1065 q 385 1086 407 1065 q 364 1138 364 1107 q 385 1190 364 1168 q 438 1211 407 1211 q 488 1190 467 1211 q 510 1138 510 1168 q 488 1086 510 1107 q 438 1065 467 1065 m 663 1065 q 611 1086 632 1065 q 590 1138 590 1107 q 611 1190 590 1168 q 663 1211 632 1211 q 715 1190 693 1211 q 736 1138 736 1168 q 715 1086 736 1107 q 663 1065 693 1065 z "},"×":{"ha":893,"x_min":143,"x_max":749,"o":"m 668 208 l 447 429 l 226 208 l 143 292 l 364 513 l 147 729 l 228 811 l 446 593 l 664 811 l 747 728 l 529 510 l 749 289 l 668 208 z "},"Ø":{"ha":1092,"x_min":49,"x_max":1043,"o":"m 908 824 q 1000 672 968 758 q 1032 485 1032 585 q 968 229 1032 342 q 793 53 904 117 q 546 -10 682 -10 q 380 17 458 -10 q 239 94 301 44 l 151 0 l 49 0 l 183 147 q 92 300 125 214 q 60 485 60 386 q 124 740 60 626 q 300 916 189 853 q 546 979 411 979 q 712 952 633 979 q 853 875 790 925 l 940 969 l 1043 969 l 908 824 m 189 485 q 265 235 189 335 l 775 790 q 546 869 681 869 q 363 822 443 869 q 235 688 282 775 q 189 485 189 601 m 903 485 q 828 735 903 633 l 317 179 q 546 100 411 100 q 728 147 647 100 q 856 282 810 194 q 903 485 903 369 z "},"Ù":{"ha":938,"x_min":104,"x_max":833,"o":"m 231 968 l 231 356 q 294 164 231 226 q 469 101 357 101 q 644 164 581 101 q 707 356 707 226 l 707 968 l 833 968 l 833 357 q 785 153 833 236 q 653 31 736 71 q 468 -10 571 -10 q 283 31 365 -10 q 152 153 200 71 q 104 357 104 236 l 104 968 l 231 968 m 604 1114 l 604 1019 l 308 1178 l 308 1288 l 604 1114 z "},"Ú":{"ha":938,"x_min":104,"x_max":833,"o":"m 231 968 l 231 356 q 294 164 231 226 q 469 101 357 101 q 644 164 581 101 q 707 356 707 226 l 707 968 l 833 968 l 833 357 q 785 153 833 236 q 653 31 736 71 q 468 -10 571 -10 q 283 31 365 -10 q 152 153 200 71 q 104 357 104 236 l 104 968 l 231 968 m 604 1178 l 308 1019 l 308 1114 l 604 1288 l 604 1178 z "},"Û":{"ha":938,"x_min":104,"x_max":833,"o":"m 231 968 l 231 356 q 294 164 231 226 q 469 101 357 101 q 644 164 581 101 q 707 356 707 226 l 707 968 l 833 968 l 833 357 q 785 153 833 236 q 653 31 736 71 q 468 -10 571 -10 q 283 31 365 -10 q 152 153 200 71 q 104 357 104 236 l 104 968 l 231 968 m 469 1149 l 276 1031 l 276 1131 l 469 1246 l 661 1131 l 661 1031 l 469 1149 z "},"Ü":{"ha":938,"x_min":104,"x_max":833,"o":"m 231 968 l 231 356 q 294 164 231 226 q 469 101 357 101 q 644 164 581 101 q 707 356 707 226 l 707 968 l 833 968 l 833 357 q 785 153 833 236 q 653 31 736 71 q 468 -10 571 -10 q 283 31 365 -10 q 152 153 200 71 q 104 357 104 236 l 104 968 l 231 968 m 357 1065 q 305 1086 326 1065 q 283 1138 283 1107 q 305 1190 283 1168 q 357 1211 326 1211 q 408 1190 386 1211 q 429 1138 429 1168 q 408 1086 429 1107 q 357 1065 386 1065 m 582 1065 q 531 1086 551 1065 q 510 1138 510 1107 q 531 1190 510 1168 q 582 1211 551 1211 q 634 1190 613 1211 q 656 1138 656 1168 q 634 1086 656 1107 q 582 1065 613 1065 z "},"Ý":{"ha":811,"x_min":26,"x_max":785,"o":"m 785 968 l 469 365 l 469 0 l 343 0 l 343 365 l 26 968 l 167 968 l 406 478 l 644 968 l 785 968 m 542 1178 l 246 1019 l 246 1114 l 542 1288 l 542 1178 z "},"Þ":{"ha":804,"x_min":107,"x_max":754,"o":"m 754 485 q 672 283 754 363 q 419 203 589 203 l 233 203 l 233 0 l 107 0 l 107 969 l 233 969 l 233 768 l 419 768 q 669 689 583 768 q 754 485 754 610 m 419 304 q 574 352 524 304 q 625 485 625 400 q 574 619 625 571 q 419 668 524 668 l 233 668 l 233 304 l 419 304 z "},"ß":{"ha":946,"x_min":83,"x_max":865,"o":"m 83 779 q 166 990 83 908 q 410 1071 249 1071 q 574 1039 506 1071 q 678 954 643 1007 q 714 840 714 901 q 681 727 714 774 q 589 632 647 681 q 535 580 551 600 q 518 538 518 560 q 550 485 518 507 q 672 432 582 463 q 819 345 774 399 q 865 210 865 292 q 795 48 865 110 q 601 -14 725 -14 q 404 53 481 -14 q 318 236 328 119 l 446 236 q 491 128 450 168 q 601 88 532 88 q 701 117 667 88 q 736 200 736 146 q 706 281 736 250 q 599 336 675 311 q 438 415 486 374 q 390 521 390 457 q 417 606 390 569 q 494 688 443 642 q 565 761 542 731 q 588 831 588 792 q 540 928 588 893 q 408 964 492 964 q 210 764 210 964 l 210 0 l 83 0 l 83 779 z "},"à":{"ha":939,"x_min":60,"x_max":832,"o":"m 60 383 q 107 588 60 500 q 237 725 154 676 q 421 774 319 774 q 594 731 521 774 q 704 622 668 688 l 704 761 l 832 761 l 832 0 l 704 0 l 704 142 q 592 31 667 75 q 419 -12 518 -12 q 236 38 318 -12 q 107 178 154 88 q 60 383 60 268 m 704 382 q 669 532 704 468 q 576 630 635 596 q 446 664 517 664 q 317 631 375 664 q 224 533 258 597 q 189 383 189 469 q 224 231 189 296 q 317 133 258 167 q 446 99 375 99 q 576 133 517 99 q 669 231 635 167 q 704 382 704 296 m 606 913 l 606 818 l 310 976 l 310 1086 l 606 913 z "},"á":{"ha":939,"x_min":60,"x_max":832,"o":"m 60 383 q 107 588 60 500 q 237 725 154 676 q 421 774 319 774 q 594 731 521 774 q 704 622 668 688 l 704 761 l 832 761 l 832 0 l 704 0 l 704 142 q 592 31 667 75 q 419 -12 518 -12 q 236 38 318 -12 q 107 178 154 88 q 60 383 60 268 m 704 382 q 669 532 704 468 q 576 630 635 596 q 446 664 517 664 q 317 631 375 664 q 224 533 258 597 q 189 383 189 469 q 224 231 189 296 q 317 133 258 167 q 446 99 375 99 q 576 133 517 99 q 669 231 635 167 q 704 382 704 296 m 606 976 l 310 818 l 310 913 l 606 1086 l 606 976 z "},"â":{"ha":939,"x_min":60,"x_max":832,"o":"m 60 383 q 107 588 60 500 q 237 725 154 676 q 421 774 319 774 q 594 731 521 774 q 704 622 668 688 l 704 761 l 832 761 l 832 0 l 704 0 l 704 142 q 592 31 667 75 q 419 -12 518 -12 q 236 38 318 -12 q 107 178 154 88 q 60 383 60 268 m 704 382 q 669 532 704 468 q 576 630 635 596 q 446 664 517 664 q 317 631 375 664 q 224 533 258 597 q 189 383 189 469 q 224 231 189 296 q 317 133 258 167 q 446 99 375 99 q 576 133 517 99 q 669 231 635 167 q 704 382 704 296 m 471 947 l 278 829 l 278 929 l 471 1044 l 663 929 l 663 829 l 471 947 z "},"ã":{"ha":939,"x_min":60,"x_max":832,"o":"m 60 383 q 107 588 60 500 q 237 725 154 676 q 421 774 319 774 q 594 731 521 774 q 704 622 668 688 l 704 761 l 832 761 l 832 0 l 704 0 l 704 142 q 592 31 667 75 q 419 -12 518 -12 q 236 38 318 -12 q 107 178 154 88 q 60 383 60 268 m 704 382 q 669 532 704 468 q 576 630 635 596 q 446 664 517 664 q 317 631 375 664 q 224 533 258 597 q 189 383 189 469 q 224 231 189 296 q 317 133 258 167 q 446 99 375 99 q 576 133 517 99 q 669 231 635 167 q 704 382 704 296 m 267 843 q 313 951 276 914 q 406 989 350 989 q 451 980 432 989 q 496 954 469 971 q 531 933 515 940 q 564 925 546 925 q 604 940 588 925 q 625 985 621 956 l 697 985 q 651 878 689 915 q 558 840 614 840 q 512 849 532 840 q 467 876 492 858 q 431 897 444 890 q 400 904 418 904 q 360 889 376 904 q 340 843 344 874 l 267 843 z "},"ä":{"ha":939,"x_min":60,"x_max":832,"o":"m 60 383 q 107 588 60 500 q 237 725 154 676 q 421 774 319 774 q 594 731 521 774 q 704 622 668 688 l 704 761 l 832 761 l 832 0 l 704 0 l 704 142 q 592 31 667 75 q 419 -12 518 -12 q 236 38 318 -12 q 107 178 154 88 q 60 383 60 268 m 704 382 q 669 532 704 468 q 576 630 635 596 q 446 664 517 664 q 317 631 375 664 q 224 533 258 597 q 189 383 189 469 q 224 231 189 296 q 317 133 258 167 q 446 99 375 99 q 576 133 517 99 q 669 231 635 167 q 704 382 704 296 m 358 864 q 306 885 328 864 q 285 936 285 906 q 306 988 285 967 q 358 1010 328 1010 q 409 988 388 1010 q 431 936 431 967 q 409 885 431 906 q 358 864 388 864 m 583 864 q 532 885 553 864 q 511 936 511 906 q 532 988 511 967 q 583 1010 553 1010 q 635 988 614 1010 q 657 936 657 967 q 635 885 657 906 q 583 864 614 864 z "},"å":{"ha":939,"x_min":60,"x_max":832,"o":"m 60 383 q 107 588 60 500 q 237 725 154 676 q 421 774 319 774 q 594 731 521 774 q 704 622 668 688 l 704 761 l 832 761 l 832 0 l 704 0 l 704 142 q 592 31 667 75 q 419 -12 518 -12 q 236 38 318 -12 q 107 178 154 88 q 60 383 60 268 m 704 382 q 669 532 704 468 q 576 630 635 596 q 446 664 517 664 q 317 631 375 664 q 224 533 258 597 q 189 383 189 469 q 224 231 189 296 q 317 133 258 167 q 446 99 375 99 q 576 133 517 99 q 669 231 635 167 q 704 382 704 296 m 619 989 q 577 883 619 922 q 471 843 535 843 q 365 883 408 843 q 322 989 322 924 q 365 1094 322 1054 q 471 1135 408 1135 q 577 1095 535 1135 q 619 989 619 1056 m 546 990 q 524 1047 546 1025 q 471 1068 503 1068 q 417 1047 439 1068 q 396 990 396 1025 q 417 933 396 956 q 471 911 439 911 q 524 933 503 911 q 546 990 546 956 z "},"æ":{"ha":1524,"x_min":60,"x_max":1465,"o":"m 1465 413 q 1460 338 1465 372 l 833 338 q 878 205 840 260 q 971 122 915 150 q 1088 94 1026 94 q 1235 133 1176 94 q 1313 235 1293 171 l 1449 235 q 1329 56 1418 125 q 1108 -12 1240 -12 q 937 31 1015 -12 q 818 147 858 74 l 818 0 l 708 0 l 708 146 q 592 31 667 75 q 421 -12 517 -12 q 237 38 319 -12 q 107 178 154 88 q 60 383 60 268 q 108 588 60 500 q 239 725 156 676 q 428 774 322 774 q 594 734 521 774 q 713 621 667 694 l 713 761 l 818 761 l 818 621 q 1108 774 917 774 q 1295 726 1214 774 q 1421 595 1376 678 q 1465 413 1465 513 m 1335 429 q 1302 556 1335 503 q 1213 638 1269 610 q 1089 667 1157 667 q 916 603 989 667 q 833 429 843 539 l 1335 429 m 446 99 q 576 133 517 99 q 669 231 635 167 q 704 382 704 296 q 669 532 704 468 q 576 630 635 596 q 446 664 517 664 q 317 631 375 664 q 224 533 258 597 q 189 383 189 469 q 224 231 189 296 q 317 133 258 167 q 446 99 375 99 z "},"ç":{"ha":843,"x_min":60,"x_max":782,"o":"m 431 94 q 569 133 514 94 q 646 244 625 172 l 782 244 q 673 67 754 136 q 469 -11 592 -1 l 469 -81 q 600 -115 551 -79 q 649 -218 649 -151 q 601 -322 649 -283 q 479 -361 554 -361 l 319 -361 l 319 -279 l 454 -279 q 522 -265 500 -279 q 543 -218 543 -251 q 522 -172 543 -186 q 454 -158 500 -158 l 385 -158 l 385 -10 q 215 51 289 0 q 101 187 142 101 q 60 382 60 272 q 107 588 60 500 q 238 725 154 676 q 431 774 322 774 q 662 706 571 774 q 782 517 753 638 l 646 517 q 570 626 626 586 q 431 667 514 667 q 256 592 322 667 q 189 382 189 518 q 256 169 189 244 q 431 94 322 94 z "},"è":{"ha":861,"x_min":60,"x_max":801,"o":"m 801 410 q 797 333 801 374 l 189 333 q 266 158 196 221 q 436 94 336 94 q 573 133 518 94 q 650 235 628 171 l 786 235 q 664 56 756 125 q 436 -12 572 -12 q 242 36 328 -12 q 108 174 157 85 q 60 382 60 264 q 107 589 60 500 q 240 726 154 678 q 436 774 325 774 q 628 726 544 774 q 756 597 711 679 q 801 410 801 514 m 671 436 q 639 560 671 508 q 552 640 607 613 q 431 667 497 667 q 267 606 335 667 q 190 436 200 544 l 671 436 m 567 913 l 567 818 l 271 976 l 271 1086 l 567 913 z "},"é":{"ha":861,"x_min":60,"x_max":801,"o":"m 801 410 q 797 333 801 374 l 189 333 q 266 158 196 221 q 436 94 336 94 q 573 133 518 94 q 650 235 628 171 l 786 235 q 664 56 756 125 q 436 -12 572 -12 q 242 36 328 -12 q 108 174 157 85 q 60 382 60 264 q 107 589 60 500 q 240 726 154 678 q 436 774 325 774 q 628 726 544 774 q 756 597 711 679 q 801 410 801 514 m 671 436 q 639 560 671 508 q 552 640 607 613 q 431 667 497 667 q 267 606 335 667 q 190 436 200 544 l 671 436 m 567 976 l 271 818 l 271 913 l 567 1086 l 567 976 z "},"ê":{"ha":861,"x_min":60,"x_max":801,"o":"m 801 410 q 797 333 801 374 l 189 333 q 266 158 196 221 q 436 94 336 94 q 573 133 518 94 q 650 235 628 171 l 786 235 q 664 56 756 125 q 436 -12 572 -12 q 242 36 328 -12 q 108 174 157 85 q 60 382 60 264 q 107 589 60 500 q 240 726 154 678 q 436 774 325 774 q 628 726 544 774 q 756 597 711 679 q 801 410 801 514 m 671 436 q 639 560 671 508 q 552 640 607 613 q 431 667 497 667 q 267 606 335 667 q 190 436 200 544 l 671 436 m 432 947 l 239 829 l 239 929 l 432 1044 l 624 929 l 624 829 l 432 947 z "},"ë":{"ha":861,"x_min":60,"x_max":801,"o":"m 801 410 q 797 333 801 374 l 189 333 q 266 158 196 221 q 436 94 336 94 q 573 133 518 94 q 650 235 628 171 l 786 235 q 664 56 756 125 q 436 -12 572 -12 q 242 36 328 -12 q 108 174 157 85 q 60 382 60 264 q 107 589 60 500 q 240 726 154 678 q 436 774 325 774 q 628 726 544 774 q 756 597 711 679 q 801 410 801 514 m 671 436 q 639 560 671 508 q 552 640 607 613 q 431 667 497 667 q 267 606 335 667 q 190 436 200 544 l 671 436 m 318 864 q 266 885 288 864 q 244 936 244 906 q 266 988 244 967 q 318 1010 288 1010 q 369 988 347 1010 q 390 936 390 967 q 369 885 390 906 q 318 864 347 864 m 543 864 q 492 885 513 864 q 471 936 471 906 q 492 988 471 967 q 543 1010 513 1010 q 595 988 574 1010 q 617 936 617 967 q 595 885 617 906 q 543 864 574 864 z "},"ì":{"ha":342,"x_min":10,"x_max":306,"o":"m 233 761 l 233 0 l 107 0 l 107 761 l 233 761 m 306 913 l 306 818 l 10 976 l 10 1086 l 306 913 z "},"í":{"ha":342,"x_min":10,"x_max":306,"o":"m 233 761 l 233 0 l 107 0 l 107 761 l 233 761 m 306 976 l 10 818 l 10 913 l 306 1086 l 306 976 z "},"î":{"ha":342,"x_min":-22,"x_max":363,"o":"m 233 761 l 233 0 l 107 0 l 107 761 l 233 761 m 171 947 l -22 829 l -22 929 l 171 1044 l 363 929 l 363 829 l 171 947 z "},"ï":{"ha":342,"x_min":-15,"x_max":357,"o":"m 233 761 l 233 0 l 107 0 l 107 761 l 233 761 m 58 864 q 6 885 28 864 q -15 936 -15 906 q 6 988 -15 967 q 58 1010 28 1010 q 109 988 88 1010 q 131 936 131 967 q 109 885 131 906 q 58 864 88 864 m 283 864 q 232 885 253 864 q 211 936 211 906 q 232 988 211 967 q 283 1010 253 1010 q 335 988 314 1010 q 357 936 357 967 q 335 885 357 906 q 283 864 314 864 z "},"ð":{"ha":886,"x_min":60,"x_max":828,"o":"m 636 917 q 828 438 828 704 q 778 191 828 292 q 640 39 728 90 q 439 -12 551 -12 q 242 37 329 -12 q 108 177 156 86 q 60 386 60 268 q 108 590 60 501 q 242 726 157 678 q 432 775 326 775 q 683 647 597 775 q 543 886 639 779 l 363 825 l 363 894 l 493 939 q 392 1028 449 982 l 521 1028 q 585 971 576 979 l 767 1032 l 767 961 l 636 917 m 439 94 q 567 128 508 94 q 662 226 626 161 q 697 382 697 292 q 663 538 697 472 q 569 635 628 603 q 442 668 511 668 q 315 635 372 668 q 223 540 257 603 q 189 386 189 476 q 222 228 189 294 q 313 128 256 163 q 439 94 369 94 z "},"ñ":{"ha":889,"x_min":107,"x_max":789,"o":"m 478 775 q 703 691 617 775 q 789 449 789 607 l 789 0 l 664 0 l 664 431 q 607 605 664 544 q 451 665 550 665 q 292 603 351 665 q 233 421 233 540 l 233 0 l 107 0 l 107 761 l 233 761 l 233 653 q 335 743 271 711 q 478 775 400 775 m 243 843 q 290 951 253 914 q 382 989 326 989 q 427 980 408 989 q 472 954 446 971 q 507 933 492 940 q 540 925 522 925 q 581 940 564 925 q 601 985 597 956 l 674 985 q 628 878 665 915 q 535 840 590 840 q 488 849 508 840 q 443 876 468 858 q 408 897 421 890 q 376 904 394 904 q 337 889 353 904 q 317 843 321 874 l 243 843 z "},"ò":{"ha":889,"x_min":60,"x_max":829,"o":"m 439 -12 q 245 36 332 -12 q 109 174 158 85 q 60 382 60 264 q 110 588 60 499 q 249 726 161 678 q 444 774 336 774 q 640 726 553 774 q 778 589 728 678 q 829 382 829 500 q 777 174 829 264 q 636 36 725 85 q 439 -12 547 -12 m 439 99 q 567 131 507 99 q 663 226 626 163 q 700 382 700 290 q 664 538 700 474 q 569 633 628 601 q 443 664 511 664 q 316 633 374 664 q 224 538 258 601 q 189 382 189 474 q 223 225 189 289 q 314 130 257 161 q 439 99 371 99 m 581 922 l 581 828 l 285 986 l 285 1096 l 581 922 z "},"ó":{"ha":889,"x_min":60,"x_max":829,"o":"m 439 -12 q 245 36 332 -12 q 109 174 158 85 q 60 382 60 264 q 110 588 60 499 q 249 726 161 678 q 444 774 336 774 q 640 726 553 774 q 778 589 728 678 q 829 382 829 500 q 777 174 829 264 q 636 36 725 85 q 439 -12 547 -12 m 439 99 q 567 131 507 99 q 663 226 626 163 q 700 382 700 290 q 664 538 700 474 q 569 633 628 601 q 443 664 511 664 q 316 633 374 664 q 224 538 258 601 q 189 382 189 474 q 223 225 189 289 q 314 130 257 161 q 439 99 371 99 m 581 986 l 285 828 l 285 922 l 581 1096 l 581 986 z "},"ô":{"ha":889,"x_min":60,"x_max":829,"o":"m 439 -12 q 245 36 332 -12 q 109 174 158 85 q 60 382 60 264 q 110 588 60 499 q 249 726 161 678 q 444 774 336 774 q 640 726 553 774 q 778 589 728 678 q 829 382 829 500 q 777 174 829 264 q 636 36 725 85 q 439 -12 547 -12 m 439 99 q 567 131 507 99 q 663 226 626 163 q 700 382 700 290 q 664 538 700 474 q 569 633 628 601 q 443 664 511 664 q 316 633 374 664 q 224 538 258 601 q 189 382 189 474 q 223 225 189 289 q 314 130 257 161 q 439 99 371 99 m 446 957 l 253 839 l 253 939 l 446 1054 l 638 939 l 638 839 l 446 957 z "},"õ":{"ha":889,"x_min":60,"x_max":829,"o":"m 439 -12 q 245 36 332 -12 q 109 174 158 85 q 60 382 60 264 q 110 588 60 499 q 249 726 161 678 q 444 774 336 774 q 640 726 553 774 q 778 589 728 678 q 829 382 829 500 q 777 174 829 264 q 636 36 725 85 q 439 -12 547 -12 m 439 99 q 567 131 507 99 q 663 226 626 163 q 700 382 700 290 q 664 538 700 474 q 569 633 628 601 q 443 664 511 664 q 316 633 374 664 q 224 538 258 601 q 189 382 189 474 q 223 225 189 289 q 314 130 257 161 q 439 99 371 99 m 242 853 q 288 961 251 924 q 381 999 325 999 q 426 990 407 999 q 471 964 444 981 q 506 942 490 950 q 539 935 521 935 q 579 950 563 935 q 600 994 596 965 l 672 994 q 626 888 664 925 q 533 850 589 850 q 487 859 507 850 q 442 886 467 868 q 406 907 419 900 q 375 914 393 914 q 335 899 351 914 q 315 853 319 883 l 242 853 z "},"ö":{"ha":889,"x_min":60,"x_max":829,"o":"m 439 -12 q 245 36 332 -12 q 109 174 158 85 q 60 382 60 264 q 110 588 60 499 q 249 726 161 678 q 444 774 336 774 q 640 726 553 774 q 778 589 728 678 q 829 382 829 500 q 777 174 829 264 q 636 36 725 85 q 439 -12 547 -12 m 439 99 q 567 131 507 99 q 663 226 626 163 q 700 382 700 290 q 664 538 700 474 q 569 633 628 601 q 443 664 511 664 q 316 633 374 664 q 224 538 258 601 q 189 382 189 474 q 223 225 189 289 q 314 130 257 161 q 439 99 371 99 m 333 874 q 281 894 303 874 q 260 946 260 915 q 281 998 260 976 q 333 1019 303 1019 q 384 998 363 1019 q 406 946 406 976 q 384 894 406 915 q 333 874 363 874 m 558 874 q 507 894 528 874 q 486 946 486 915 q 507 998 486 976 q 558 1019 528 1019 q 610 998 589 1019 q 632 946 632 976 q 610 894 632 915 q 558 874 589 874 z "},"÷":{"ha":913,"x_min":108,"x_max":817,"o":"m 465 722 q 404 747 429 722 q 379 808 379 772 q 404 869 379 844 q 465 894 429 894 q 524 869 500 894 q 549 808 549 844 q 524 747 549 772 q 465 722 500 722 m 817 563 l 817 456 l 108 456 l 108 563 l 817 563 m 465 126 q 404 151 429 126 q 379 213 379 176 q 404 274 379 249 q 465 299 429 299 q 524 274 500 299 q 549 213 549 249 q 524 151 549 176 q 465 126 500 126 z "},"ø":{"ha":889,"x_min":53,"x_max":838,"o":"m 736 650 q 805 531 781 599 q 829 382 829 463 q 777 174 829 264 q 636 36 725 85 q 439 -12 547 -12 q 201 64 304 -12 l 143 0 l 53 0 l 153 110 q 84 231 108 163 q 60 382 60 300 q 110 588 60 499 q 249 726 161 678 q 444 774 336 774 q 688 694 585 774 l 747 761 l 838 761 l 736 650 m 189 382 q 238 201 189 275 l 607 607 q 443 664 540 664 q 316 633 374 664 q 224 538 258 601 q 189 382 189 474 m 700 382 q 651 557 700 489 l 282 151 q 439 99 347 99 q 567 131 507 99 q 663 226 626 163 q 700 382 700 290 z "},"ù":{"ha":889,"x_min":100,"x_max":782,"o":"m 782 761 l 782 0 l 656 0 l 656 113 q 555 22 619 54 q 413 -11 490 -11 q 253 26 324 -11 q 141 136 182 63 q 100 315 100 210 l 100 761 l 225 761 l 225 332 q 282 159 225 219 q 438 99 339 99 q 597 161 539 99 q 656 343 656 224 l 656 761 l 782 761 m 581 913 l 581 818 l 285 976 l 285 1086 l 581 913 z "},"ú":{"ha":889,"x_min":100,"x_max":782,"o":"m 782 761 l 782 0 l 656 0 l 656 113 q 555 22 619 54 q 413 -11 490 -11 q 253 26 324 -11 q 141 136 182 63 q 100 315 100 210 l 100 761 l 225 761 l 225 332 q 282 159 225 219 q 438 99 339 99 q 597 161 539 99 q 656 343 656 224 l 656 761 l 782 761 m 581 976 l 285 818 l 285 913 l 581 1086 l 581 976 z "},"û":{"ha":889,"x_min":100,"x_max":782,"o":"m 782 761 l 782 0 l 656 0 l 656 113 q 555 22 619 54 q 413 -11 490 -11 q 253 26 324 -11 q 141 136 182 63 q 100 315 100 210 l 100 761 l 225 761 l 225 332 q 282 159 225 219 q 438 99 339 99 q 597 161 539 99 q 656 343 656 224 l 656 761 l 782 761 m 446 947 l 253 829 l 253 929 l 446 1044 l 638 929 l 638 829 l 446 947 z "},"ü":{"ha":889,"x_min":100,"x_max":782,"o":"m 782 761 l 782 0 l 656 0 l 656 113 q 555 22 619 54 q 413 -11 490 -11 q 253 26 324 -11 q 141 136 182 63 q 100 315 100 210 l 100 761 l 225 761 l 225 332 q 282 159 225 219 q 438 99 339 99 q 597 161 539 99 q 656 343 656 224 l 656 761 l 782 761 m 333 864 q 281 885 303 864 q 260 936 260 906 q 281 988 260 967 q 333 1010 303 1010 q 384 988 363 1010 q 406 936 406 967 q 384 885 406 906 q 333 864 363 864 m 558 864 q 507 885 528 864 q 486 936 486 906 q 507 988 486 967 q 558 1010 528 1010 q 610 988 589 1010 q 632 936 632 967 q 610 885 632 906 q 558 864 589 864 z "},"ý":{"ha":782,"x_min":17,"x_max":763,"o":"m 763 761 l 304 -358 l 174 -358 l 324 8 l 17 761 l 157 761 l 396 144 l 632 761 l 763 761 m 526 976 l 231 818 l 231 913 l 526 1086 l 526 976 z "},"þ":{"ha":939,"x_min":107,"x_max":879,"o":"m 233 600 q 344 726 269 678 q 518 774 418 774 q 702 725 619 774 q 832 588 785 676 q 879 383 879 500 q 832 178 879 268 q 702 38 785 88 q 518 -12 619 -12 q 344 37 418 -12 q 233 167 271 86 l 233 -361 l 107 -361 l 107 1028 l 233 1028 l 233 600 m 750 383 q 715 533 750 469 q 622 631 681 597 q 492 664 563 664 q 363 630 422 664 q 269 531 304 596 q 233 382 233 467 q 269 231 233 296 q 363 133 304 167 q 492 99 422 99 q 622 133 563 99 q 715 231 681 167 q 750 383 750 296 z "},"ÿ":{"ha":782,"x_min":17,"x_max":763,"o":"m 763 761 l 304 -358 l 174 -358 l 324 8 l 17 761 l 157 761 l 396 144 l 632 761 l 763 761 m 279 864 q 227 885 249 864 q 206 936 206 906 q 227 988 206 967 q 279 1010 249 1010 q 330 988 308 1010 q 351 936 351 967 q 330 885 351 906 q 279 864 308 864 m 504 864 q 453 885 474 864 q 432 936 432 906 q 453 988 432 967 q 504 1010 474 1010 q 556 988 535 1010 q 578 936 578 967 q 556 885 578 906 q 504 864 535 864 z "},"Ā":{"ha":936,"x_min":46,"x_max":890,"o":"m 679 215 l 257 215 l 179 0 l 46 0 l 396 963 l 542 963 l 890 0 l 757 0 l 679 215 m 643 318 l 468 807 l 293 318 l 643 318 m 713 1186 l 713 1092 l 224 1092 l 224 1186 l 713 1186 z "},"ā":{"ha":939,"x_min":60,"x_max":832,"o":"m 60 383 q 107 588 60 500 q 237 725 154 676 q 421 774 319 774 q 594 731 521 774 q 704 622 668 688 l 704 761 l 832 761 l 832 0 l 704 0 l 704 142 q 592 31 667 75 q 419 -12 518 -12 q 236 38 318 -12 q 107 178 154 88 q 60 383 60 268 m 704 382 q 669 532 704 468 q 576 630 635 596 q 446 664 517 664 q 317 631 375 664 q 224 533 258 597 q 189 383 189 469 q 224 231 189 296 q 317 133 258 167 q 446 99 375 99 q 576 133 517 99 q 669 231 635 167 q 704 382 704 296 m 715 985 l 715 890 l 226 890 l 226 985 l 715 985 z "},"Ă":{"ha":936,"x_min":46,"x_max":890,"o":"m 679 215 l 257 215 l 179 0 l 46 0 l 396 963 l 542 963 l 890 0 l 757 0 l 679 215 m 643 318 l 468 807 l 293 318 l 643 318 m 667 1218 q 615 1088 667 1139 q 469 1038 563 1038 q 324 1088 376 1038 q 271 1219 271 1139 l 271 1243 l 346 1243 q 375 1163 346 1190 q 469 1136 404 1136 q 563 1163 533 1136 q 592 1243 592 1190 l 667 1243 l 667 1218 z "},"ă":{"ha":939,"x_min":60,"x_max":832,"o":"m 60 383 q 107 588 60 500 q 237 725 154 676 q 421 774 319 774 q 594 731 521 774 q 704 622 668 688 l 704 761 l 832 761 l 832 0 l 704 0 l 704 142 q 592 31 667 75 q 419 -12 518 -12 q 236 38 318 -12 q 107 178 154 88 q 60 383 60 268 m 704 382 q 669 532 704 468 q 576 630 635 596 q 446 664 517 664 q 317 631 375 664 q 224 533 258 597 q 189 383 189 469 q 224 231 189 296 q 317 133 258 167 q 446 99 375 99 q 576 133 517 99 q 669 231 635 167 q 704 382 704 296 m 668 1017 q 616 887 668 938 q 471 836 564 836 q 325 887 378 836 q 272 1018 272 938 l 272 1042 l 347 1042 q 376 962 347 989 q 471 935 406 935 q 564 962 535 935 q 593 1042 593 989 l 668 1042 l 668 1017 z "},"Ą":{"ha":936,"x_min":46,"x_max":903,"o":"m 813 -201 q 903 -183 853 -201 l 903 -267 q 797 -286 850 -286 q 676 -252 726 -286 q 626 -147 626 -218 q 656 -60 626 -100 q 751 17 685 -19 l 679 215 l 257 215 l 179 0 l 46 0 l 396 963 l 542 963 l 890 0 l 815 -37 q 750 -83 769 -60 q 731 -135 731 -107 q 753 -184 731 -167 q 813 -201 775 -201 m 643 318 l 468 807 l 293 318 l 643 318 z "},"ą":{"ha":939,"x_min":60,"x_max":844,"o":"m 754 -201 q 844 -183 793 -201 l 844 -267 q 738 -286 789 -286 q 617 -252 667 -286 q 568 -147 568 -218 q 704 24 568 -49 l 704 142 q 592 31 667 75 q 419 -12 518 -12 q 236 38 318 -12 q 107 178 154 88 q 60 383 60 268 q 107 588 60 500 q 237 725 154 676 q 421 774 319 774 q 594 731 521 774 q 704 622 668 688 l 704 761 l 832 761 l 832 0 l 756 -37 q 672 -135 672 -78 q 694 -184 672 -167 q 754 -201 717 -201 m 446 99 q 576 133 517 99 q 669 231 635 167 q 704 382 704 296 q 669 532 704 468 q 576 630 635 596 q 446 664 517 664 q 317 631 375 664 q 224 533 258 597 q 189 383 189 469 q 224 231 189 296 q 317 133 258 167 q 446 99 375 99 z "},"Ć":{"ha":1072,"x_min":60,"x_max":992,"o":"m 60 485 q 124 740 60 626 q 298 917 188 853 q 543 981 408 981 q 819 904 701 981 q 992 688 938 828 l 840 688 q 724 822 800 775 q 543 869 649 869 q 361 822 442 869 q 235 688 281 775 q 189 485 189 601 q 235 283 189 369 q 361 149 281 196 q 543 101 442 101 q 724 148 649 101 q 840 282 800 194 l 992 282 q 819 67 938 143 q 543 -8 701 -8 q 298 55 408 -8 q 124 231 188 118 q 60 485 60 343 m 686 1186 l 390 1028 l 390 1122 l 686 1296 l 686 1186 z "},"ć":{"ha":843,"x_min":60,"x_max":782,"o":"m 60 382 q 107 588 60 500 q 238 725 154 676 q 431 774 322 774 q 662 706 571 774 q 782 517 753 638 l 646 517 q 570 626 626 586 q 431 667 514 667 q 256 592 322 667 q 189 382 189 518 q 256 169 189 244 q 431 94 322 94 q 569 133 514 94 q 646 244 625 172 l 782 244 q 660 58 751 128 q 431 -12 568 -12 q 238 36 322 -12 q 107 174 154 85 q 60 382 60 263 m 558 976 l 263 818 l 263 913 l 558 1086 l 558 976 z "},"Ċ":{"ha":1072,"x_min":60,"x_max":992,"o":"m 60 485 q 124 740 60 626 q 298 917 188 853 q 543 981 408 981 q 819 904 701 981 q 992 688 938 828 l 840 688 q 724 822 800 775 q 543 869 649 869 q 361 822 442 869 q 235 688 281 775 q 189 485 189 601 q 235 283 189 369 q 361 149 281 196 q 543 101 442 101 q 724 148 649 101 q 840 282 800 194 l 992 282 q 819 67 938 143 q 543 -8 701 -8 q 298 55 408 -8 q 124 231 188 118 q 60 485 60 343 m 551 1065 q 499 1086 521 1065 q 478 1138 478 1107 q 499 1190 478 1168 q 551 1211 521 1211 q 603 1190 582 1211 q 624 1138 624 1168 q 603 1086 624 1107 q 551 1065 582 1065 z "},"ċ":{"ha":843,"x_min":60,"x_max":782,"o":"m 60 382 q 107 588 60 500 q 238 725 154 676 q 431 774 322 774 q 662 706 571 774 q 782 517 753 638 l 646 517 q 570 626 626 586 q 431 667 514 667 q 256 592 322 667 q 189 382 189 518 q 256 169 189 244 q 431 94 322 94 q 569 133 514 94 q 646 244 625 172 l 782 244 q 660 58 751 128 q 431 -12 568 -12 q 238 36 322 -12 q 107 174 154 85 q 60 382 60 263 m 422 857 q 370 878 392 857 q 349 929 349 899 q 370 981 349 960 q 422 1003 392 1003 q 474 981 453 1003 q 494 929 494 960 q 474 878 494 899 q 422 857 453 857 z "},"Č":{"ha":1072,"x_min":60,"x_max":992,"o":"m 60 485 q 124 740 60 626 q 298 917 188 853 q 543 981 408 981 q 819 904 701 981 q 992 688 938 828 l 840 688 q 724 822 800 775 q 543 869 649 869 q 361 822 442 869 q 235 688 281 775 q 189 485 189 601 q 235 283 189 369 q 361 149 281 196 q 543 101 442 101 q 724 148 649 101 q 840 282 800 194 l 992 282 q 819 67 938 143 q 543 -8 701 -8 q 298 55 408 -8 q 124 231 188 118 q 60 485 60 343 m 743 1153 l 551 1039 l 358 1153 l 358 1253 l 551 1135 l 743 1253 l 743 1153 z "},"č":{"ha":843,"x_min":60,"x_max":782,"o":"m 60 382 q 107 588 60 500 q 238 725 154 676 q 431 774 322 774 q 662 706 571 774 q 782 517 753 638 l 646 517 q 570 626 626 586 q 431 667 514 667 q 256 592 322 667 q 189 382 189 518 q 256 169 189 244 q 431 94 322 94 q 569 133 514 94 q 646 244 625 172 l 782 244 q 660 58 751 128 q 431 -12 568 -12 q 238 36 322 -12 q 107 174 154 85 q 60 382 60 263 m 614 943 l 422 829 l 229 943 l 229 1043 l 422 925 l 614 1043 l 614 943 z "},"Ď":{"ha":982,"x_min":107,"x_max":922,"o":"m 408 968 q 683 909 567 968 q 860 740 799 850 q 922 482 922 631 q 860 224 922 333 q 683 58 799 115 q 408 0 567 0 l 107 0 l 107 968 l 408 968 m 408 104 q 694 203 596 104 q 793 482 793 303 q 694 764 793 663 q 408 865 594 865 l 233 865 l 233 104 l 408 104 m 681 1144 l 489 1031 l 296 1144 l 296 1244 l 489 1126 l 681 1244 l 681 1144 z "},"ď":{"ha":1047,"x_min":60,"x_max":1047,"o":"m 60 383 q 107 588 60 500 q 237 725 154 676 q 422 774 319 774 q 588 733 511 774 q 704 625 664 692 l 704 1028 l 832 1028 l 832 0 l 704 0 l 704 143 q 593 31 667 75 q 421 -12 519 -12 q 237 38 319 -12 q 107 178 154 88 q 60 383 60 268 m 1032 1028 q 1047 900 1047 951 q 1012 781 1047 819 q 906 743 976 743 l 906 803 q 957 821 942 803 q 972 876 972 839 l 972 908 l 904 908 l 904 1028 l 1032 1028 m 704 382 q 669 532 704 468 q 576 630 635 596 q 446 664 517 664 q 317 631 375 664 q 224 533 258 597 q 189 383 189 469 q 224 231 189 296 q 317 133 258 167 q 446 99 375 99 q 576 133 517 99 q 669 231 635 167 q 704 382 704 296 z "},"Đ":{"ha":1007,"x_min":13,"x_max":947,"o":"m 435 968 q 708 909 592 968 q 885 740 824 850 q 947 482 947 631 q 885 224 947 333 q 708 58 824 115 q 435 0 592 0 l 133 0 l 133 424 l 13 424 l 13 540 l 133 540 l 133 968 l 435 968 m 435 97 q 719 199 621 97 q 818 482 818 301 q 719 764 818 663 q 435 865 621 865 l 260 865 l 260 540 l 526 540 l 526 424 l 260 424 l 260 97 l 435 97 z "},"đ":{"ha":938,"x_min":60,"x_max":917,"o":"m 917 840 l 832 840 l 832 0 l 704 0 l 704 143 q 593 31 667 75 q 421 -12 519 -12 q 237 38 319 -12 q 107 178 154 88 q 60 383 60 268 q 107 588 60 500 q 237 725 154 676 q 422 774 319 774 q 588 733 511 774 q 704 625 664 692 l 704 840 l 549 840 l 549 915 l 704 915 l 704 1028 l 832 1028 l 832 915 l 917 915 l 917 840 m 446 99 q 576 133 517 99 q 669 231 635 167 q 704 382 704 296 q 669 532 704 468 q 576 630 635 596 q 446 664 517 664 q 317 631 375 664 q 224 533 258 597 q 189 383 189 469 q 224 231 189 296 q 317 133 258 167 q 446 99 375 99 z "},"Ē":{"ha":713,"x_min":107,"x_max":628,"o":"m 233 865 l 233 542 l 586 542 l 586 438 l 233 438 l 233 104 l 628 104 l 628 0 l 107 0 l 107 969 l 628 969 l 628 865 l 233 865 m 597 1186 l 597 1092 l 108 1092 l 108 1186 l 597 1186 z "},"ē":{"ha":861,"x_min":60,"x_max":801,"o":"m 801 410 q 797 333 801 374 l 189 333 q 266 158 196 221 q 436 94 336 94 q 573 133 518 94 q 650 235 628 171 l 786 235 q 664 56 756 125 q 436 -12 572 -12 q 242 36 328 -12 q 108 174 157 85 q 60 382 60 264 q 107 589 60 500 q 240 726 154 678 q 436 774 325 774 q 628 726 544 774 q 756 597 711 679 q 801 410 801 514 m 671 436 q 639 560 671 508 q 552 640 607 613 q 431 667 497 667 q 267 606 335 667 q 190 436 200 544 l 671 436 m 675 985 l 675 890 l 186 890 l 186 985 l 675 985 z "},"Ĕ":{"ha":713,"x_min":107,"x_max":628,"o":"m 233 865 l 233 542 l 586 542 l 586 438 l 233 438 l 233 104 l 628 104 l 628 0 l 107 0 l 107 969 l 628 969 l 628 865 l 233 865 m 551 1218 q 499 1088 551 1139 q 354 1038 447 1038 q 208 1088 261 1038 q 156 1219 156 1139 l 156 1243 l 231 1243 q 260 1163 231 1190 q 354 1136 289 1136 q 447 1163 418 1136 q 476 1243 476 1190 l 551 1243 l 551 1218 z "},"ĕ":{"ha":861,"x_min":60,"x_max":801,"o":"m 801 410 q 797 333 801 374 l 189 333 q 266 158 196 221 q 436 94 336 94 q 573 133 518 94 q 650 235 628 171 l 786 235 q 664 56 756 125 q 436 -12 572 -12 q 242 36 328 -12 q 108 174 157 85 q 60 382 60 264 q 107 589 60 500 q 240 726 154 678 q 436 774 325 774 q 628 726 544 774 q 756 597 711 679 q 801 410 801 514 m 671 436 q 639 560 671 508 q 552 640 607 613 q 431 667 497 667 q 267 606 335 667 q 190 436 200 544 l 671 436 m 629 1017 q 577 887 629 938 q 432 836 525 836 q 286 887 339 836 q 233 1018 233 938 l 233 1042 l 308 1042 q 338 962 308 989 q 432 935 367 935 q 525 962 496 935 q 554 1042 554 989 l 629 1042 l 629 1017 z "},"Ė":{"ha":713,"x_min":107,"x_max":628,"o":"m 233 865 l 233 542 l 586 542 l 586 438 l 233 438 l 233 104 l 628 104 l 628 0 l 107 0 l 107 969 l 628 969 l 628 865 l 233 865 m 354 1057 q 302 1078 324 1057 q 281 1129 281 1099 q 302 1181 281 1160 q 354 1203 324 1203 q 406 1181 385 1203 q 426 1129 426 1160 q 406 1078 426 1099 q 354 1057 385 1057 z "},"ė":{"ha":861,"x_min":60,"x_max":801,"o":"m 801 410 q 797 333 801 374 l 189 333 q 266 158 196 221 q 436 94 336 94 q 573 133 518 94 q 650 235 628 171 l 786 235 q 664 56 756 125 q 436 -12 572 -12 q 242 36 328 -12 q 108 174 157 85 q 60 382 60 264 q 107 589 60 500 q 240 726 154 678 q 436 774 325 774 q 628 726 544 774 q 756 597 711 679 q 801 410 801 514 m 671 436 q 639 560 671 508 q 552 640 607 613 q 431 667 497 667 q 267 606 335 667 q 190 436 200 544 l 671 436 m 432 857 q 380 878 401 857 q 358 929 358 899 q 380 981 358 960 q 432 1003 401 1003 q 483 981 463 1003 q 504 929 504 960 q 483 878 504 899 q 432 857 463 857 z "},"Ę":{"ha":713,"x_min":107,"x_max":640,"o":"m 550 -201 q 640 -183 589 -201 l 640 -267 q 533 -286 585 -286 q 413 -252 463 -286 q 364 -147 364 -218 q 460 0 364 -64 l 107 0 l 107 969 l 628 969 l 628 865 l 233 865 l 233 542 l 586 542 l 586 438 l 233 438 l 233 104 l 628 104 l 628 0 l 551 -37 q 468 -135 468 -78 q 490 -184 468 -167 q 550 -201 513 -201 z "},"ę":{"ha":861,"x_min":60,"x_max":801,"o":"m 801 410 q 797 333 801 374 l 189 333 q 266 158 196 221 q 436 94 336 94 q 573 133 518 94 q 650 235 628 171 l 786 235 q 701 88 763 150 q 546 1 639 26 l 507 -18 q 424 -115 424 -58 q 446 -165 424 -147 q 506 -182 468 -182 q 596 -164 544 -182 l 596 -247 q 489 -267 540 -267 q 369 -233 418 -267 q 319 -128 319 -199 q 379 -8 319 -60 q 213 55 285 4 q 100 190 140 106 q 60 382 60 274 q 107 589 60 500 q 240 726 154 678 q 436 774 325 774 q 628 726 544 774 q 756 597 711 679 q 801 410 801 514 m 671 436 q 639 560 671 508 q 552 640 607 613 q 431 667 497 667 q 267 606 335 667 q 190 436 200 544 l 671 436 z "},"Ě":{"ha":713,"x_min":107,"x_max":628,"o":"m 233 865 l 233 542 l 586 542 l 586 438 l 233 438 l 233 104 l 628 104 l 628 0 l 107 0 l 107 969 l 628 969 l 628 865 l 233 865 m 546 1144 l 354 1031 l 161 1144 l 161 1244 l 354 1126 l 546 1244 l 546 1144 z "},"ě":{"ha":861,"x_min":60,"x_max":801,"o":"m 801 410 q 797 333 801 374 l 189 333 q 266 158 196 221 q 436 94 336 94 q 573 133 518 94 q 650 235 628 171 l 786 235 q 664 56 756 125 q 436 -12 572 -12 q 242 36 328 -12 q 108 174 157 85 q 60 382 60 264 q 107 589 60 500 q 240 726 154 678 q 436 774 325 774 q 628 726 544 774 q 756 597 711 679 q 801 410 801 514 m 671 436 q 639 560 671 508 q 552 640 607 613 q 431 667 497 667 q 267 606 335 667 q 190 436 200 544 l 671 436 m 624 943 l 432 829 l 239 943 l 239 1043 l 432 925 l 624 1043 l 624 943 z "},"Ğ":{"ha":1081,"x_min":60,"x_max":1021,"o":"m 840 688 q 724 819 800 772 q 546 865 647 865 q 363 819 444 865 q 235 685 282 772 q 189 485 189 599 q 235 285 189 371 q 363 152 282 199 q 546 106 444 106 q 779 190 688 106 q 886 419 871 275 l 500 419 l 500 522 l 1021 522 l 1021 425 q 946 206 1010 306 q 778 49 882 107 q 546 -8 674 -8 q 300 55 411 -8 q 124 231 189 118 q 60 485 60 343 q 124 740 60 626 q 300 916 189 853 q 546 979 411 979 q 819 903 700 979 q 992 688 938 826 l 840 688 m 743 1218 q 691 1088 743 1139 q 546 1038 639 1038 q 400 1088 453 1038 q 347 1219 347 1139 l 347 1243 l 422 1243 q 451 1163 422 1190 q 546 1136 481 1136 q 639 1163 610 1136 q 668 1243 668 1190 l 743 1243 l 743 1218 z "},"ğ":{"ha":939,"x_min":60,"x_max":832,"o":"m 421 774 q 594 731 519 774 q 704 622 668 688 l 704 761 l 832 761 l 832 -17 q 788 -202 832 -121 q 660 -329 743 -283 q 468 -375 578 -375 q 218 -304 318 -375 q 100 -111 118 -233 l 225 -111 q 311 -223 246 -181 q 468 -265 376 -265 q 638 -200 572 -265 q 704 -17 704 -135 l 704 143 q 593 32 667 76 q 421 -12 519 -12 q 237 38 319 -12 q 107 178 154 88 q 60 383 60 268 q 107 588 60 500 q 237 725 154 676 q 421 774 319 774 m 704 382 q 669 532 704 468 q 576 630 635 596 q 446 664 517 664 q 317 631 375 664 q 224 533 258 597 q 189 383 189 469 q 224 231 189 296 q 317 133 258 167 q 446 99 375 99 q 576 133 517 99 q 669 231 635 167 q 704 382 704 296 m 668 1017 q 616 887 668 938 q 471 836 564 836 q 325 887 378 836 q 272 1018 272 938 l 272 1042 l 347 1042 q 376 962 347 989 q 471 935 406 935 q 564 962 535 935 q 593 1042 593 989 l 668 1042 l 668 1017 z "},"Ġ":{"ha":1081,"x_min":60,"x_max":1021,"o":"m 840 688 q 724 819 800 772 q 546 865 647 865 q 363 819 444 865 q 235 685 282 772 q 189 485 189 599 q 235 285 189 371 q 363 152 282 199 q 546 106 444 106 q 779 190 688 106 q 886 419 871 275 l 500 419 l 500 522 l 1021 522 l 1021 425 q 946 206 1010 306 q 778 49 882 107 q 546 -8 674 -8 q 300 55 411 -8 q 124 231 189 118 q 60 485 60 343 q 124 740 60 626 q 300 916 189 853 q 546 979 411 979 q 819 903 700 979 q 992 688 938 826 l 840 688 m 544 1057 q 492 1078 514 1057 q 471 1129 471 1099 q 492 1181 471 1160 q 544 1203 514 1203 q 596 1181 575 1203 q 617 1129 617 1160 q 596 1078 617 1099 q 544 1057 575 1057 z "},"ġ":{"ha":939,"x_min":60,"x_max":832,"o":"m 421 774 q 594 731 519 774 q 704 622 668 688 l 704 761 l 832 761 l 832 -17 q 788 -202 832 -121 q 660 -329 743 -283 q 468 -375 578 -375 q 218 -304 318 -375 q 100 -111 118 -233 l 225 -111 q 311 -223 246 -181 q 468 -265 376 -265 q 638 -200 572 -265 q 704 -17 704 -135 l 704 143 q 593 32 667 76 q 421 -12 519 -12 q 237 38 319 -12 q 107 178 154 88 q 60 383 60 268 q 107 588 60 500 q 237 725 154 676 q 421 774 319 774 m 704 382 q 669 532 704 468 q 576 630 635 596 q 446 664 517 664 q 317 631 375 664 q 224 533 258 597 q 189 383 189 469 q 224 231 189 296 q 317 133 258 167 q 446 99 375 99 q 576 133 517 99 q 669 231 635 167 q 704 382 704 296 m 471 857 q 419 878 440 857 q 397 929 397 899 q 419 981 397 960 q 471 1003 440 1003 q 522 981 501 1003 q 543 929 543 960 q 522 878 543 899 q 471 857 501 857 z "},"Ģ":{"ha":1081,"x_min":60,"x_max":1021,"o":"m 840 688 q 724 819 800 772 q 546 865 647 865 q 363 819 444 865 q 235 685 282 772 q 189 485 189 599 q 235 285 189 371 q 363 152 282 199 q 546 106 444 106 q 779 190 688 106 q 886 419 871 275 l 500 419 l 500 522 l 1021 522 l 1021 425 q 946 206 1010 306 q 778 49 882 107 q 546 -8 674 -8 q 300 55 411 -8 q 124 231 189 118 q 60 485 60 343 q 124 740 60 626 q 300 916 189 853 q 546 979 411 979 q 819 903 700 979 q 992 688 938 826 l 840 688 m 601 -68 q 617 -183 617 -133 q 476 -343 617 -343 l 476 -285 q 543 -207 543 -285 l 543 -182 l 476 -182 l 476 -68 l 601 -68 z "},"ģ":{"ha":939,"x_min":60,"x_max":832,"o":"m 404 828 q 389 956 389 894 q 529 1113 389 1113 l 529 1054 q 464 979 464 1054 l 464 947 l 531 947 l 531 828 l 404 828 m 421 774 q 594 731 519 774 q 704 622 668 688 l 704 761 l 832 761 l 832 -17 q 788 -202 832 -121 q 660 -329 743 -283 q 468 -375 578 -375 q 218 -304 318 -375 q 100 -111 118 -233 l 225 -111 q 311 -223 246 -181 q 468 -265 376 -265 q 638 -200 572 -265 q 704 -17 704 -135 l 704 143 q 593 32 667 76 q 421 -12 519 -12 q 237 38 319 -12 q 107 178 154 88 q 60 383 60 268 q 107 588 60 500 q 237 725 154 676 q 421 774 319 774 m 704 382 q 669 532 704 468 q 576 630 635 596 q 446 664 517 664 q 317 631 375 664 q 224 533 258 597 q 189 383 189 469 q 224 231 189 296 q 317 133 258 167 q 446 99 375 99 q 576 133 517 99 q 669 231 635 167 q 704 382 704 296 z "},"Ĩ":{"ha":342,"x_min":-33,"x_max":397,"o":"m 233 968 l 233 0 l 107 0 l 107 968 l 233 968 m -33 1044 q 13 1153 -24 1115 q 106 1190 50 1190 q 151 1181 132 1190 q 196 1156 169 1172 q 231 1134 215 1142 q 264 1126 246 1126 q 304 1142 288 1126 q 325 1186 321 1157 l 397 1186 q 351 1079 389 1117 q 258 1042 314 1042 q 212 1051 232 1042 q 167 1078 192 1060 q 131 1099 144 1092 q 100 1106 118 1106 q 60 1090 76 1106 q 40 1044 44 1075 l -33 1044 z "},"ĩ":{"ha":342,"x_min":-33,"x_max":397,"o":"m 233 761 l 233 0 l 107 0 l 107 761 l 233 761 m -33 843 q 13 951 -24 914 q 106 989 50 989 q 151 980 132 989 q 196 954 169 971 q 231 933 215 940 q 264 925 246 925 q 304 940 288 925 q 325 985 321 956 l 397 985 q 351 878 389 915 q 258 840 314 840 q 212 849 232 840 q 167 876 192 858 q 131 897 144 890 q 100 904 118 904 q 60 889 76 904 q 40 843 44 874 l -33 843 z "},"Ī":{"ha":342,"x_min":-75,"x_max":414,"o":"m 233 968 l 233 0 l 107 0 l 107 968 l 233 968 m 414 1186 l 414 1092 l -75 1092 l -75 1186 l 414 1186 z "},"ī":{"ha":342,"x_min":-75,"x_max":414,"o":"m 233 761 l 233 0 l 107 0 l 107 761 l 233 761 m 414 985 l 414 890 l -75 890 l -75 985 l 414 985 z "},"Ĭ":{"ha":342,"x_min":-28,"x_max":368,"o":"m 233 968 l 233 0 l 107 0 l 107 968 l 233 968 m 368 1218 q 316 1088 368 1139 q 171 1038 264 1038 q 25 1088 78 1038 q -28 1219 -28 1139 l -28 1243 l 47 1243 q 76 1163 47 1190 q 171 1136 106 1136 q 264 1163 235 1136 q 293 1243 293 1190 l 368 1243 l 368 1218 z "},"ĭ":{"ha":342,"x_min":-28,"x_max":368,"o":"m 233 761 l 233 0 l 107 0 l 107 761 l 233 761 m 368 1017 q 316 887 368 938 q 171 836 264 836 q 25 887 78 836 q -28 1018 -28 938 l -28 1042 l 47 1042 q 76 962 47 989 q 171 935 106 935 q 264 962 235 935 q 293 1042 293 989 l 368 1042 l 368 1017 z "},"Į":{"ha":342,"x_min":-31,"x_max":246,"o":"m 156 -200 q 246 -182 194 -200 l 246 -265 q 139 -285 190 -285 q 19 -251 68 -285 q -31 -146 -31 -217 q 107 25 -31 -46 l 107 968 l 233 968 l 233 0 l 231 0 l 157 -36 q 74 -133 74 -76 q 96 -183 74 -165 q 156 -200 118 -200 z "},"į":{"ha":342,"x_min":-31,"x_max":256,"o":"m 172 885 q 111 910 136 885 q 86 971 86 935 q 111 1032 86 1007 q 172 1057 136 1057 q 231 1032 207 1057 q 256 971 256 1007 q 231 910 256 935 q 172 885 207 885 m 74 -133 q 96 -183 74 -165 q 156 -200 118 -200 q 246 -182 194 -200 l 246 -265 q 139 -285 190 -285 q 19 -251 68 -285 q -31 -146 -31 -217 q 107 25 -31 -46 l 107 761 l 233 761 l 233 0 l 231 0 l 157 -36 q 74 -133 74 -76 z "},"İ":{"ha":342,"x_min":97,"x_max":243,"o":"m 233 968 l 233 0 l 107 0 l 107 968 l 233 968 m 171 1057 q 119 1078 140 1057 q 97 1129 97 1099 q 119 1181 97 1160 q 171 1203 140 1203 q 222 1181 201 1203 q 243 1129 243 1160 q 222 1078 243 1099 q 171 1057 201 1057 z "},"ı":{"ha":342,"x_min":107,"x_max":233,"o":"m 233 761 l 233 0 l 107 0 l 107 761 l 233 761 z "},"Ķ":{"ha":832,"x_min":107,"x_max":797,"o":"m 797 0 l 632 0 l 233 442 l 233 0 l 107 0 l 107 968 l 233 968 l 233 519 l 633 968 l 793 968 l 354 483 l 797 0 m 474 -68 q 489 -183 489 -125 q 350 -343 489 -343 l 350 -285 q 415 -207 415 -285 l 415 -182 l 349 -182 l 349 -68 l 474 -68 z "},"ķ":{"ha":715,"x_min":107,"x_max":704,"o":"m 704 0 l 532 0 l 233 336 l 233 0 l 107 0 l 107 1028 l 233 1028 l 233 424 l 526 761 l 703 761 l 344 382 l 704 0 m 419 -68 q 433 -183 433 -128 q 294 -343 433 -343 l 294 -285 q 360 -207 360 -285 l 360 -182 l 294 -182 l 294 -68 l 419 -68 z "},"Ĺ":{"ha":600,"x_min":107,"x_max":572,"o":"m 233 103 l 572 103 l 572 0 l 107 0 l 107 968 l 233 968 l 233 103 m 436 1178 l 140 1019 l 140 1114 l 436 1288 l 436 1178 z "},"ĺ":{"ha":342,"x_min":10,"x_max":306,"o":"m 233 1028 l 233 0 l 107 0 l 107 1028 l 233 1028 m 306 1243 l 10 1085 l 10 1179 l 306 1353 l 306 1243 z "},"Ļ":{"ha":600,"x_min":107,"x_max":572,"o":"m 233 103 l 572 103 l 572 0 l 107 0 l 107 968 l 233 968 l 233 103 m 399 -68 q 414 -183 414 -125 q 274 -343 414 -343 l 274 -285 q 339 -207 339 -285 l 339 -182 l 272 -182 l 272 -68 l 399 -68 z "},"ļ":{"ha":342,"x_min":104,"x_max":246,"o":"m 233 1028 l 233 0 l 107 0 l 107 1028 l 233 1028 m 231 -68 q 246 -183 246 -133 q 104 -343 246 -343 l 104 -285 q 171 -207 171 -285 l 171 -182 l 104 -182 l 104 -68 l 231 -68 z "},"Ľ":{"ha":619,"x_min":107,"x_max":572,"o":"m 233 103 l 572 103 l 572 0 l 107 0 l 107 968 l 233 968 l 233 103 m 518 968 q 533 842 533 901 q 498 722 533 761 q 393 683 463 683 l 393 743 q 443 761 428 743 q 458 818 458 779 l 458 850 l 390 850 l 390 968 l 518 968 z "},"ľ":{"ha":513,"x_min":107,"x_max":478,"o":"m 233 1028 l 233 0 l 107 0 l 107 1028 l 233 1028 m 463 1028 q 478 900 478 961 q 338 743 478 743 l 338 803 q 388 821 372 803 q 404 876 404 839 l 404 908 l 335 908 l 335 1028 l 463 1028 z "},"Ŀ":{"ha":600,"x_min":107,"x_max":572,"o":"m 107 968 l 233 968 l 233 103 l 572 103 l 572 0 l 107 0 l 107 968 m 479 449 q 427 470 449 449 q 406 522 406 492 q 427 574 406 553 q 479 594 449 594 q 531 574 510 594 q 551 522 551 553 q 531 470 551 492 q 479 449 510 449 z "},"ŀ":{"ha":410,"x_min":107,"x_max":449,"o":"m 107 1028 l 233 1028 l 233 0 l 107 0 l 107 1028 m 376 436 q 324 458 346 436 q 303 510 303 479 q 324 561 303 540 q 376 582 346 582 q 427 561 406 582 q 449 510 449 540 q 427 458 449 479 q 376 436 406 436 z "},"Ł":{"ha":607,"x_min":13,"x_max":590,"o":"m 590 97 l 590 0 l 126 0 l 126 428 l 13 388 l 13 483 l 126 525 l 126 968 l 253 968 l 253 571 l 404 625 l 404 528 l 253 474 l 253 97 l 590 97 z "},"ł":{"ha":349,"x_min":13,"x_max":336,"o":"m 336 556 l 238 517 l 238 0 l 111 0 l 111 468 l 13 429 l 13 529 l 111 567 l 111 1028 l 238 1028 l 238 617 l 336 654 l 336 556 z "},"Ń":{"ha":976,"x_min":107,"x_max":868,"o":"m 868 0 l 742 0 l 233 771 l 233 0 l 107 0 l 107 969 l 233 969 l 742 200 l 742 969 l 868 969 l 868 0 m 624 1178 l 328 1019 l 328 1114 l 624 1288 l 624 1178 z "},"ń":{"ha":889,"x_min":107,"x_max":789,"o":"m 478 775 q 703 691 617 775 q 789 449 789 607 l 789 0 l 664 0 l 664 431 q 607 605 664 544 q 451 665 550 665 q 292 603 351 665 q 233 421 233 540 l 233 0 l 107 0 l 107 761 l 233 761 l 233 653 q 335 743 271 711 q 478 775 400 775 m 582 976 l 286 818 l 286 913 l 582 1086 l 582 976 z "},"Ņ":{"ha":976,"x_min":107,"x_max":868,"o":"m 868 0 l 742 0 l 233 771 l 233 0 l 107 0 l 107 969 l 233 969 l 742 200 l 742 969 l 868 969 l 868 0 m 547 -68 q 563 -183 563 -125 q 424 -343 563 -343 l 424 -285 q 488 -207 488 -285 l 488 -182 l 422 -182 l 422 -68 l 547 -68 z "},"ņ":{"ha":889,"x_min":107,"x_max":789,"o":"m 478 775 q 703 691 617 775 q 789 449 789 607 l 789 0 l 664 0 l 664 431 q 607 605 664 544 q 451 665 550 665 q 292 603 351 665 q 233 421 233 540 l 233 0 l 107 0 l 107 761 l 233 761 l 233 653 q 335 743 271 711 q 478 775 400 775 m 506 -68 q 522 -183 522 -131 q 382 -343 522 -343 l 382 -285 q 447 -207 447 -285 l 447 -182 l 381 -182 l 381 -68 l 506 -68 z "},"Ň":{"ha":976,"x_min":107,"x_max":868,"o":"m 868 0 l 742 0 l 233 771 l 233 0 l 107 0 l 107 969 l 233 969 l 742 200 l 742 969 l 868 969 l 868 0 m 681 1144 l 489 1031 l 296 1144 l 296 1244 l 489 1126 l 681 1244 l 681 1144 z "},"ň":{"ha":889,"x_min":107,"x_max":789,"o":"m 478 775 q 703 691 617 775 q 789 449 789 607 l 789 0 l 664 0 l 664 431 q 607 605 664 544 q 451 665 550 665 q 292 603 351 665 q 233 421 233 540 l 233 0 l 107 0 l 107 761 l 233 761 l 233 653 q 335 743 271 711 q 478 775 400 775 m 639 943 l 447 829 l 254 943 l 254 1043 l 447 925 l 639 1043 l 639 943 z "},"Ō":{"ha":1092,"x_min":60,"x_max":1032,"o":"m 546 -10 q 300 53 411 -10 q 124 230 189 117 q 60 485 60 343 q 124 740 60 626 q 300 916 189 853 q 546 979 411 979 q 793 916 682 979 q 968 740 904 853 q 1032 485 1032 628 q 968 229 1032 342 q 793 53 904 117 q 546 -10 682 -10 m 546 100 q 728 147 647 100 q 856 282 810 194 q 903 485 903 369 q 856 688 903 601 q 729 822 810 775 q 546 869 649 869 q 363 822 443 869 q 235 688 282 775 q 189 485 189 601 q 235 282 189 369 q 363 147 282 194 q 546 100 444 100 m 793 1186 l 793 1092 l 304 1092 l 304 1186 l 793 1186 z "},"ō":{"ha":889,"x_min":60,"x_max":829,"o":"m 439 -12 q 245 36 332 -12 q 109 174 158 85 q 60 382 60 264 q 110 588 60 499 q 249 726 161 678 q 444 774 336 774 q 640 726 553 774 q 778 589 728 678 q 829 382 829 500 q 777 174 829 264 q 636 36 725 85 q 439 -12 547 -12 m 439 99 q 567 131 507 99 q 663 226 626 163 q 700 382 700 290 q 664 538 700 474 q 569 633 628 601 q 443 664 511 664 q 316 633 374 664 q 224 538 258 601 q 189 382 189 474 q 223 225 189 289 q 314 130 257 161 q 439 99 371 99 m 689 994 l 689 900 l 200 900 l 200 994 l 689 994 z "},"Ŏ":{"ha":1092,"x_min":60,"x_max":1032,"o":"m 546 -10 q 300 53 411 -10 q 124 230 189 117 q 60 485 60 343 q 124 740 60 626 q 300 916 189 853 q 546 979 411 979 q 793 916 682 979 q 968 740 904 853 q 1032 485 1032 628 q 968 229 1032 342 q 793 53 904 117 q 546 -10 682 -10 m 546 100 q 728 147 647 100 q 856 282 810 194 q 903 485 903 369 q 856 688 903 601 q 729 822 810 775 q 546 869 649 869 q 363 822 443 869 q 235 688 282 775 q 189 485 189 601 q 235 282 189 369 q 363 147 282 194 q 546 100 444 100 m 747 1218 q 695 1088 747 1139 q 550 1038 643 1038 q 404 1088 457 1038 q 351 1219 351 1139 l 351 1243 l 426 1243 q 456 1163 426 1190 q 550 1136 485 1136 q 643 1163 614 1136 q 672 1243 672 1190 l 747 1243 l 747 1218 z "},"ŏ":{"ha":889,"x_min":60,"x_max":829,"o":"m 439 -12 q 245 36 332 -12 q 109 174 158 85 q 60 382 60 264 q 110 588 60 499 q 249 726 161 678 q 444 774 336 774 q 640 726 553 774 q 778 589 728 678 q 829 382 829 500 q 777 174 829 264 q 636 36 725 85 q 439 -12 547 -12 m 439 99 q 567 131 507 99 q 663 226 626 163 q 700 382 700 290 q 664 538 700 474 q 569 633 628 601 q 443 664 511 664 q 316 633 374 664 q 224 538 258 601 q 189 382 189 474 q 223 225 189 289 q 314 130 257 161 q 439 99 371 99 m 643 1026 q 591 897 643 947 q 446 846 539 846 q 300 897 353 846 q 247 1028 247 947 l 247 1051 l 322 1051 q 351 972 322 999 q 446 944 381 944 q 539 972 510 944 q 568 1051 568 999 l 643 1051 l 643 1026 z "},"Ő":{"ha":1092,"x_min":60,"x_max":1032,"o":"m 546 -10 q 300 53 411 -10 q 124 230 189 117 q 60 485 60 343 q 124 740 60 626 q 300 916 189 853 q 546 979 411 979 q 793 916 682 979 q 968 740 904 853 q 1032 485 1032 628 q 968 229 1032 342 q 793 53 904 117 q 546 -10 682 -10 m 546 100 q 728 147 647 100 q 856 282 810 194 q 903 485 903 369 q 856 688 903 601 q 729 822 810 775 q 546 869 649 869 q 363 822 443 869 q 235 688 282 775 q 189 485 189 601 q 235 282 189 369 q 363 147 282 194 q 546 100 444 100 m 475 1036 l 390 1036 l 483 1250 l 596 1250 l 475 1036 m 681 1036 l 597 1036 l 697 1250 l 808 1250 l 681 1036 z "},"ő":{"ha":889,"x_min":60,"x_max":829,"o":"m 439 -12 q 245 36 332 -12 q 109 174 158 85 q 60 382 60 264 q 110 588 60 499 q 249 726 161 678 q 444 774 336 774 q 640 726 553 774 q 778 589 728 678 q 829 382 829 500 q 777 174 829 264 q 636 36 725 85 q 439 -12 547 -12 m 439 99 q 567 131 507 99 q 663 226 626 163 q 700 382 700 290 q 664 538 700 474 q 569 633 628 601 q 443 664 511 664 q 316 633 374 664 q 224 538 258 601 q 189 382 189 474 q 223 225 189 289 q 314 130 257 161 q 439 99 371 99 m 371 844 l 286 844 l 379 1058 l 492 1058 l 371 844 m 576 844 l 493 844 l 593 1058 l 704 1058 l 576 844 z "},"Œ":{"ha":1508,"x_min":60,"x_max":1422,"o":"m 1029 538 l 1381 538 l 1381 439 l 1029 439 l 1029 100 l 1422 100 l 1422 0 l 903 0 l 903 199 q 753 44 849 99 q 536 -10 658 -10 q 297 53 406 -10 q 124 230 188 117 q 60 485 60 343 q 124 740 60 628 q 297 916 188 853 q 535 979 406 979 q 753 926 657 979 q 903 775 849 874 l 903 968 l 1422 968 l 1422 869 l 1029 869 l 1029 538 m 189 485 q 235 285 189 371 q 363 151 282 199 q 546 104 444 104 q 728 151 647 104 q 856 285 810 199 q 903 485 903 371 q 856 685 903 599 q 728 819 810 772 q 546 865 647 865 q 363 819 444 865 q 235 685 282 772 q 189 485 189 599 z "},"œ":{"ha":1500,"x_min":60,"x_max":1440,"o":"m 1440 413 q 1435 338 1440 372 l 829 338 q 901 159 835 224 q 1069 94 968 94 q 1208 133 1153 94 q 1285 235 1263 171 l 1421 235 q 1299 56 1390 125 q 1069 -12 1207 -12 q 885 37 967 -12 q 761 175 804 86 q 628 37 714 86 q 439 -12 543 -12 q 244 36 331 -12 q 109 174 158 85 q 60 382 60 264 q 110 588 60 499 q 249 726 161 678 q 444 774 336 774 q 631 725 547 774 q 761 589 715 676 q 888 725 806 676 q 1075 774 969 774 q 1266 726 1183 774 q 1394 597 1349 679 q 1440 413 1440 515 m 439 94 q 567 127 507 94 q 663 225 626 160 q 699 382 699 290 q 663 538 699 474 q 569 635 628 603 q 442 667 510 667 q 316 635 374 667 q 224 538 258 603 q 189 382 189 474 q 223 224 189 289 q 314 127 257 160 q 439 94 371 94 m 1310 425 q 1278 555 1310 500 q 1191 638 1246 610 q 1069 667 1136 667 q 903 603 971 667 q 829 425 836 539 l 1310 425 z "},"Ŕ":{"ha":844,"x_min":107,"x_max":768,"o":"m 617 0 l 386 396 l 233 396 l 233 0 l 107 0 l 107 968 l 419 968 q 605 931 529 968 q 718 829 681 893 q 756 683 756 765 q 698 507 756 583 q 525 406 640 431 l 768 0 l 617 0 m 233 497 l 419 497 q 574 548 522 497 q 625 683 625 599 q 574 817 625 769 q 419 864 524 864 l 233 864 l 233 497 m 567 1178 l 271 1019 l 271 1114 l 567 1288 l 567 1178 z "},"ŕ":{"ha":518,"x_min":107,"x_max":479,"o":"m 233 638 q 328 739 267 703 q 479 775 390 775 l 479 644 l 446 644 q 233 414 233 644 l 233 0 l 107 0 l 107 761 l 233 761 l 233 638 m 456 976 l 160 818 l 160 913 l 456 1086 l 456 976 z "},"Ŗ":{"ha":844,"x_min":107,"x_max":768,"o":"m 768 0 l 617 0 l 386 396 l 233 396 l 233 0 l 107 0 l 107 968 l 419 968 q 605 931 529 968 q 718 829 681 893 q 756 683 756 765 q 698 507 756 583 q 525 406 640 431 l 768 0 m 233 497 l 419 497 q 574 548 522 497 q 625 683 625 599 q 574 817 625 769 q 419 864 524 864 l 233 864 l 233 497 m 481 -68 q 494 -183 494 -128 q 356 -343 494 -343 l 356 -285 q 421 -207 421 -285 l 421 -182 l 356 -182 l 356 -68 l 481 -68 z "},"ŗ":{"ha":518,"x_min":104,"x_max":479,"o":"m 233 638 q 328 739 267 703 q 479 775 390 775 l 479 644 l 446 644 q 233 414 233 644 l 233 0 l 107 0 l 107 761 l 233 761 l 233 638 m 229 -68 q 244 -183 244 -125 q 104 -343 244 -343 l 104 -285 q 169 -207 169 -285 l 169 -182 l 104 -182 l 104 -68 l 229 -68 z "},"Ř":{"ha":844,"x_min":107,"x_max":768,"o":"m 617 0 l 386 396 l 233 396 l 233 0 l 107 0 l 107 968 l 419 968 q 605 931 529 968 q 718 829 681 893 q 756 683 756 765 q 698 507 756 583 q 525 406 640 431 l 768 0 l 617 0 m 233 497 l 419 497 q 574 548 522 497 q 625 683 625 599 q 574 817 625 769 q 419 864 524 864 l 233 864 l 233 497 m 624 1144 l 432 1031 l 239 1144 l 239 1244 l 432 1126 l 624 1244 l 624 1144 z "},"ř":{"ha":518,"x_min":107,"x_max":513,"o":"m 233 638 q 328 739 267 703 q 479 775 390 775 l 479 644 l 446 644 q 233 414 233 644 l 233 0 l 107 0 l 107 761 l 233 761 l 233 638 m 513 943 l 321 829 l 128 943 l 128 1043 l 321 925 l 513 1043 l 513 943 z "},"Ś":{"ha":815,"x_min":79,"x_max":736,"o":"m 414 -10 q 242 24 318 -10 q 124 119 167 58 q 79 258 81 179 l 214 258 q 270 144 221 190 q 414 97 319 97 q 556 142 504 97 q 608 258 608 188 q 578 349 608 314 q 501 401 547 383 q 378 440 456 419 q 224 490 282 465 q 126 569 167 515 q 85 713 85 622 q 125 853 85 792 q 238 947 165 914 q 406 981 311 981 q 628 913 542 981 q 726 732 715 844 l 588 732 q 529 830 581 788 q 393 872 478 872 q 264 831 314 872 q 214 717 214 790 q 244 631 214 664 q 317 580 274 597 q 440 540 361 563 q 594 488 536 514 q 694 409 653 463 q 736 264 736 356 q 699 131 736 193 q 588 29 661 68 q 414 -10 514 -10 m 540 1186 l 244 1028 l 244 1122 l 540 1296 l 540 1186 z "},"ś":{"ha":725,"x_min":65,"x_max":654,"o":"m 376 -12 q 219 17 289 -12 q 110 101 150 47 q 65 224 69 154 l 196 224 q 249 131 201 167 q 375 94 297 94 q 489 126 447 94 q 531 207 531 158 q 486 281 531 257 q 349 329 442 306 q 210 374 264 351 q 119 442 157 397 q 81 561 81 488 q 115 668 81 619 q 214 745 150 717 q 360 774 278 774 q 564 710 486 774 q 647 535 642 646 l 521 535 q 473 631 517 594 q 356 667 429 667 q 247 638 288 667 q 207 561 207 608 q 231 499 207 524 q 292 460 256 475 q 394 428 329 446 q 528 384 476 406 q 616 319 579 363 q 654 207 653 276 q 619 94 654 144 q 522 16 585 44 q 376 -12 458 -12 m 497 986 l 201 828 l 201 922 l 497 1096 l 497 986 z "},"Ş":{"ha":815,"x_min":79,"x_max":736,"o":"m 736 264 q 703 140 736 199 q 608 40 671 81 q 457 -8 544 0 l 457 -87 q 588 -122 539 -86 q 636 -225 636 -158 q 589 -329 636 -290 q 467 -368 542 -368 l 307 -368 l 307 -286 l 442 -286 q 509 -272 488 -286 q 531 -225 531 -258 q 509 -179 531 -193 q 442 -165 488 -165 l 372 -165 l 372 -8 q 161 75 242 3 q 79 258 81 147 l 214 258 q 270 144 221 190 q 414 97 319 97 q 556 142 504 97 q 608 258 608 188 q 578 349 608 314 q 501 401 547 383 q 378 440 456 419 q 224 490 282 465 q 126 569 167 515 q 85 713 85 622 q 125 853 85 792 q 238 947 165 914 q 406 981 311 981 q 628 913 542 981 q 726 732 715 844 l 588 732 q 529 830 581 788 q 393 872 478 872 q 264 831 314 872 q 214 717 214 790 q 244 631 214 664 q 317 580 274 597 q 440 540 361 563 q 594 488 536 514 q 694 409 653 463 q 736 264 736 356 z "},"ş":{"ha":725,"x_min":65,"x_max":654,"o":"m 654 207 q 588 58 654 118 q 410 -11 521 -3 l 410 -81 q 540 -115 492 -79 q 589 -218 589 -151 q 542 -322 589 -283 q 419 -361 494 -361 l 260 -361 l 260 -279 l 394 -279 q 462 -265 440 -279 q 483 -218 483 -251 q 462 -172 483 -186 q 394 -158 440 -158 l 325 -158 l 325 -10 q 142 67 213 3 q 65 224 71 131 l 196 224 q 249 131 201 167 q 375 94 297 94 q 489 126 447 94 q 531 207 531 158 q 486 281 531 257 q 349 329 442 306 q 210 374 264 351 q 119 442 157 397 q 81 561 81 488 q 115 668 81 619 q 214 745 150 717 q 360 774 278 774 q 564 710 486 774 q 647 535 642 646 l 521 535 q 473 631 517 594 q 356 667 429 667 q 247 638 288 667 q 207 561 207 608 q 231 499 207 524 q 292 460 256 475 q 394 428 329 446 q 528 384 476 406 q 616 319 579 363 q 654 207 653 276 z "},"Š":{"ha":815,"x_min":79,"x_max":736,"o":"m 414 -10 q 242 24 318 -10 q 124 119 167 58 q 79 258 81 179 l 214 258 q 270 144 221 190 q 414 97 319 97 q 556 142 504 97 q 608 258 608 188 q 578 349 608 314 q 501 401 547 383 q 378 440 456 419 q 224 490 282 465 q 126 569 167 515 q 85 713 85 622 q 125 853 85 792 q 238 947 165 914 q 406 981 311 981 q 628 913 542 981 q 726 732 715 844 l 588 732 q 529 830 581 788 q 393 872 478 872 q 264 831 314 872 q 214 717 214 790 q 244 631 214 664 q 317 580 274 597 q 440 540 361 563 q 594 488 536 514 q 694 409 653 463 q 736 264 736 356 q 699 131 736 193 q 588 29 661 68 q 414 -10 514 -10 m 596 1153 l 404 1039 l 211 1153 l 211 1253 l 404 1135 l 596 1253 l 596 1153 z "},"š":{"ha":725,"x_min":65,"x_max":654,"o":"m 376 -12 q 219 17 289 -12 q 110 101 150 47 q 65 224 69 154 l 196 224 q 249 131 201 167 q 375 94 297 94 q 489 126 447 94 q 531 207 531 158 q 486 281 531 257 q 349 329 442 306 q 210 374 264 351 q 119 442 157 397 q 81 561 81 488 q 115 668 81 619 q 214 745 150 717 q 360 774 278 774 q 564 710 486 774 q 647 535 642 646 l 521 535 q 473 631 517 594 q 356 667 429 667 q 247 638 288 667 q 207 561 207 608 q 231 499 207 524 q 292 460 256 475 q 394 428 329 446 q 528 384 476 406 q 616 319 579 363 q 654 207 653 276 q 619 94 654 144 q 522 16 585 44 q 376 -12 458 -12 m 554 953 l 363 839 l 169 953 l 169 1053 l 363 935 l 554 1053 l 554 953 z "},"Ţ":{"ha":751,"x_min":47,"x_max":703,"o":"m 419 0 l 419 -81 q 550 -115 501 -79 q 599 -218 599 -151 q 551 -322 599 -283 q 429 -361 504 -361 l 269 -361 l 269 -279 l 404 -279 q 472 -265 450 -279 q 493 -218 493 -251 q 472 -172 493 -186 q 404 -158 450 -158 l 335 -158 l 335 0 l 313 0 l 313 865 l 47 865 l 47 968 l 703 968 l 703 865 l 439 865 l 439 0 l 419 0 z "},"ţ":{"ha":506,"x_min":36,"x_max":494,"o":"m 315 -81 q 446 -115 397 -79 q 494 -218 494 -151 q 447 -322 494 -283 q 325 -361 400 -361 l 165 -361 l 165 -279 l 300 -279 q 367 -265 346 -279 q 389 -218 389 -251 q 367 -172 389 -186 q 300 -158 346 -158 l 229 -158 l 229 21 q 135 208 135 64 l 135 657 l 36 657 l 36 761 l 135 761 l 135 953 l 261 953 l 261 761 l 460 761 l 460 657 l 261 657 l 261 208 q 285 130 261 153 q 367 107 308 107 l 460 107 l 460 0 l 346 0 q 315 1 325 0 l 315 -81 z "},"Ť":{"ha":751,"x_min":47,"x_max":703,"o":"m 703 968 l 703 865 l 439 865 l 439 0 l 313 0 l 313 865 l 47 865 l 47 968 l 703 968 m 568 1144 l 376 1031 l 183 1144 l 183 1244 l 376 1126 l 568 1244 l 568 1144 z "},"ť":{"ha":510,"x_min":36,"x_max":507,"o":"m 490 1074 q 507 956 507 1001 q 472 853 507 885 q 365 821 436 821 l 365 879 q 416 891 400 879 q 432 929 432 903 l 432 954 l 364 954 l 364 1074 l 490 1074 m 261 761 l 460 761 l 460 657 l 261 657 l 261 208 q 285 130 261 153 q 367 107 308 107 l 460 107 l 460 0 l 346 0 q 188 49 240 0 q 135 208 135 97 l 135 657 l 36 657 l 36 761 l 135 761 l 135 953 l 261 953 l 261 761 z "},"Ũ":{"ha":938,"x_min":104,"x_max":833,"o":"m 231 968 l 231 356 q 294 164 231 226 q 469 101 357 101 q 644 164 581 101 q 707 356 707 226 l 707 968 l 833 968 l 833 357 q 785 153 833 236 q 653 31 736 71 q 468 -10 571 -10 q 283 31 365 -10 q 152 153 200 71 q 104 357 104 236 l 104 968 l 231 968 m 264 1044 q 310 1153 274 1115 q 403 1190 347 1190 q 448 1181 429 1190 q 493 1156 467 1172 q 528 1134 513 1142 q 561 1126 543 1126 q 601 1142 585 1126 q 622 1186 618 1157 l 694 1186 q 649 1079 686 1117 q 556 1042 611 1042 q 509 1051 529 1042 q 464 1078 489 1060 q 428 1099 442 1092 q 397 1106 415 1106 q 358 1090 374 1106 q 338 1044 342 1075 l 264 1044 z "},"ũ":{"ha":889,"x_min":100,"x_max":782,"o":"m 782 761 l 782 0 l 656 0 l 656 113 q 555 22 619 54 q 413 -11 490 -11 q 253 26 324 -11 q 141 136 182 63 q 100 315 100 210 l 100 761 l 225 761 l 225 332 q 282 159 225 219 q 438 99 339 99 q 597 161 539 99 q 656 343 656 224 l 656 761 l 782 761 m 242 843 q 288 951 251 914 q 381 989 325 989 q 426 980 407 989 q 471 954 444 971 q 506 933 490 940 q 539 925 521 925 q 579 940 563 925 q 600 985 596 956 l 672 985 q 626 878 664 915 q 533 840 589 840 q 487 849 507 840 q 442 876 467 858 q 406 897 419 890 q 375 904 393 904 q 335 889 351 904 q 315 843 319 874 l 242 843 z "},"Ū":{"ha":938,"x_min":104,"x_max":833,"o":"m 231 968 l 231 356 q 294 164 231 226 q 469 101 357 101 q 644 164 581 101 q 707 356 707 226 l 707 968 l 833 968 l 833 357 q 785 153 833 236 q 653 31 736 71 q 468 -10 571 -10 q 283 31 365 -10 q 152 153 200 71 q 104 357 104 236 l 104 968 l 231 968 m 713 1186 l 713 1092 l 224 1092 l 224 1186 l 713 1186 z "},"ū":{"ha":889,"x_min":100,"x_max":782,"o":"m 782 761 l 782 0 l 656 0 l 656 113 q 555 22 619 54 q 413 -11 490 -11 q 253 26 324 -11 q 141 136 182 63 q 100 315 100 210 l 100 761 l 225 761 l 225 332 q 282 159 225 219 q 438 99 339 99 q 597 161 539 99 q 656 343 656 224 l 656 761 l 782 761 m 689 985 l 689 890 l 200 890 l 200 985 l 689 985 z "},"Ŭ":{"ha":938,"x_min":104,"x_max":833,"o":"m 231 968 l 231 356 q 294 164 231 226 q 469 101 357 101 q 644 164 581 101 q 707 356 707 226 l 707 968 l 833 968 l 833 357 q 785 153 833 236 q 653 31 736 71 q 468 -10 571 -10 q 283 31 365 -10 q 152 153 200 71 q 104 357 104 236 l 104 968 l 231 968 m 667 1218 q 615 1088 667 1139 q 469 1038 563 1038 q 324 1088 376 1038 q 271 1219 271 1139 l 271 1243 l 346 1243 q 375 1163 346 1190 q 469 1136 404 1136 q 563 1163 533 1136 q 592 1243 592 1190 l 667 1243 l 667 1218 z "},"ŭ":{"ha":889,"x_min":100,"x_max":782,"o":"m 782 761 l 782 0 l 656 0 l 656 113 q 555 22 619 54 q 413 -11 490 -11 q 253 26 324 -11 q 141 136 182 63 q 100 315 100 210 l 100 761 l 225 761 l 225 332 q 282 159 225 219 q 438 99 339 99 q 597 161 539 99 q 656 343 656 224 l 656 761 l 782 761 m 643 1017 q 591 887 643 938 q 446 836 539 836 q 300 887 353 836 q 247 1018 247 938 l 247 1042 l 322 1042 q 351 962 322 989 q 446 935 381 935 q 539 962 510 935 q 568 1042 568 989 l 643 1042 l 643 1017 z "},"Ů":{"ha":938,"x_min":104,"x_max":833,"o":"m 231 968 l 231 356 q 294 164 231 226 q 469 101 357 101 q 644 164 581 101 q 707 356 707 226 l 707 968 l 833 968 l 833 357 q 785 153 833 236 q 653 31 736 71 q 468 -10 571 -10 q 283 31 365 -10 q 152 153 200 71 q 104 357 104 236 l 104 968 l 231 968 m 618 1190 q 576 1084 618 1124 q 469 1044 533 1044 q 364 1085 407 1044 q 321 1190 321 1125 q 364 1296 321 1256 q 469 1336 407 1336 q 576 1297 533 1336 q 618 1190 618 1257 m 544 1192 q 523 1248 544 1226 q 469 1269 501 1269 q 416 1248 438 1269 q 394 1192 394 1226 q 416 1135 394 1157 q 469 1113 438 1113 q 523 1135 501 1113 q 544 1192 544 1157 z "},"ů":{"ha":889,"x_min":100,"x_max":782,"o":"m 782 761 l 782 0 l 656 0 l 656 113 q 555 22 619 54 q 413 -11 490 -11 q 253 26 324 -11 q 141 136 182 63 q 100 315 100 210 l 100 761 l 225 761 l 225 332 q 282 159 225 219 q 438 99 339 99 q 597 161 539 99 q 656 343 656 224 l 656 761 l 782 761 m 594 989 q 552 883 594 922 q 446 843 510 843 q 340 883 383 843 q 297 989 297 924 q 340 1094 297 1054 q 446 1135 383 1135 q 552 1095 510 1135 q 594 989 594 1056 m 521 990 q 499 1047 521 1025 q 446 1068 478 1068 q 392 1047 414 1068 q 371 990 371 1025 q 392 933 371 956 q 446 911 414 911 q 499 933 478 911 q 521 990 521 956 z "},"Ű":{"ha":938,"x_min":104,"x_max":833,"o":"m 231 968 l 231 356 q 294 164 231 226 q 469 101 357 101 q 644 164 581 101 q 707 356 707 226 l 707 968 l 833 968 l 833 357 q 785 153 833 236 q 653 31 736 71 q 468 -10 571 -10 q 283 31 365 -10 q 152 153 200 71 q 104 357 104 236 l 104 968 l 231 968 m 394 1036 l 310 1036 l 403 1250 l 515 1250 l 394 1036 m 600 1036 l 517 1036 l 617 1250 l 728 1250 l 600 1036 z "},"ű":{"ha":889,"x_min":100,"x_max":782,"o":"m 782 761 l 782 0 l 656 0 l 656 113 q 555 22 619 54 q 413 -11 490 -11 q 253 26 324 -11 q 141 136 182 63 q 100 315 100 210 l 100 761 l 225 761 l 225 332 q 282 159 225 219 q 438 99 339 99 q 597 161 539 99 q 656 343 656 224 l 656 761 l 782 761 m 371 835 l 286 835 l 379 1049 l 492 1049 l 371 835 m 576 835 l 493 835 l 593 1049 l 704 1049 l 576 835 z "},"Ų":{"ha":938,"x_min":104,"x_max":833,"o":"m 833 968 l 833 357 q 760 117 833 207 q 567 0 688 26 l 490 -37 q 407 -135 407 -78 q 429 -184 407 -167 q 489 -201 451 -201 q 579 -183 528 -201 l 579 -267 q 472 -286 524 -286 q 352 -252 401 -286 q 303 -147 303 -218 q 393 -4 303 -65 q 183 108 263 17 q 104 357 104 200 l 104 968 l 231 968 l 231 356 q 294 164 231 226 q 469 101 357 101 q 644 164 581 101 q 707 356 707 226 l 707 968 l 833 968 z "},"ų":{"ha":889,"x_min":100,"x_max":794,"o":"m 704 -203 q 794 -185 743 -203 l 794 -268 q 688 -287 739 -287 q 567 -253 617 -287 q 518 -149 518 -219 q 656 22 518 -49 l 656 113 q 555 22 619 54 q 413 -11 490 -11 q 253 26 324 -11 q 141 136 182 63 q 100 315 100 210 l 100 761 l 225 761 l 225 332 q 282 159 225 219 q 438 99 339 99 q 597 161 539 99 q 656 343 656 224 l 656 761 l 782 761 l 782 0 l 781 0 l 782 -1 l 706 -39 q 622 -136 622 -79 q 644 -185 622 -168 q 704 -203 667 -203 z "},"Ŵ":{"ha":1356,"x_min":32,"x_max":1324,"o":"m 1324 968 l 1043 0 l 901 0 l 676 779 l 443 0 l 303 -1 l 32 968 l 167 968 l 378 147 l 611 968 l 753 968 l 975 150 l 1188 968 l 1324 968 m 674 1160 l 481 1042 l 481 1142 l 674 1257 l 865 1142 l 865 1042 l 674 1160 z "},"ŵ":{"ha":1139,"x_min":17,"x_max":1121,"o":"m 1121 761 l 883 0 l 753 0 l 569 604 l 386 0 l 256 0 l 17 761 l 146 761 l 321 122 l 510 761 l 639 761 l 824 121 l 996 761 l 1121 761 m 571 947 l 378 829 l 378 929 l 571 1044 l 763 929 l 763 829 l 571 947 z "},"Ŷ":{"ha":811,"x_min":26,"x_max":785,"o":"m 785 968 l 469 365 l 469 0 l 343 0 l 343 365 l 26 968 l 167 968 l 406 478 l 644 968 l 785 968 m 407 1149 l 214 1031 l 214 1131 l 407 1246 l 599 1131 l 599 1031 l 407 1149 z "},"ŷ":{"ha":782,"x_min":17,"x_max":763,"o":"m 763 761 l 304 -358 l 174 -358 l 324 8 l 17 761 l 157 761 l 396 144 l 632 761 l 763 761 m 392 947 l 199 829 l 199 929 l 392 1044 l 583 929 l 583 829 l 392 947 z "},"Ÿ":{"ha":811,"x_min":26,"x_max":785,"o":"m 785 968 l 469 365 l 469 0 l 343 0 l 343 365 l 26 968 l 167 968 l 406 478 l 644 968 l 785 968 m 294 1065 q 242 1086 264 1065 q 221 1138 221 1107 q 242 1190 221 1168 q 294 1211 264 1211 q 345 1190 324 1211 q 367 1138 367 1168 q 345 1086 367 1107 q 294 1065 324 1065 m 519 1065 q 468 1086 489 1065 q 447 1138 447 1107 q 468 1190 447 1168 q 519 1211 489 1211 q 572 1190 550 1211 q 593 1138 593 1168 q 572 1086 593 1107 q 519 1065 550 1065 z "},"Ź":{"ha":751,"x_min":64,"x_max":686,"o":"m 214 110 l 686 110 l 686 0 l 64 0 l 64 100 l 533 858 l 69 858 l 69 968 l 683 968 l 683 868 l 214 110 m 511 1178 l 215 1019 l 215 1114 l 511 1288 l 511 1178 z "},"ź":{"ha":632,"x_min":57,"x_max":575,"o":"m 201 104 l 575 104 l 575 0 l 57 0 l 57 104 l 426 658 l 60 658 l 60 761 l 572 761 l 572 658 l 201 104 m 453 976 l 157 818 l 157 913 l 453 1086 l 453 976 z "},"Ż":{"ha":751,"x_min":64,"x_max":686,"o":"m 214 110 l 686 110 l 686 0 l 64 0 l 64 100 l 533 858 l 69 858 l 69 968 l 683 968 l 683 868 l 214 110 m 376 1057 q 324 1078 346 1057 q 303 1129 303 1099 q 324 1181 303 1160 q 376 1203 346 1203 q 428 1181 407 1203 q 449 1129 449 1160 q 428 1078 449 1099 q 376 1057 407 1057 z "},"ż":{"ha":632,"x_min":57,"x_max":575,"o":"m 201 104 l 575 104 l 575 0 l 57 0 l 57 104 l 426 658 l 60 658 l 60 761 l 572 761 l 572 658 l 201 104 m 318 857 q 266 878 288 857 q 244 929 244 899 q 266 981 244 960 q 318 1003 288 1003 q 369 981 349 1003 q 390 929 390 960 q 369 878 390 899 q 318 857 349 857 z "},"Ž":{"ha":751,"x_min":64,"x_max":686,"o":"m 214 110 l 686 110 l 686 0 l 64 0 l 64 100 l 533 858 l 69 858 l 69 968 l 683 968 l 683 868 l 214 110 m 568 1144 l 376 1031 l 183 1144 l 183 1244 l 376 1126 l 568 1244 l 568 1144 z "},"ž":{"ha":632,"x_min":57,"x_max":575,"o":"m 201 104 l 575 104 l 575 0 l 57 0 l 57 104 l 426 658 l 60 658 l 60 761 l 572 761 l 572 658 l 201 104 m 510 943 l 318 829 l 125 943 l 125 1043 l 318 925 l 510 1043 l 510 943 z "},"Ə":{"ha":1092,"x_min":94,"x_max":1011,"o":"m 549 979 q 789 917 683 979 q 953 742 894 854 q 1011 485 1011 629 q 953 227 1011 339 q 790 53 896 115 q 547 -10 685 -10 q 311 44 414 -10 q 151 200 208 97 q 94 446 94 303 q 99 532 94 486 l 874 532 q 826 706 869 631 q 711 824 783 782 q 549 865 639 865 q 360 813 440 865 q 249 667 281 760 l 103 667 q 267 895 149 811 q 549 979 385 979 m 547 104 q 708 141 636 104 q 824 248 781 178 q 874 414 868 318 l 226 414 q 267 252 226 322 q 380 143 307 182 q 547 104 453 104 z "},"ƒ":{"ha":461,"x_min":-67,"x_max":450,"o":"m 440 960 q 322 929 360 960 q 276 826 283 899 l 269 761 l 429 761 l 419 658 l 258 658 l 181 -79 q 118 -228 171 -182 q -33 -274 65 -274 l -67 -274 l -57 -169 l -31 -169 q 29 -149 10 -169 q 54 -79 49 -129 l 132 658 l 35 658 l 44 761 l 143 761 l 150 826 q 237 1008 164 951 q 450 1065 310 1065 l 440 960 z "},"Ǽ":{"ha":1250,"x_min":17,"x_max":1164,"o":"m 772 869 l 772 538 l 1122 538 l 1122 440 l 772 440 l 772 100 l 1164 100 l 1164 0 l 646 0 l 646 215 l 275 215 l 154 0 l 17 0 l 565 969 l 1164 969 l 1164 869 l 772 869 m 646 314 l 646 874 l 331 314 l 646 314 m 913 1186 l 617 1028 l 617 1122 l 913 1296 l 913 1186 z "},"ǽ":{"ha":1528,"x_min":60,"x_max":1465,"o":"m 1465 413 q 1460 338 1465 372 l 833 338 q 878 205 840 260 q 971 122 915 150 q 1088 94 1026 94 q 1235 133 1176 94 q 1313 235 1293 171 l 1449 235 q 1329 56 1418 125 q 1108 -12 1240 -12 q 937 31 1015 -12 q 818 147 858 74 l 818 0 l 708 0 l 708 146 q 592 31 667 75 q 421 -12 517 -12 q 237 38 319 -12 q 107 178 154 88 q 60 383 60 268 q 108 588 60 500 q 239 725 156 676 q 428 774 322 774 q 594 734 521 774 q 713 621 667 694 l 713 761 l 818 761 l 818 621 q 1108 774 917 774 q 1295 726 1214 774 q 1421 595 1376 678 q 1465 413 1465 513 m 1335 429 q 1302 556 1335 503 q 1213 638 1269 610 q 1089 667 1157 667 q 916 603 989 667 q 833 429 843 539 l 1335 429 m 446 99 q 576 133 517 99 q 669 231 635 167 q 704 382 704 296 q 669 532 704 468 q 576 630 635 596 q 446 664 517 664 q 317 631 375 664 q 224 533 258 597 q 189 383 189 469 q 224 231 189 296 q 317 133 258 167 q 446 99 375 99 m 1001 976 l 706 818 l 706 913 l 1001 1086 l 1001 976 z "},"Ș":{"ha":815,"x_min":79,"x_max":736,"o":"m 414 -10 q 242 24 318 -10 q 124 119 167 58 q 79 258 81 179 l 214 258 q 270 144 221 190 q 414 97 319 97 q 556 142 504 97 q 608 258 608 188 q 578 349 608 314 q 501 401 547 383 q 378 440 456 419 q 224 490 282 465 q 126 569 167 515 q 85 713 85 622 q 125 853 85 792 q 238 947 165 914 q 406 981 311 981 q 628 913 542 981 q 726 732 715 844 l 588 732 q 529 830 581 788 q 393 872 478 872 q 264 831 314 872 q 214 717 214 790 q 244 631 214 664 q 317 580 274 597 q 440 540 361 563 q 594 488 536 514 q 694 409 653 463 q 736 264 736 356 q 699 131 736 193 q 588 29 661 68 q 414 -10 514 -10 m 476 -68 q 492 -183 492 -125 q 351 -343 492 -343 l 351 -285 q 417 -207 417 -285 l 417 -182 l 351 -182 l 351 -68 l 476 -68 z "},"ș":{"ha":725,"x_min":65,"x_max":654,"o":"m 376 -12 q 219 17 289 -12 q 110 101 150 47 q 65 224 69 154 l 196 224 q 249 131 201 167 q 375 94 297 94 q 489 126 447 94 q 531 207 531 158 q 486 281 531 257 q 349 329 442 306 q 210 374 264 351 q 119 442 157 397 q 81 561 81 488 q 115 668 81 619 q 214 745 150 717 q 360 774 278 774 q 564 710 486 774 q 647 535 642 646 l 521 535 q 473 631 517 594 q 356 667 429 667 q 247 638 288 667 q 207 561 207 608 q 231 499 207 524 q 292 460 256 475 q 394 428 329 446 q 528 384 476 406 q 616 319 579 363 q 654 207 653 276 q 619 94 654 144 q 522 16 585 44 q 376 -12 458 -12 m 429 -68 q 444 -183 444 -133 q 304 -343 444 -343 l 304 -285 q 369 -207 369 -285 l 369 -182 l 304 -182 l 304 -68 l 429 -68 z "},"Ț":{"ha":751,"x_min":47,"x_max":703,"o":"m 703 968 l 703 865 l 439 865 l 439 0 l 313 0 l 313 865 l 47 865 l 47 968 l 703 968 m 435 -68 q 449 -183 449 -128 q 310 -343 449 -343 l 310 -285 q 375 -207 375 -285 l 375 -182 l 310 -182 l 310 -68 l 435 -68 z "},"ț":{"ha":506,"x_min":36,"x_max":460,"o":"m 261 657 l 261 208 q 285 130 261 153 q 367 107 308 107 l 460 107 l 460 0 l 346 0 q 188 49 240 0 q 135 208 135 97 l 135 657 l 36 657 l 36 761 l 135 761 l 135 953 l 261 953 l 261 761 l 460 761 l 460 657 l 261 657 m 324 -68 q 339 -183 339 -125 q 303 -304 339 -265 q 199 -343 268 -343 l 199 -285 q 265 -207 265 -285 l 265 -182 l 199 -182 l 199 -68 l 324 -68 z "},"ə":{"ha":861,"x_min":60,"x_max":801,"o":"m 425 774 q 619 725 533 774 q 753 587 704 676 q 801 379 801 497 q 754 172 801 261 q 622 35 707 83 q 425 -12 536 -12 q 233 35 317 -12 q 105 165 150 82 q 60 351 60 247 q 64 428 60 389 l 672 428 q 595 603 665 540 q 425 667 525 667 q 288 628 343 667 q 211 526 233 590 l 75 526 q 197 705 106 636 q 425 774 289 774 m 431 94 q 594 156 526 94 q 671 325 661 217 l 190 325 q 222 201 190 253 q 309 122 254 149 q 431 94 364 94 z "},"ʼ":{"ha":304,"x_min":44,"x_max":267,"o":"m 126 968 l 267 968 l 133 653 l 44 653 l 126 968 z "},"ˆ":{"ha":432,"x_min":24,"x_max":408,"o":"m 217 947 l 24 829 l 24 929 l 217 1044 l 408 929 l 408 829 l 217 947 z "},"ˇ":{"ha":432,"x_min":24,"x_max":408,"o":"m 408 943 l 217 829 l 24 943 l 24 1043 l 217 925 l 408 1043 l 408 943 z "},"ˉ":{"ha":538,"x_min":24,"x_max":513,"o":"m 513 985 l 513 890 l 24 890 l 24 985 l 513 985 z "},"˘":{"ha":444,"x_min":24,"x_max":419,"o":"m 419 1017 q 367 887 419 938 q 222 836 315 836 q 76 887 129 836 q 24 1018 24 938 l 24 1042 l 99 1042 q 128 962 99 989 q 222 935 157 935 q 315 962 286 935 q 344 1042 344 989 l 419 1042 l 419 1017 z "},"˙":{"ha":199,"x_min":26,"x_max":172,"o":"m 100 864 q 48 885 69 864 q 26 936 26 906 q 48 988 26 967 q 100 1010 69 1010 q 151 988 131 1010 q 172 936 172 967 q 151 885 172 906 q 100 864 131 864 z "},"˚":{"ha":338,"x_min":21,"x_max":318,"o":"m 318 989 q 276 883 318 922 q 169 843 233 843 q 64 883 107 843 q 21 989 21 924 q 64 1094 21 1054 q 169 1135 107 1135 q 276 1095 233 1135 q 318 989 318 1056 m 244 990 q 223 1047 244 1025 q 169 1068 201 1068 q 116 1047 138 1068 q 94 990 94 1025 q 116 933 94 956 q 169 911 138 911 q 223 933 201 911 q 244 990 244 956 z "},"˛":{"ha":335,"x_min":28,"x_max":304,"o":"m 292 0 l 215 -37 q 132 -135 132 -78 q 154 -184 132 -167 q 214 -201 176 -201 q 304 -183 253 -201 l 304 -267 q 197 -286 249 -286 q 77 -252 126 -286 q 28 -147 28 -218 q 66 -49 28 -94 q 190 36 104 -4 l 258 65 l 292 0 z "},"˜":{"ha":479,"x_min":24,"x_max":454,"o":"m 24 843 q 70 951 33 914 q 163 989 107 989 q 208 980 189 989 q 253 954 226 971 q 288 933 272 940 q 321 925 303 925 q 361 940 344 925 q 382 985 378 956 l 454 985 q 408 878 446 915 q 315 840 371 840 q 269 849 289 840 q 224 876 249 858 q 188 897 201 890 q 157 904 175 904 q 117 889 133 904 q 97 843 101 874 l 24 843 z "},"˝":{"ha":478,"x_min":24,"x_max":442,"o":"m 108 835 l 24 835 l 117 1049 l 229 1049 l 108 835 m 314 835 l 231 835 l 331 1049 l 442 1049 l 314 835 z "},"π":{"ha":986,"x_min":54,"x_max":926,"o":"m 926 761 l 926 663 l 815 663 l 815 0 l 690 0 l 690 663 l 290 663 l 290 0 l 164 0 l 164 663 l 54 663 l 54 761 l 926 761 z "},"Ẁ":{"ha":1356,"x_min":32,"x_max":1324,"o":"m 1324 968 l 1043 0 l 901 0 l 676 779 l 443 0 l 303 -1 l 32 968 l 167 968 l 378 147 l 611 968 l 753 968 l 975 150 l 1188 968 l 1324 968 m 750 1121 l 750 1026 l 454 1185 l 454 1294 l 750 1121 z "},"ẁ":{"ha":1139,"x_min":17,"x_max":1121,"o":"m 1121 761 l 883 0 l 753 0 l 569 604 l 386 0 l 256 0 l 17 761 l 146 761 l 321 122 l 510 761 l 639 761 l 824 121 l 996 761 l 1121 761 m 632 913 l 632 818 l 336 976 l 336 1086 l 632 913 z "},"Ẃ":{"ha":1356,"x_min":32,"x_max":1324,"o":"m 1324 968 l 1043 0 l 901 0 l 676 779 l 443 0 l 303 -1 l 32 968 l 167 968 l 378 147 l 611 968 l 753 968 l 975 150 l 1188 968 l 1324 968 m 910 1189 l 614 1031 l 614 1125 l 910 1299 l 910 1189 z "},"ẃ":{"ha":1139,"x_min":17,"x_max":1121,"o":"m 1121 761 l 883 0 l 753 0 l 569 604 l 386 0 l 256 0 l 17 761 l 146 761 l 321 122 l 510 761 l 639 761 l 824 121 l 996 761 l 1121 761 m 804 976 l 508 818 l 508 913 l 804 1086 l 804 976 z "},"Ẅ":{"ha":1356,"x_min":32,"x_max":1324,"o":"m 1324 968 l 1043 0 l 901 0 l 676 779 l 443 0 l 303 -1 l 32 968 l 167 968 l 378 147 l 611 968 l 753 968 l 975 150 l 1188 968 l 1324 968 m 561 1074 q 509 1094 531 1074 q 488 1146 488 1115 q 509 1198 488 1176 q 561 1219 531 1219 q 612 1198 590 1219 q 633 1146 633 1176 q 612 1094 633 1115 q 561 1074 590 1074 m 786 1074 q 735 1094 756 1074 q 714 1146 714 1115 q 735 1198 714 1176 q 786 1219 756 1219 q 838 1198 817 1219 q 860 1146 860 1176 q 838 1094 860 1115 q 786 1074 817 1074 z "},"ẅ":{"ha":1139,"x_min":17,"x_max":1121,"o":"m 1121 761 l 883 0 l 753 0 l 569 604 l 386 0 l 256 0 l 17 761 l 146 761 l 321 122 l 510 761 l 639 761 l 824 121 l 996 761 l 1121 761 m 457 864 q 405 885 426 864 q 383 936 383 906 q 405 988 383 967 q 457 1010 426 1010 q 508 988 486 1010 q 529 936 529 967 q 508 885 529 906 q 457 864 486 864 m 682 864 q 631 885 651 864 q 610 936 610 906 q 631 988 610 967 q 682 1010 651 1010 q 734 988 713 1010 q 756 936 756 967 q 734 885 756 906 q 682 864 713 864 z "},"Ẽ":{"ha":713,"x_min":107,"x_max":628,"o":"m 233 865 l 233 542 l 586 542 l 586 438 l 233 438 l 233 104 l 628 104 l 628 0 l 107 0 l 107 969 l 628 969 l 628 865 l 233 865 m 150 1044 q 197 1153 160 1115 q 289 1190 233 1190 q 334 1181 315 1190 q 379 1156 353 1172 q 414 1134 399 1142 q 447 1126 429 1126 q 488 1142 471 1126 q 508 1186 504 1157 l 581 1186 q 535 1079 572 1117 q 442 1042 497 1042 q 395 1051 415 1042 q 350 1078 375 1060 q 315 1099 328 1092 q 283 1106 301 1106 q 244 1090 260 1106 q 224 1044 228 1075 l 150 1044 z "},"ẽ":{"ha":861,"x_min":60,"x_max":801,"o":"m 801 410 q 797 333 801 374 l 189 333 q 266 158 196 221 q 436 94 336 94 q 573 133 518 94 q 650 235 628 171 l 786 235 q 664 56 756 125 q 436 -12 572 -12 q 242 36 328 -12 q 108 174 157 85 q 60 382 60 264 q 107 589 60 500 q 240 726 154 678 q 436 774 325 774 q 628 726 544 774 q 756 597 711 679 q 801 410 801 514 m 671 436 q 639 560 671 508 q 552 640 607 613 q 431 667 497 667 q 267 606 335 667 q 190 436 200 544 l 671 436 m 226 843 q 273 951 236 914 q 365 989 310 989 q 410 980 392 989 q 456 954 429 971 q 490 933 475 940 q 524 925 506 925 q 564 940 547 925 q 585 985 581 956 l 657 985 q 611 878 649 915 q 518 840 574 840 q 472 849 492 840 q 426 876 451 858 q 391 897 404 890 q 360 904 378 904 q 320 889 336 904 q 300 843 304 874 l 226 843 z "},"Ỳ":{"ha":811,"x_min":26,"x_max":785,"o":"m 785 968 l 469 365 l 469 0 l 343 0 l 343 365 l 26 968 l 167 968 l 406 478 l 644 968 l 785 968 m 542 1114 l 542 1019 l 246 1178 l 246 1288 l 542 1114 z "},"ỳ":{"ha":782,"x_min":17,"x_max":763,"o":"m 763 761 l 304 -358 l 174 -358 l 324 8 l 17 761 l 157 761 l 396 144 l 632 761 l 763 761 m 526 913 l 526 818 l 231 976 l 231 1086 l 526 913 z "},"Ỹ":{"ha":811,"x_min":26,"x_max":785,"o":"m 785 968 l 469 365 l 469 0 l 343 0 l 343 365 l 26 968 l 167 968 l 406 478 l 644 968 l 785 968 m 203 1044 q 249 1153 213 1115 q 342 1190 286 1190 q 387 1181 368 1190 q 432 1156 406 1172 q 467 1134 451 1142 q 500 1126 482 1126 q 540 1142 524 1126 q 561 1186 557 1157 l 633 1186 q 588 1079 625 1117 q 494 1042 550 1042 q 448 1051 468 1042 q 403 1078 428 1060 q 367 1099 381 1092 q 336 1106 354 1106 q 297 1090 313 1106 q 276 1044 281 1075 l 203 1044 z "},"ỹ":{"ha":782,"x_min":17,"x_max":763,"o":"m 763 761 l 304 -358 l 174 -358 l 324 8 l 17 761 l 157 761 l 396 144 l 632 761 l 763 761 m 188 843 q 234 951 197 914 q 326 989 271 989 q 372 980 353 989 q 417 954 390 971 q 451 933 436 940 q 485 925 467 925 q 525 940 508 925 q 546 985 542 956 l 618 985 q 572 878 610 915 q 479 840 535 840 q 433 849 453 840 q 388 876 413 858 q 352 897 365 890 q 321 904 339 904 q 281 889 297 904 q 261 843 265 874 l 188 843 z "},"–":{"ha":940,"x_min":106,"x_max":836,"o":"m 836 563 l 836 456 l 106 456 l 106 563 l 836 563 z "},"—":{"ha":1229,"x_min":106,"x_max":1124,"o":"m 1124 563 l 1124 456 l 106 456 l 106 563 l 1124 563 z "},"‘":{"ha":304,"x_min":33,"x_max":257,"o":"m 175 653 l 33 653 l 167 968 l 257 968 l 175 653 z "},"’":{"ha":304,"x_min":44,"x_max":267,"o":"m 126 968 l 267 968 l 133 653 l 44 653 l 126 968 z "},"‚":{"ha":258,"x_min":-3,"x_max":221,"o":"m 81 160 l 221 160 l 88 -156 l -3 -156 l 81 160 z "},"“":{"ha":528,"x_min":33,"x_max":482,"o":"m 175 653 l 33 653 l 167 968 l 257 968 l 175 653 m 400 653 l 258 653 l 392 968 l 482 968 l 400 653 z "},"”":{"ha":528,"x_min":44,"x_max":492,"o":"m 126 968 l 267 968 l 133 653 l 44 653 l 126 968 m 351 968 l 492 968 l 358 653 l 268 653 l 351 968 z "},"„":{"ha":486,"x_min":-3,"x_max":449,"o":"m 79 160 l 221 160 l 88 -156 l -3 -156 l 79 160 m 308 160 l 449 160 l 315 -156 l 225 -156 l 308 160 z "},"†":{"ha":758,"x_min":61,"x_max":697,"o":"m 697 661 l 429 672 l 442 -361 l 317 -361 l 329 672 l 61 661 l 61 761 l 329 750 l 317 1085 l 442 1085 l 429 750 l 697 761 l 697 661 z "},"‡":{"ha":760,"x_min":63,"x_max":697,"o":"m 429 672 l 429 51 l 697 64 l 697 -37 l 429 -26 l 442 -361 l 317 -361 l 329 -26 l 63 -37 l 63 64 l 329 51 l 329 672 l 63 661 l 63 761 l 329 750 l 317 1085 l 442 1085 l 429 750 l 697 761 l 697 661 l 429 672 z "},"•":{"ha":572,"x_min":115,"x_max":457,"o":"m 285 293 q 165 342 214 293 q 115 463 115 392 q 165 584 115 535 q 285 633 214 633 q 407 584 357 633 q 457 463 457 535 q 407 342 457 392 q 285 293 357 293 z "},"…":{"ha":807,"x_min":61,"x_max":751,"o":"m 407 -8 q 346 17 371 -8 q 321 78 321 42 q 346 139 321 114 q 407 164 371 164 q 466 139 442 164 q 490 78 490 114 q 466 17 490 42 q 407 -8 442 -8 m 668 -8 q 607 17 632 -8 q 582 78 582 42 q 607 139 582 114 q 668 164 632 164 q 727 139 703 164 q 751 78 751 114 q 727 17 751 42 q 668 -8 703 -8 m 147 -8 q 86 17 111 -8 q 61 78 61 42 q 86 139 61 114 q 147 164 111 164 q 206 139 182 164 q 231 78 231 114 q 206 17 231 42 q 147 -8 182 -8 z "},"‰":{"ha":1396,"x_min":57,"x_max":1339,"o":"m 57 778 q 114 926 57 871 q 260 982 171 982 q 406 926 349 982 q 463 778 463 871 q 405 628 463 685 q 260 572 347 572 q 114 628 171 572 q 57 778 57 685 m 811 969 l 250 0 l 125 0 l 686 969 l 811 969 m 260 904 q 185 872 213 904 q 157 778 157 839 q 185 684 157 717 q 260 651 213 651 q 334 684 307 651 q 361 778 361 717 q 334 872 361 839 q 260 904 307 904 m 476 192 q 533 342 476 286 q 679 397 590 397 q 824 342 768 397 q 881 192 881 286 q 824 42 881 99 q 679 -14 767 -14 q 533 42 590 -14 q 476 192 476 99 m 933 192 q 991 341 933 285 q 1136 397 1049 397 q 1282 342 1225 397 q 1339 192 1339 286 q 1282 42 1339 99 q 1136 -14 1225 -14 q 991 42 1049 -14 q 933 192 933 99 m 678 318 q 603 286 631 318 q 575 192 575 254 q 603 99 575 131 q 678 67 631 67 q 753 99 725 67 q 781 192 781 131 q 753 286 781 254 q 678 318 725 318 m 1136 318 q 1062 286 1089 318 q 1035 192 1035 254 q 1062 99 1035 131 q 1136 67 1089 67 q 1211 99 1183 67 q 1239 192 1239 131 q 1211 286 1239 254 q 1136 318 1183 318 z "},"‹":{"ha":389,"x_min":63,"x_max":319,"o":"m 196 167 l 63 410 l 196 653 l 319 653 l 182 410 l 319 167 l 196 167 z "},"›":{"ha":389,"x_min":69,"x_max":326,"o":"m 207 410 l 69 653 l 193 653 l 326 410 l 193 167 l 69 167 l 207 410 z "},"⁄":{"ha":686,"x_min":13,"x_max":701,"o":"m 701 969 l 139 0 l 13 0 l 575 969 l 701 969 z "},"€":{"ha":1126,"x_min":35,"x_max":1076,"o":"m 631 106 q 810 151 735 106 q 926 282 886 197 l 1076 282 q 906 67 1024 143 q 631 -8 788 -8 q 342 82 467 -8 q 169 324 217 172 l 35 324 l 35 413 l 150 413 q 146 485 146 449 q 150 553 146 519 l 35 553 l 35 640 l 168 640 q 266 819 199 742 q 427 938 333 896 q 631 981 521 981 q 906 904 788 981 q 1076 688 1024 828 l 926 688 q 811 819 886 774 q 631 865 736 865 q 427 806 514 865 q 303 640 340 746 l 631 640 l 631 553 l 281 553 q 276 485 276 519 q 282 413 276 444 l 631 413 l 631 324 l 304 324 q 431 163 344 221 q 631 106 518 106 z "},"₺":{"ha":1153,"x_min":33,"x_max":1003,"o":"m 1003 579 q 882 124 1003 274 q 497 -25 761 -25 q 260 6 394 -25 l 260 339 l 38 285 l 38 376 l 260 431 l 260 569 l 33 515 l 33 603 l 260 660 l 260 975 l 390 975 l 390 692 l 636 753 l 636 661 l 390 601 l 390 463 l 631 521 l 631 429 l 390 371 l 390 104 q 497 94 435 94 q 784 217 694 94 q 874 579 874 339 l 1003 579 z "},"₽":{"ha":867,"x_min":50,"x_max":817,"o":"m 296 404 l 296 271 l 599 271 l 599 169 l 296 169 l 296 0 l 169 0 l 169 169 l 50 169 l 50 271 l 169 271 l 169 404 l 50 404 l 50 504 l 169 504 l 169 968 l 482 968 q 731 889 646 968 q 817 685 817 810 q 734 484 817 564 q 482 404 651 404 l 296 404 m 296 504 l 482 504 q 637 552 586 504 q 688 685 688 600 q 638 820 688 772 q 482 868 588 868 l 296 868 l 296 504 z "},"ℓ":{"ha":342,"x_min":107,"x_max":233,"o":"m 233 1028 l 233 0 l 107 0 l 107 1028 l 233 1028 z "},"™":{"ha":1085,"x_min":35,"x_max":1007,"o":"m 35 978 l 371 978 l 371 900 l 253 900 l 253 489 l 153 489 l 154 900 l 35 900 l 35 978 m 1007 978 l 1007 489 l 914 489 l 913 843 l 761 489 l 690 489 l 540 849 l 540 489 l 449 489 l 449 978 l 578 978 l 729 607 l 885 978 l 1007 978 z "},"Ω":{"ha":1093,"x_min":57,"x_max":1036,"o":"m 1036 486 q 984 260 1036 363 q 833 100 932 158 l 1018 100 l 1018 0 l 638 0 l 638 104 q 833 234 758 135 q 908 478 908 333 q 861 682 908 594 q 731 817 814 769 q 546 865 649 865 q 360 817 442 865 q 231 681 278 769 q 185 478 185 593 q 260 234 185 333 q 456 104 335 135 l 456 0 l 74 0 l 74 100 l 258 100 q 109 260 161 158 q 57 486 57 363 q 122 741 57 628 q 299 917 188 854 q 546 981 411 981 q 794 917 682 981 q 971 741 906 854 q 1036 486 1036 628 z "},"℮":{"ha":1057,"x_min":65,"x_max":992,"o":"m 951 190 q 540 -10 767 -10 q 296 45 404 -10 q 126 206 188 100 q 65 460 65 313 q 119 721 65 604 q 278 905 174 838 q 528 972 383 972 q 776 910 671 972 q 937 744 882 847 q 992 522 992 640 l 992 438 l 253 438 l 253 204 q 376 107 307 139 q 540 75 444 75 q 724 119 642 75 q 896 251 807 163 l 951 190 m 792 771 q 680 858 747 828 q 528 889 613 889 q 370 856 440 889 q 253 756 300 822 l 253 526 l 792 526 l 792 771 z "},"∂":{"ha":794,"x_min":54,"x_max":739,"o":"m 54 310 q 103 539 54 432 q 238 710 151 646 q 429 775 324 775 q 540 746 494 775 q 608 650 585 717 q 553 870 604 789 q 396 951 501 951 q 285 935 346 951 l 285 1008 q 414 1028 349 1028 q 653 908 568 1028 q 739 572 739 788 q 684 263 739 396 q 535 58 629 131 q 326 -14 442 -14 q 131 69 207 -14 q 54 310 54 151 m 596 450 q 553 613 596 557 q 433 668 510 668 q 304 621 361 668 q 215 492 247 574 q 183 310 183 410 q 226 149 183 203 q 340 94 269 94 q 471 143 413 94 q 563 274 529 192 q 596 450 596 356 z "},"∆":{"ha":944,"x_min":28,"x_max":917,"o":"m 525 963 l 917 99 l 917 0 l 28 0 l 28 99 l 419 963 l 525 963 m 157 99 l 788 99 l 472 818 l 157 99 z "},"∏":{"ha":1026,"x_min":54,"x_max":971,"o":"m 971 969 l 971 869 l 861 869 l 861 0 l 736 0 l 736 869 l 290 869 l 290 0 l 164 0 l 164 869 l 54 869 l 54 969 l 971 969 z "},"∑":{"ha":635,"x_min":56,"x_max":596,"o":"m 596 864 l 163 864 l 532 490 l 532 392 l 161 11 l 596 11 l 596 -87 l 56 -87 l 56 60 l 417 438 l 56 817 l 56 963 l 596 963 l 596 864 z "},"−":{"ha":765,"x_min":106,"x_max":660,"o":"m 660 563 l 660 456 l 106 456 l 106 563 l 660 563 z "},"∕":{"ha":661,"x_min":74,"x_max":579,"o":"m 579 1308 l 199 -236 l 74 -236 l 453 1308 l 579 1308 z "},"∙":{"ha":294,"x_min":65,"x_max":235,"o":"m 151 388 q 90 413 115 388 q 65 474 65 438 q 90 535 65 510 q 151 560 115 560 q 210 535 186 560 q 235 474 235 510 q 210 413 235 438 q 151 388 186 388 z "},"√":{"ha":1094,"x_min":26,"x_max":1075,"o":"m 1075 1207 l 392 -61 l 329 -61 l 156 244 l 65 192 l 26 257 l 225 374 l 383 93 l 982 1207 l 1075 1207 z "},"∞":{"ha":967,"x_min":46,"x_max":922,"o":"m 710 689 q 862 634 801 689 q 922 483 922 579 q 860 333 922 389 q 707 276 799 276 q 585 312 638 276 q 479 411 532 347 q 385 314 442 351 q 257 276 328 276 q 105 331 164 276 q 46 482 46 386 q 107 633 46 576 q 260 689 168 689 q 382 652 329 689 q 486 550 435 615 q 580 650 522 611 q 710 689 638 689 m 264 369 q 354 399 311 369 q 426 478 397 428 q 344 567 379 538 q 265 597 308 597 q 183 567 214 597 q 151 482 151 536 q 182 399 151 429 q 264 369 213 369 m 701 368 q 784 399 753 368 q 815 483 815 429 q 785 566 815 536 q 703 596 754 596 q 610 565 654 596 q 538 483 567 535 q 617 398 579 428 q 701 368 656 368 z "},"∫":{"ha":363,"x_min":-54,"x_max":428,"o":"m 188 1082 q 251 1229 199 1183 q 397 1275 303 1275 l 428 1275 l 417 1169 l 393 1169 q 338 1149 357 1169 q 314 1082 319 1129 l 186 -79 q 125 -228 176 -182 q -22 -274 74 -274 l -54 -274 l -44 -169 l -17 -169 q 37 -149 19 -169 q 60 -79 54 -129 l 188 1082 z "},"≈":{"ha":721,"x_min":51,"x_max":669,"o":"m 51 279 q 247 482 88 482 q 315 469 285 482 q 382 431 344 456 q 437 400 415 410 q 482 390 458 390 q 544 415 518 390 q 575 481 569 439 l 669 481 q 472 278 635 278 q 408 290 436 278 q 340 328 381 303 q 286 359 307 349 q 239 369 265 369 q 176 345 203 369 q 144 279 150 321 l 51 279 m 51 572 q 247 775 88 775 q 315 762 285 775 q 382 724 344 749 q 437 693 415 703 q 482 683 458 683 q 544 708 518 683 q 575 774 569 732 l 669 774 q 472 571 635 571 q 408 583 436 571 q 340 621 381 596 q 286 652 307 642 q 239 663 265 663 q 176 638 203 663 q 144 572 150 614 l 51 572 z "},"≠":{"ha":981,"x_min":140,"x_max":863,"o":"m 632 604 l 468 413 l 863 413 l 863 306 l 376 306 l 260 169 l 164 169 l 281 306 l 140 306 l 140 413 l 372 413 l 535 604 l 140 604 l 140 711 l 626 711 l 743 847 l 840 847 l 724 711 l 863 711 l 863 604 l 632 604 z "},"≤":{"ha":710,"x_min":103,"x_max":606,"o":"m 272 561 l 606 294 l 439 294 l 103 560 l 439 826 l 606 826 l 272 561 m 110 215 l 603 215 l 603 119 l 110 119 l 110 215 z "},"≥":{"ha":710,"x_min":104,"x_max":607,"o":"m 104 294 l 436 561 l 104 826 l 271 826 l 607 560 l 271 294 l 104 294 m 107 215 l 600 215 l 600 119 l 107 119 l 107 215 z "},"◊":{"ha":769,"x_min":50,"x_max":719,"o":"m 719 486 l 385 150 l 50 486 l 386 821 l 719 486 m 188 486 l 385 286 l 583 486 l 386 685 l 188 486 z "},"ﬁ":{"ha":793,"x_min":33,"x_max":711,"o":"m 257 761 l 689 761 l 689 0 l 563 0 l 563 657 l 257 657 l 257 0 l 131 0 l 131 657 l 33 657 l 33 761 l 131 761 l 131 815 q 197 1002 131 943 q 408 1061 263 1061 l 408 956 q 291 923 325 956 q 257 815 257 890 l 257 761 m 626 885 q 566 910 590 885 q 542 971 542 935 q 566 1032 542 1007 q 626 1057 590 1057 q 687 1032 663 1057 q 711 971 711 1007 q 687 910 711 935 q 626 885 663 885 z "},"ﬂ":{"ha":797,"x_min":32,"x_max":690,"o":"m 417 657 l 257 657 l 257 0 l 131 0 l 131 657 l 32 657 l 32 761 l 131 761 l 131 815 q 197 1002 131 943 q 408 1061 263 1061 l 408 956 q 291 923 325 956 q 257 815 257 890 l 257 761 l 417 761 l 417 657 m 690 1028 l 690 0 l 564 0 l 564 1028 l 690 1028 z "}}}
